<svg xmlns="http://www.w3.org/2000/svg" xmlns:xlink="http://www.w3.org/1999/xlink" width="512" zoomAndPan="magnify" viewBox="0 0 384 383.999986" height="512" preserveAspectRatio="xMidYMid meet" version="1.0"><defs><clipPath id="fd4dc7a2a3"><path d="M 58.921875 107.800781 L 325.171875 107.800781 L 325.171875 276.550781 L 58.921875 276.550781 Z M 58.921875 107.800781 " clip-rule="nonzero"/></clipPath><clipPath id="61949a3acd"><path d="M 202 118 L 319 118 L 319 276.550781 L 202 276.550781 Z M 202 118 " clip-rule="nonzero"/></clipPath><clipPath id="2c5dabb493"><path d="M 58.921875 107.800781 L 325.171875 107.800781 L 325.171875 276.550781 L 58.921875 276.550781 Z M 58.921875 107.800781 " clip-rule="nonzero"/></clipPath><clipPath id="b1dccd4066"><path d="M 115 143 L 304 143 L 304 276.550781 L 115 276.550781 Z M 115 143 " clip-rule="nonzero"/></clipPath><clipPath id="cb8c6e58ad"><path d="M 89 117 L 323 117 L 323 276.550781 L 89 276.550781 Z M 89 117 " clip-rule="nonzero"/></clipPath><clipPath id="f0db553488"><path d="M 78 132 L 286 132 L 286 276.550781 L 78 276.550781 Z M 78 132 " clip-rule="nonzero"/></clipPath></defs><rect x="-38.4" width="460.8" fill="#ffffff" y="-38.399999" height="460.799983" fill-opacity="1"/><rect x="-38.4" width="460.8" fill="#eaeaea" y="-38.399999" height="460.799983" fill-opacity="1"/><g clip-path="url(#fd4dc7a2a3)"><path fill="#fd914c" d="M 260.109375 107.835938 L 195.023438 165.164062 L 195.023438 175.746094 L 202.152344 169.480469 L 202.152344 247.832031 L 185.246094 199.789062 L 147.105469 199.789062 C 147.050781 199.507812 146.820312 199.289062 146.519531 199.289062 L 142.25 199.289062 C 141.855469 198.195312 140.4375 197.597656 139.152344 196.941406 L 142.492188 187.023438 C 143.878906 186.722656 145.347656 186.277344 146.886719 185.652344 C 148.226562 185.109375 149.398438 184.414062 150.433594 183.601562 C 150.554688 183.753906 150.734375 183.828125 150.910156 183.828125 C 151.042969 183.828125 151.175781 183.785156 151.285156 183.695312 C 152.046875 183.085938 152.722656 182.394531 153.332031 181.660156 L 161.707031 192.949219 L 169.636719 188.164062 C 167.957031 186.445312 165.921875 186.207031 163.257812 187.199219 L 157.839844 170.050781 C 158.042969 168.332031 158.089844 166.644531 158.011719 165.082031 C 157.992188 164.753906 157.726562 164.511719 157.402344 164.511719 C 157.390625 159.425781 156.605469 154.789062 156.082031 152.261719 C 155.820312 151.007812 155.625 150.277344 155.625 150.277344 C 155.625 150.277344 170.640625 147.964844 171.125 144.492188 C 171.632812 144.0625 171.953125 143.4375 171.953125 142.722656 C 171.953125 141.4375 170.914062 140.394531 169.628906 140.394531 C 169.03125 140.394531 168.492188 140.625 168.078125 140.996094 C 165.4375 139.710938 162.039062 139.15625 162.039062 139.15625 C 162.039062 139.15625 157.921875 130.855469 148.460938 132.859375 C 147.542969 133.054688 146.671875 133.421875 145.859375 133.914062 C 134.378906 137.003906 130.894531 147.910156 135.980469 150.804688 C 135.335938 153.050781 135.027344 154.578125 135.027344 154.578125 C 135.027344 154.578125 111.242188 153.84375 102.65625 163.359375 C 101.515625 164.621094 100.566406 165.929688 99.765625 167.253906 C 92.089844 163.535156 95.863281 151.511719 95.863281 151.511719 L 90.84375 151.511719 C 90.84375 151.511719 87.886719 167.246094 98.578125 169.460938 C 94.75 177.421875 95.859375 185.199219 95.863281 185.207031 L 97.578125 199.28125 L 89.699219 199.28125 C 89.402344 199.28125 89.164062 199.5 89.113281 199.78125 L 85.933594 199.78125 L 58.921875 276.511719 L 108.691406 276.511719 L 125.160156 229.71875 L 132.316406 250.054688 C 132.410156 250.304688 132.640625 250.464844 132.890625 250.464844 C 132.957031 250.464844 133.023438 250.453125 133.089844 250.425781 L 142.265625 276.511719 L 214.417969 276.511719 L 214.417969 249.023438 L 305.777344 249.023438 L 305.777344 276.511719 L 318.058594 276.511719 L 318.058594 169.757812 L 321.742188 173.003906 C 321.855469 173.105469 322.003906 173.15625 322.144531 173.15625 C 322.300781 173.15625 322.453125 173.085938 322.570312 172.972656 L 325.1875 175.277344 L 325.1875 165.164062 Z M 251.554688 149.738281 C 251.554688 149.746094 251.554688 149.75 251.554688 149.757812 C 251.609375 150.050781 251.863281 150.257812 252.152344 150.257812 C 252.1875 150.257812 252.222656 150.257812 252.261719 150.246094 C 255.773438 149.605469 259.441406 149.464844 263.007812 149.832031 C 263.34375 149.863281 263.640625 149.625 263.675781 149.289062 C 263.675781 149.28125 263.675781 149.28125 263.675781 149.277344 C 268.234375 149.8125 272.550781 151.140625 276.480469 153.121094 C 276.480469 153.128906 276.476562 153.128906 276.476562 153.128906 C 276.316406 153.429688 276.433594 153.792969 276.730469 153.953125 C 289.371094 160.566406 297.222656 173.539062 297.222656 187.808594 C 297.222656 195.179688 295.121094 202.328125 291.148438 208.492188 C 290.972656 208.765625 291.042969 209.132812 291.3125 209.316406 C 289.816406 211.554688 288.09375 213.625 286.183594 215.496094 C 285.660156 206.238281 282.632812 196.792969 279.902344 189.960938 C 279.925781 189.917969 279.949219 189.875 279.96875 189.832031 C 281.113281 190.832031 282.355469 191.375 283.636719 191.046875 C 288.835938 189.730469 283.925781 185.9375 283.03125 181.007812 C 282.136719 176.074219 272.441406 173.78125 271.289062 177.761719 L 271.339844 177.792969 C 268.824219 176.792969 265.113281 175.800781 260.246094 175.738281 C 260.246094 175.738281 260.246094 175.726562 260.246094 175.726562 C 260.171875 175.726562 260.097656 175.734375 260.027344 175.734375 C 259.953125 175.734375 259.886719 175.726562 259.808594 175.726562 C 259.808594 175.726562 259.808594 175.734375 259.808594 175.738281 C 254.980469 175.792969 251.304688 176.777344 248.792969 177.761719 L 248.796875 177.757812 C 247.648438 173.777344 237.953125 176.066406 237.058594 181 C 236.164062 185.929688 231.253906 189.722656 236.449219 191.039062 C 237.734375 191.363281 238.976562 190.820312 240.121094 189.828125 C 240.132812 189.859375 240.148438 189.886719 240.167969 189.917969 C 237.273438 197.15625 234.046875 207.316406 233.808594 217.101562 C 225.605469 209.988281 220.40625 199.488281 220.40625 187.773438 C 220.394531 168.949219 233.789062 153.261719 251.554688 149.738281 Z M 134.058594 199.28125 L 122.484375 199.28125 C 122.003906 198.398438 120.816406 197.789062 119.804688 197.617188 L 121.449219 181.226562 C 122.828125 182.046875 124.328125 183.085938 126.050781 184.414062 C 126.160156 184.5 126.292969 184.542969 126.421875 184.542969 C 126.601562 184.542969 126.785156 184.460938 126.902344 184.304688 C 126.917969 184.28125 126.925781 184.25 126.945312 184.226562 C 128.855469 185.273438 130.886719 186.207031 133.113281 186.808594 Z M 102.742188 197.445312 L 106.722656 179.230469 C 106.855469 179.398438 107.074219 179.488281 107.300781 179.445312 C 109.558594 179.011719 111.4375 178.757812 113.171875 178.757812 L 115.320312 199.277344 L 105.65625 199.277344 C 105.125 198.214844 104.25 197.5 102.742188 197.445312 Z M 102.742188 197.445312 " fill-opacity="1" fill-rule="nonzero"/></g><g clip-path="url(#61949a3acd)"><path fill="#acc33e" d="M 308.265625 161.121094 C 308.023438 160.90625 308 160.546875 308.195312 160.292969 L 302.917969 155.640625 C 302.691406 155.816406 302.375 155.824219 302.152344 155.621094 L 260.398438 118.84375 L 207.8125 165.15625 C 207.695312 165.261719 207.550781 165.308594 207.410156 165.308594 C 207.273438 165.308594 207.152344 165.253906 207.042969 165.167969 L 202.15625 169.464844 L 202.15625 247.816406 L 210.0625 270.289062 L 210.0625 249.019531 L 204.726562 249.019531 C 204.390625 249.019531 204.117188 248.746094 204.117188 248.410156 C 204.117188 248.074219 204.390625 247.800781 204.726562 247.800781 L 314.269531 247.800781 C 314.601562 247.800781 314.875 248.074219 314.875 248.410156 C 314.875 248.746094 314.601562 249.019531 314.269531 249.019531 L 310.171875 249.019531 L 310.171875 276.507812 L 318.078125 276.507812 L 318.078125 169.757812 Z M 295.894531 239.800781 L 224.21875 239.800781 C 223.882812 239.800781 223.609375 239.527344 223.609375 239.191406 C 223.609375 238.855469 223.882812 238.582031 224.21875 238.582031 L 295.894531 238.582031 C 296.230469 238.582031 296.503906 238.855469 296.503906 239.191406 C 296.503906 239.527344 296.234375 239.800781 295.894531 239.800781 Z M 259.113281 232.21875 C 244.464844 232.21875 230.816406 224.953125 222.597656 212.785156 C 222.410156 212.503906 222.484375 212.125 222.761719 211.9375 C 223.042969 211.75 223.421875 211.820312 223.609375 212.101562 C 231.601562 223.933594 244.871094 231 259.113281 231 C 282.726562 231 301.945312 211.753906 301.945312 188.097656 C 301.945312 164.4375 282.730469 145.191406 259.113281 145.191406 C 235.496094 145.191406 216.28125 164.4375 216.28125 188.097656 C 216.28125 192.449219 216.925781 196.738281 218.203125 200.855469 C 218.300781 201.175781 218.125 201.519531 217.804688 201.617188 C 217.480469 201.714844 217.140625 201.539062 217.042969 201.214844 C 215.726562 196.984375 215.066406 192.570312 215.066406 188.097656 C 215.066406 163.765625 234.824219 143.972656 259.113281 143.972656 C 283.402344 143.972656 303.160156 163.765625 303.160156 188.097656 C 303.15625 212.429688 283.402344 232.21875 259.113281 232.21875 Z M 220.394531 187.785156 C 220.394531 168.953125 233.789062 153.261719 251.554688 149.746094 C 251.507812 149.421875 251.71875 149.113281 252.046875 149.058594 C 255.675781 148.398438 259.453125 148.253906 263.128906 148.625 C 263.457031 148.660156 263.703125 148.945312 263.671875 149.28125 C 268.230469 149.820312 272.542969 151.148438 276.476562 153.128906 C 276.632812 152.835938 276.992188 152.726562 277.292969 152.878906 C 290.332031 159.699219 298.4375 173.09375 298.4375 187.820312 C 298.4375 195.421875 296.273438 202.804688 292.171875 209.164062 C 292.054688 209.347656 291.859375 209.445312 291.660156 209.445312 C 291.542969 209.445312 291.433594 209.414062 291.332031 209.347656 C 291.324219 209.339844 291.320312 209.335938 291.3125 209.328125 C 289.816406 211.566406 288.09375 213.636719 286.183594 215.507812 C 279.203125 222.347656 269.652344 226.574219 259.113281 226.574219 C 249.429688 226.574219 240.582031 223.007812 233.796875 217.117188 C 225.59375 210 220.394531 199.5 220.394531 187.785156 Z M 220.394531 187.785156 " fill-opacity="1" fill-rule="nonzero"/></g><g clip-path="url(#2c5dabb493)"><path fill="#853fb5" d="M 325.199219 165.164062 L 325.199219 175.277344 L 322.582031 172.972656 C 322.59375 172.960938 322.605469 172.960938 322.613281 172.945312 C 322.832031 172.695312 322.804688 172.308594 322.558594 172.085938 L 309.070312 160.207031 C 308.816406 159.988281 308.433594 160.011719 308.210938 160.261719 C 308.207031 160.273438 308.199219 160.285156 308.195312 160.292969 L 302.917969 155.640625 C 302.949219 155.617188 302.984375 155.597656 303.007812 155.566406 C 303.226562 155.316406 303.203125 154.925781 302.953125 154.707031 L 260.800781 117.578125 C 260.566406 117.375 260.226562 117.375 259.996094 117.578125 L 207.007812 164.25 C 206.75 164.46875 206.726562 164.859375 206.953125 165.109375 C 206.976562 165.136719 207.011719 165.148438 207.042969 165.175781 L 202.15625 169.472656 L 195.03125 175.738281 L 195.03125 165.164062 L 260.109375 107.835938 Z M 94.816406 217.191406 L 120.753906 217.191406 L 118.558594 210.949219 C 118.449219 210.632812 118.613281 210.285156 118.929688 210.167969 L 115.519531 200.5 L 89.699219 200.5 C 89.363281 200.5 89.089844 200.226562 89.089844 199.890625 C 89.089844 199.855469 89.101562 199.816406 89.113281 199.78125 L 85.933594 199.78125 L 58.921875 276.511719 L 78.554688 276.511719 L 99.003906 218.410156 L 94.816406 218.410156 C 94.484375 218.410156 94.207031 218.136719 94.207031 217.800781 C 94.207031 217.464844 94.484375 217.191406 94.816406 217.191406 Z M 94.816406 217.191406 " fill-opacity="1" fill-rule="nonzero"/></g><g clip-path="url(#b1dccd4066)"><path fill="#ffd38a" d="M 279.894531 189.96875 C 279.882812 189.984375 279.882812 190.003906 279.871094 190.023438 C 279.75 190.175781 279.574219 190.261719 279.390625 190.261719 C 279.261719 190.261719 279.128906 190.21875 279.019531 190.132812 C 277.207031 188.71875 273.863281 182.558594 273.207031 179.03125 L 271.339844 177.804688 C 268.824219 176.804688 265.113281 175.8125 260.246094 175.75 C 260.246094 175.75 260.246094 175.738281 260.246094 175.738281 C 260.171875 175.738281 260.097656 175.746094 260.027344 175.746094 C 259.953125 175.746094 259.886719 175.738281 259.808594 175.738281 C 259.808594 175.738281 259.808594 175.746094 259.808594 175.75 C 254.980469 175.804688 251.304688 176.789062 248.792969 177.773438 L 246.875 179.023438 C 246.21875 182.554688 242.875 188.710938 241.0625 190.125 C 240.953125 190.210938 240.820312 190.253906 240.691406 190.253906 C 240.507812 190.253906 240.332031 190.175781 240.210938 190.015625 C 240.1875 189.984375 240.179688 189.953125 240.167969 189.925781 C 237.273438 197.160156 234.046875 207.324219 233.808594 217.105469 C 240.59375 222.988281 249.441406 226.5625 259.125 226.5625 C 269.664062 226.5625 279.214844 222.335938 286.195312 215.496094 C 285.652344 206.242188 282.632812 196.800781 279.894531 189.96875 Z M 266.195312 189.996094 C 266.636719 189.011719 267.351562 188.382812 268.222656 188.230469 C 269.050781 188.089844 269.902344 188.40625 270.546875 189.101562 C 270.78125 189.34375 270.765625 189.734375 270.519531 189.960938 C 270.273438 190.191406 269.886719 190.179688 269.660156 189.929688 C 269.292969 189.539062 268.84375 189.359375 268.425781 189.429688 C 267.96875 189.511719 267.574219 189.882812 267.3125 190.484375 C 267.207031 190.710938 266.988281 190.851562 266.75 190.851562 C 266.671875 190.851562 266.585938 190.832031 266.507812 190.800781 C 266.195312 190.664062 266.058594 190.300781 266.195312 189.996094 Z M 248.542969 187.816406 C 253.628906 186.003906 256.890625 188.71875 256.101562 190.820312 C 255.308594 192.921875 252.277344 192.070312 248.464844 194.214844 C 244.648438 196.363281 243.453125 189.625 248.542969 187.816406 Z M 257.796875 223.648438 C 257.6875 223.726562 257.5625 223.769531 257.441406 223.769531 C 257.25 223.769531 257.070312 223.683594 256.945312 223.519531 C 256.746094 223.25 256.808594 222.867188 257.074219 222.667969 L 259.65625 220.757812 C 259.921875 220.558594 260.304688 220.617188 260.507812 220.886719 C 260.707031 221.15625 260.648438 221.539062 260.378906 221.738281 Z M 263.707031 221.734375 L 261.128906 223.640625 C 261.019531 223.722656 260.890625 223.761719 260.769531 223.761719 C 260.578125 223.761719 260.398438 223.679688 260.277344 223.511719 C 260.074219 223.246094 260.136719 222.859375 260.402344 222.660156 L 262.984375 220.753906 C 263.25 220.550781 263.636719 220.613281 263.835938 220.878906 C 264.035156 221.15625 263.980469 221.539062 263.707031 221.734375 Z M 265.332031 209.902344 C 265.21875 210.101562 264.085938 211.839844 259.757812 211.839844 C 255.429688 211.839844 254.300781 210.101562 254.183594 209.902344 C 254.011719 209.609375 254.117188 209.238281 254.402344 209.066406 C 254.6875 208.902344 255.054688 208.992188 255.222656 209.273438 C 255.253906 209.320312 256.1875 210.613281 259.753906 210.613281 C 263.367188 210.613281 264.273438 209.285156 264.28125 209.273438 C 264.460938 209 264.832031 208.90625 265.113281 209.078125 C 265.398438 209.253906 265.496094 209.613281 265.332031 209.902344 Z M 274.222656 206.9375 C 270.449219 210.027344 264.335938 205.75 260.019531 205.75 C 255.707031 205.75 249.589844 210.027344 245.816406 206.9375 C 242.042969 203.847656 249.144531 193.9375 260.019531 193.9375 C 270.894531 193.9375 277.996094 203.847656 274.222656 206.9375 Z M 303.15625 188.101562 C 303.15625 212.429688 283.394531 232.226562 259.105469 232.226562 C 244.457031 232.226562 230.808594 224.957031 222.59375 212.789062 C 222.402344 212.511719 222.476562 212.132812 222.757812 211.941406 C 223.035156 211.753906 223.414062 211.828125 223.601562 212.109375 C 231.59375 223.941406 244.867188 231.003906 259.105469 231.003906 C 282.71875 231.003906 301.9375 211.761719 301.9375 188.101562 C 301.9375 164.441406 282.726562 145.199219 259.105469 145.199219 C 235.488281 145.199219 216.277344 164.441406 216.277344 188.101562 C 216.277344 192.453125 216.921875 196.746094 218.199219 200.859375 C 218.296875 201.183594 218.121094 201.523438 217.796875 201.621094 C 217.476562 201.71875 217.132812 201.542969 217.035156 201.21875 C 215.722656 196.988281 215.058594 192.578125 215.058594 188.101562 C 215.058594 163.773438 234.820312 143.980469 259.105469 143.980469 C 283.394531 143.980469 303.15625 163.773438 303.15625 188.101562 Z M 202.152344 247.824219 L 185.246094 199.78125 L 147.105469 199.78125 C 147.113281 199.816406 147.128906 199.847656 147.128906 199.890625 C 147.128906 200.226562 146.855469 200.5 146.519531 200.5 L 115.519531 200.5 L 118.929688 210.175781 C 119.246094 210.066406 119.59375 210.230469 119.707031 210.546875 L 133.46875 249.648438 C 133.578125 249.964844 133.414062 250.3125 133.097656 250.425781 L 142.273438 276.511719 L 212.242188 276.511719 L 210.054688 270.292969 Z M 125.0625 209.972656 C 125.0625 209.640625 125.335938 209.363281 125.671875 209.363281 L 183.621094 209.363281 C 183.953125 209.363281 184.226562 209.640625 184.226562 209.972656 C 184.226562 210.308594 183.953125 210.582031 183.621094 210.582031 L 125.671875 210.582031 C 125.332031 210.582031 125.0625 210.308594 125.0625 209.972656 Z M 128.429688 219.429688 C 128.429688 219.09375 128.703125 218.820312 129.039062 218.820312 L 186.984375 218.820312 C 187.320312 218.820312 187.59375 219.09375 187.59375 219.429688 C 187.59375 219.765625 187.320312 220.039062 186.984375 220.039062 L 129.039062 220.039062 C 128.703125 220.039062 128.429688 219.765625 128.429688 219.429688 Z M 132.410156 229.5 C 132.074219 229.5 131.800781 229.226562 131.800781 228.890625 C 131.800781 228.554688 132.074219 228.28125 132.410156 228.28125 L 190.355469 228.28125 C 190.691406 228.28125 190.964844 228.554688 190.964844 228.890625 C 190.964844 229.226562 190.691406 229.5 190.355469 229.5 Z M 135.171875 238.34375 C 135.171875 238.011719 135.445312 237.734375 135.78125 237.734375 L 193.726562 237.734375 C 194.0625 237.734375 194.335938 238.011719 194.335938 238.34375 C 194.335938 238.679688 194.0625 238.953125 193.726562 238.953125 L 135.78125 238.953125 C 135.445312 238.953125 135.171875 238.679688 135.171875 238.34375 Z M 138.542969 247.800781 C 138.542969 247.464844 138.816406 247.191406 139.152344 247.191406 L 197.101562 247.191406 C 197.433594 247.191406 197.707031 247.464844 197.707031 247.800781 C 197.707031 248.136719 197.433594 248.410156 197.101562 248.410156 L 139.152344 248.410156 C 138.816406 248.410156 138.542969 248.140625 138.542969 247.800781 Z M 141.914062 257.261719 C 141.914062 256.925781 142.1875 256.652344 142.523438 256.652344 L 200.472656 256.652344 C 200.804688 256.652344 201.078125 256.925781 201.078125 257.261719 C 201.078125 257.597656 200.804688 257.871094 200.472656 257.871094 L 142.523438 257.871094 C 142.183594 257.871094 141.914062 257.597656 141.914062 257.261719 Z M 203.835938 267.324219 L 145.886719 267.324219 C 145.554688 267.324219 145.28125 267.050781 145.28125 266.714844 C 145.28125 266.378906 145.554688 266.105469 145.886719 266.105469 L 203.835938 266.105469 C 204.171875 266.105469 204.445312 266.378906 204.445312 266.714844 C 204.445312 267.050781 204.171875 267.324219 203.835938 267.324219 Z M 203.835938 267.324219 " fill-opacity="1" fill-rule="nonzero"/></g><g clip-path="url(#cb8c6e58ad)"><path fill="#0a364e" d="M 90.84375 151.511719 L 95.863281 151.511719 C 95.863281 151.511719 92.089844 163.539062 99.777344 167.246094 C 99.332031 167.984375 98.9375 168.722656 98.578125 169.460938 C 87.890625 167.246094 90.84375 151.511719 90.84375 151.511719 Z M 255.625 202.71875 C 255.332031 202.550781 254.960938 202.648438 254.792969 202.941406 C 254.621094 203.230469 254.71875 203.605469 255.011719 203.773438 C 255.480469 204.050781 255.949219 204.160156 256.410156 204.160156 C 257.949219 204.160156 259.351562 202.914062 260.015625 202.226562 C 260.671875 202.914062 262.078125 204.160156 263.617188 204.160156 C 264.078125 204.160156 264.546875 204.050781 265.015625 203.773438 C 265.308594 203.605469 265.40625 203.230469 265.234375 202.941406 C 265.066406 202.648438 264.695312 202.550781 264.402344 202.71875 C 262.875 203.609375 260.945312 201.464844 260.617188 201.082031 L 260.617188 196.253906 C 261.6875 196.125 262.480469 195.667969 262.480469 195.113281 C 262.480469 194.460938 261.371094 193.9375 260.007812 193.9375 C 258.644531 193.9375 257.535156 194.460938 257.535156 195.113281 C 257.535156 195.660156 258.328125 196.117188 259.398438 196.253906 L 259.398438 201.082031 C 259.082031 201.457031 257.136719 203.589844 255.625 202.71875 Z M 279.019531 190.125 C 279.128906 190.210938 279.261719 190.253906 279.390625 190.253906 C 279.574219 190.253906 279.75 190.175781 279.871094 190.015625 C 279.882812 189.996094 279.890625 189.980469 279.894531 189.960938 C 279.921875 189.917969 279.945312 189.875 279.960938 189.832031 C 280.042969 189.59375 279.976562 189.328125 279.761719 189.164062 C 278.089844 187.859375 274.667969 181.390625 274.320312 178.355469 C 274.285156 178.019531 273.972656 177.78125 273.644531 177.816406 C 273.3125 177.855469 273.074219 178.160156 273.109375 178.496094 C 273.128906 178.664062 273.164062 178.84375 273.195312 179.023438 C 273.859375 182.554688 277.199219 188.710938 279.019531 190.125 Z M 240.199219 190.023438 C 240.320312 190.175781 240.496094 190.261719 240.679688 190.261719 C 240.808594 190.261719 240.941406 190.21875 241.050781 190.132812 C 242.863281 188.71875 246.207031 182.558594 246.863281 179.03125 C 246.898438 178.847656 246.929688 178.664062 246.949219 178.5 C 246.984375 178.164062 246.746094 177.867188 246.414062 177.824219 C 246.082031 177.789062 245.78125 178.023438 245.738281 178.359375 C 245.390625 181.402344 241.96875 187.871094 240.296875 189.167969 C 240.089844 189.332031 240.023438 189.601562 240.09375 189.839844 C 240.109375 189.871094 240.125 189.898438 240.144531 189.929688 C 240.167969 189.960938 240.179688 189.992188 240.199219 190.023438 Z M 249.535156 189.101562 C 249.304688 189.34375 249.316406 189.734375 249.566406 189.960938 C 249.808594 190.191406 250.199219 190.179688 250.421875 189.929688 C 250.789062 189.539062 251.238281 189.359375 251.65625 189.429688 C 252.113281 189.511719 252.511719 189.882812 252.773438 190.484375 C 252.875 190.710938 253.09375 190.851562 253.332031 190.851562 C 253.410156 190.851562 253.496094 190.832031 253.574219 190.800781 C 253.878906 190.667969 254.019531 190.308594 253.886719 189.996094 C 253.449219 189.011719 252.730469 188.382812 251.859375 188.230469 C 251.039062 188.089844 250.183594 188.40625 249.535156 189.101562 Z M 266.75 190.851562 C 266.980469 190.851562 267.207031 190.71875 267.3125 190.484375 C 267.578125 189.882812 267.972656 189.503906 268.425781 189.429688 C 268.84375 189.363281 269.292969 189.539062 269.660156 189.929688 C 269.890625 190.175781 270.273438 190.1875 270.519531 189.960938 C 270.761719 189.730469 270.773438 189.34375 270.546875 189.101562 C 269.898438 188.40625 269.050781 188.089844 268.222656 188.230469 C 267.351562 188.375 266.636719 189.003906 266.195312 189.996094 C 266.0625 190.300781 266.203125 190.667969 266.507812 190.800781 C 266.585938 190.832031 266.671875 190.851562 266.75 190.851562 Z M 263.128906 148.617188 C 259.453125 148.246094 255.667969 148.390625 252.046875 149.050781 C 251.726562 149.113281 251.507812 149.417969 251.554688 149.738281 C 251.554688 149.746094 251.554688 149.75 251.554688 149.757812 C 251.609375 150.050781 251.863281 150.257812 252.152344 150.257812 C 252.1875 150.257812 252.222656 150.257812 252.261719 150.246094 C 255.773438 149.605469 259.441406 149.464844 263.007812 149.832031 C 263.34375 149.863281 263.640625 149.625 263.675781 149.289062 C 263.675781 149.28125 263.675781 149.28125 263.675781 149.277344 C 263.703125 148.945312 263.457031 148.65625 263.128906 148.617188 Z M 277.292969 152.871094 C 277 152.71875 276.632812 152.832031 276.476562 153.121094 C 276.476562 153.128906 276.46875 153.128906 276.46875 153.128906 C 276.3125 153.429688 276.425781 153.792969 276.726562 153.953125 C 289.367188 160.566406 297.214844 173.539062 297.214844 187.808594 C 297.214844 195.179688 295.117188 202.328125 291.140625 208.492188 C 290.964844 208.765625 291.039062 209.132812 291.304688 209.316406 C 291.3125 209.320312 291.320312 209.328125 291.324219 209.335938 C 291.429688 209.402344 291.542969 209.433594 291.652344 209.433594 C 291.855469 209.433594 292.050781 209.335938 292.164062 209.152344 C 296.265625 202.792969 298.433594 195.410156 298.433594 187.808594 C 298.4375 173.082031 290.339844 159.695312 277.292969 152.871094 Z M 314.261719 247.804688 L 204.71875 247.804688 C 204.382812 247.804688 204.109375 248.082031 204.109375 248.414062 C 204.109375 248.75 204.382812 249.023438 204.71875 249.023438 L 210.054688 249.023438 L 210.054688 270.292969 L 212.242188 276.511719 L 214.425781 276.511719 L 214.425781 249.023438 L 305.785156 249.023438 L 305.785156 276.511719 L 310.160156 276.511719 L 310.160156 249.023438 L 314.253906 249.023438 C 314.589844 249.023438 314.863281 248.75 314.863281 248.414062 C 314.863281 248.082031 314.597656 247.804688 314.261719 247.804688 Z M 322.558594 172.082031 L 309.070312 160.199219 C 308.816406 159.980469 308.433594 160.003906 308.210938 160.253906 C 308.207031 160.265625 308.199219 160.28125 308.195312 160.285156 C 308 160.535156 308.023438 160.902344 308.265625 161.113281 L 318.070312 169.753906 L 321.753906 172.996094 C 321.867188 173.097656 322.015625 173.148438 322.15625 173.148438 C 322.3125 173.148438 322.464844 173.082031 322.582031 172.964844 C 322.59375 172.953125 322.605469 172.953125 322.613281 172.941406 C 322.832031 172.691406 322.804688 172.308594 322.558594 172.082031 Z M 207.039062 165.175781 C 207.148438 165.261719 207.269531 165.316406 207.402344 165.316406 C 207.542969 165.316406 207.6875 165.265625 207.804688 165.164062 L 260.390625 118.851562 L 302.144531 155.628906 C 302.363281 155.824219 302.6875 155.816406 302.910156 155.648438 C 302.941406 155.621094 302.980469 155.605469 303.003906 155.574219 C 303.222656 155.324219 303.199219 154.933594 302.949219 154.714844 L 260.792969 117.582031 C 260.5625 117.382812 260.222656 117.382812 259.988281 117.582031 L 207 164.253906 C 206.746094 164.472656 206.722656 164.863281 206.945312 165.113281 C 206.972656 165.136719 207.007812 165.148438 207.039062 165.175781 Z M 223.609375 239.191406 C 223.609375 239.527344 223.882812 239.800781 224.21875 239.800781 L 295.894531 239.800781 C 296.230469 239.800781 296.503906 239.527344 296.503906 239.191406 C 296.503906 238.855469 296.230469 238.582031 295.894531 238.582031 L 224.21875 238.582031 C 223.882812 238.582031 223.609375 238.855469 223.609375 239.191406 Z M 119.703125 210.546875 C 119.59375 210.230469 119.246094 210.066406 118.921875 210.175781 C 118.605469 210.285156 118.441406 210.632812 118.550781 210.957031 L 120.75 217.199219 L 94.816406 217.199219 C 94.484375 217.199219 94.207031 217.472656 94.207031 217.808594 C 94.207031 218.144531 94.484375 218.417969 94.816406 218.417969 L 121.179688 218.417969 L 125.160156 229.726562 L 132.316406 250.0625 C 132.410156 250.3125 132.640625 250.46875 132.890625 250.46875 C 132.957031 250.46875 133.023438 250.457031 133.089844 250.433594 C 133.40625 250.324219 133.570312 249.976562 133.460938 249.652344 Z M 135.992188 150.800781 C 136.6875 151.195312 137.539062 151.445312 138.554688 151.507812 C 146.996094 151.984375 145.875 133.976562 145.871094 133.914062 C 134.390625 136.992188 130.90625 147.898438 135.992188 150.800781 Z M 169.640625 140.382812 C 169.042969 140.382812 168.503906 140.613281 168.089844 140.984375 C 167.621094 141.414062 167.316406 142.023438 167.316406 142.703125 C 167.316406 143.992188 168.355469 145.035156 169.640625 145.035156 C 170.214844 145.035156 170.730469 144.820312 171.132812 144.472656 C 171.636719 144.046875 171.960938 143.417969 171.960938 142.703125 C 171.960938 141.425781 170.925781 140.382812 169.640625 140.382812 Z M 160.714844 145.191406 C 160.664062 145.242188 159.429688 146.410156 156.320312 145.007812 C 156.015625 144.867188 155.648438 145.007812 155.515625 145.3125 C 155.375 145.617188 155.515625 145.984375 155.820312 146.117188 C 157.128906 146.703125 158.195312 146.90625 159.035156 146.90625 C 160.75 146.90625 161.546875 146.082031 161.59375 146.027344 C 161.820312 145.785156 161.808594 145.410156 161.570312 145.179688 C 161.335938 144.949219 160.949219 144.953125 160.714844 145.191406 Z M 150.550781 139.359375 C 150.980469 138.292969 151.523438 137.699219 152.027344 137.722656 C 152.546875 137.753906 153.105469 138.414062 153.347656 139.296875 C 153.441406 139.621094 153.777344 139.816406 154.097656 139.71875 C 154.421875 139.625 154.609375 139.292969 154.519531 138.96875 C 154.117188 137.535156 153.160156 136.566406 152.089844 136.511719 C 151.46875 136.476562 150.289062 136.742188 149.410156 138.90625 C 149.285156 139.21875 149.4375 139.570312 149.746094 139.699219 C 149.820312 139.730469 149.898438 139.742188 149.976562 139.742188 C 150.226562 139.734375 150.457031 139.597656 150.550781 139.359375 Z M 107.300781 179.453125 C 109.558594 179.019531 111.4375 178.761719 113.171875 178.761719 C 116.007812 178.757812 118.453125 179.453125 121.449219 181.226562 C 122.828125 182.046875 124.328125 183.085938 126.050781 184.414062 C 126.160156 184.5 126.292969 184.542969 126.421875 184.542969 C 126.601562 184.542969 126.785156 184.460938 126.902344 184.304688 C 126.917969 184.28125 126.925781 184.25 126.945312 184.226562 C 127.082031 183.96875 127.035156 183.640625 126.792969 183.449219 C 118.777344 177.257812 115.015625 176.738281 107.074219 178.257812 C 106.746094 178.316406 106.527344 178.640625 106.59375 178.96875 C 106.609375 179.074219 106.667969 179.164062 106.726562 179.238281 C 106.855469 179.398438 107.074219 179.496094 107.300781 179.453125 Z M 157.410156 164.5 C 157.398438 164.5 157.390625 164.492188 157.378906 164.492188 C 157.042969 164.511719 156.78125 164.796875 156.800781 165.132812 C 157.074219 170.710938 155.59375 178.664062 150.527344 182.738281 C 150.265625 182.949219 150.222656 183.335938 150.433594 183.597656 C 150.554688 183.75 150.734375 183.824219 150.910156 183.824219 C 151.042969 183.824219 151.175781 183.78125 151.285156 183.6875 C 152.046875 183.078125 152.722656 182.390625 153.332031 181.652344 C 155.996094 178.441406 157.359375 174.148438 157.839844 170.039062 C 158.042969 168.320312 158.089844 166.632812 158.011719 165.070312 C 158.003906 164.742188 157.738281 164.5 157.410156 164.5 Z M 108.042969 168.34375 C 108.125 168.386719 108.21875 168.40625 108.308594 168.40625 C 108.535156 168.40625 108.753906 168.277344 108.855469 168.0625 L 110.164062 165.371094 C 110.3125 165.066406 110.191406 164.707031 109.886719 164.554688 C 109.582031 164.40625 109.222656 164.527344 109.070312 164.832031 L 107.761719 167.527344 C 107.617188 167.832031 107.742188 168.199219 108.042969 168.34375 Z M 110.585938 168.699219 C 110.671875 168.742188 110.761719 168.757812 110.851562 168.757812 C 111.078125 168.757812 111.296875 168.632812 111.402344 168.417969 L 112.710938 165.722656 C 112.855469 165.417969 112.734375 165.058594 112.429688 164.90625 C 112.125 164.761719 111.761719 164.882812 111.613281 165.1875 L 110.304688 167.882812 C 110.160156 168.1875 110.28125 168.550781 110.585938 168.699219 Z M 138.410156 157.292969 L 137.101562 159.988281 C 136.953125 160.292969 137.078125 160.652344 137.378906 160.804688 C 137.464844 160.847656 137.558594 160.863281 137.648438 160.863281 C 137.875 160.863281 138.09375 160.738281 138.195312 160.523438 L 139.503906 157.828125 C 139.652344 157.523438 139.527344 157.164062 139.226562 157.011719 C 138.921875 156.867188 138.554688 156.988281 138.410156 157.292969 Z M 141.761719 157.371094 C 141.464844 157.226562 141.097656 157.347656 140.945312 157.652344 L 139.636719 160.347656 C 139.492188 160.652344 139.613281 161.011719 139.917969 161.164062 C 140.003906 161.207031 140.09375 161.222656 140.1875 161.222656 C 140.410156 161.222656 140.628906 161.097656 140.734375 160.882812 L 142.042969 158.1875 C 142.1875 157.882812 142.066406 157.519531 141.761719 157.371094 Z M 141.226562 172.753906 C 141.3125 172.792969 141.402344 172.8125 141.496094 172.8125 C 141.71875 172.8125 141.9375 172.683594 142.042969 172.472656 L 143.351562 169.777344 C 143.496094 169.472656 143.375 169.113281 143.070312 168.960938 C 142.765625 168.8125 142.402344 168.9375 142.253906 169.242188 L 140.945312 171.933594 C 140.800781 172.238281 140.929688 172.605469 141.226562 172.753906 Z M 145.613281 169.320312 C 145.308594 169.171875 144.945312 169.296875 144.800781 169.601562 L 143.492188 172.292969 C 143.34375 172.601562 143.464844 172.964844 143.769531 173.113281 C 143.855469 173.15625 143.945312 173.171875 144.039062 173.171875 C 144.261719 173.171875 144.484375 173.042969 144.585938 172.832031 L 145.894531 170.136719 C 146.039062 169.832031 145.917969 169.464844 145.613281 169.320312 Z M 146.515625 199.28125 L 89.699219 199.28125 C 89.402344 199.28125 89.164062 199.5 89.113281 199.78125 C 89.109375 199.816406 89.089844 199.847656 89.089844 199.890625 C 89.089844 200.226562 89.363281 200.5 89.699219 200.5 L 146.515625 200.5 C 146.851562 200.5 147.125 200.226562 147.125 199.890625 C 147.125 199.855469 147.113281 199.816406 147.097656 199.78125 C 147.050781 199.496094 146.8125 199.28125 146.515625 199.28125 Z M 152.386719 150.265625 C 152.386719 150.265625 153.648438 151.835938 156.09375 152.25 C 155.832031 150.996094 155.636719 150.265625 155.636719 150.265625 C 153.746094 150.597656 152.386719 150.265625 152.386719 150.265625 Z M 152.386719 150.265625 " fill-opacity="1" fill-rule="nonzero"/></g><g clip-path="url(#f0db553488)"><path fill="#fd914c" d="M 121.179688 218.410156 L 125.160156 229.71875 L 108.691406 276.511719 L 78.554688 276.511719 L 99.003906 218.410156 Z M 248.542969 187.816406 C 253.628906 186.003906 256.890625 188.71875 256.101562 190.820312 C 255.308594 192.921875 252.277344 192.070312 248.464844 194.214844 C 244.648438 196.363281 243.453125 189.625 248.542969 187.816406 Z M 249.566406 189.960938 C 249.808594 190.191406 250.199219 190.179688 250.421875 189.929688 C 250.789062 189.539062 251.238281 189.359375 251.65625 189.429688 C 252.113281 189.511719 252.511719 189.882812 252.773438 190.484375 C 252.875 190.710938 253.09375 190.851562 253.332031 190.851562 C 253.410156 190.851562 253.496094 190.832031 253.574219 190.800781 C 253.878906 190.667969 254.019531 190.308594 253.886719 189.996094 C 253.449219 189.011719 252.730469 188.382812 251.859375 188.230469 C 251.03125 188.089844 250.179688 188.40625 249.535156 189.101562 C 249.308594 189.34375 249.320312 189.730469 249.566406 189.960938 Z M 260.019531 193.9375 C 261.382812 193.9375 262.492188 194.460938 262.492188 195.113281 C 262.492188 195.660156 261.699219 196.117188 260.628906 196.253906 L 260.628906 201.082031 C 260.957031 201.464844 262.878906 203.605469 264.414062 202.71875 C 264.707031 202.550781 265.078125 202.648438 265.246094 202.941406 C 265.417969 203.230469 265.320312 203.605469 265.027344 203.773438 C 264.558594 204.050781 264.089844 204.160156 263.628906 204.160156 C 262.089844 204.160156 260.6875 202.914062 260.027344 202.226562 C 259.363281 202.914062 257.964844 204.160156 256.421875 204.160156 C 255.960938 204.160156 255.492188 204.050781 255.023438 203.773438 C 254.730469 203.605469 254.632812 203.230469 254.804688 202.941406 C 254.976562 202.648438 255.347656 202.550781 255.636719 202.71875 C 257.148438 203.597656 259.09375 201.457031 259.421875 201.082031 L 259.421875 196.253906 C 258.351562 196.125 257.5625 195.667969 257.5625 195.113281 C 257.550781 194.460938 258.65625 193.9375 260.019531 193.9375 C 249.144531 193.9375 242.035156 203.847656 245.816406 206.9375 C 249.589844 210.027344 255.707031 205.75 260.019531 205.75 C 264.335938 205.75 270.449219 210.027344 274.222656 206.9375 C 277.996094 203.847656 270.894531 193.9375 260.019531 193.9375 Z M 283.023438 181.011719 C 282.128906 176.082031 272.433594 173.789062 271.285156 177.769531 L 271.332031 177.800781 L 273.203125 179.023438 C 273.164062 178.84375 273.132812 178.660156 273.117188 178.496094 C 273.078125 178.160156 273.316406 177.859375 273.652344 177.816406 C 273.980469 177.78125 274.285156 178.019531 274.328125 178.355469 C 274.675781 181.394531 278.09375 187.863281 279.769531 189.164062 C 279.976562 189.328125 280.042969 189.59375 279.96875 189.832031 C 281.113281 190.832031 282.355469 191.375 283.636719 191.046875 C 288.828125 189.734375 283.914062 185.945312 283.023438 181.011719 Z M 246.417969 177.816406 C 246.753906 177.855469 246.992188 178.160156 246.953125 178.496094 C 246.9375 178.664062 246.898438 178.84375 246.867188 179.023438 L 248.785156 177.773438 L 248.792969 177.769531 C 247.640625 173.789062 237.945312 176.082031 237.050781 181.011719 C 236.15625 185.945312 231.246094 189.734375 236.445312 191.050781 C 237.726562 191.375 238.96875 190.832031 240.113281 189.839844 C 240.035156 189.601562 240.101562 189.332031 240.3125 189.167969 C 241.988281 187.863281 245.40625 181.402344 245.753906 178.359375 C 245.785156 178.019531 246.089844 177.78125 246.417969 177.816406 Z M 265.121094 209.085938 C 264.839844 208.914062 264.46875 209 264.285156 209.28125 C 264.28125 209.292969 263.375 210.621094 259.757812 210.621094 C 256.191406 210.621094 255.261719 209.328125 255.230469 209.28125 C 255.058594 209 254.695312 208.902344 254.410156 209.070312 C 254.117188 209.242188 254.019531 209.613281 254.191406 209.90625 C 254.304688 210.109375 255.4375 211.847656 259.765625 211.847656 C 264.089844 211.847656 265.222656 210.109375 265.339844 209.90625 C 265.496094 209.613281 265.398438 209.253906 265.121094 209.085938 Z M 184.222656 209.972656 C 184.222656 209.640625 183.949219 209.363281 183.613281 209.363281 L 125.664062 209.363281 C 125.332031 209.363281 125.058594 209.640625 125.058594 209.972656 C 125.058594 210.308594 125.332031 210.582031 125.664062 210.582031 L 183.613281 210.582031 C 183.949219 210.582031 184.222656 210.308594 184.222656 209.972656 Z M 187.59375 219.429688 C 187.59375 219.09375 187.320312 218.820312 186.984375 218.820312 L 129.039062 218.820312 C 128.703125 218.820312 128.429688 219.09375 128.429688 219.429688 C 128.429688 219.765625 128.703125 220.039062 129.039062 220.039062 L 186.984375 220.039062 C 187.320312 220.039062 187.59375 219.765625 187.59375 219.429688 Z M 190.964844 228.890625 C 190.964844 228.554688 190.691406 228.28125 190.355469 228.28125 L 132.410156 228.28125 C 132.074219 228.28125 131.800781 228.554688 131.800781 228.890625 C 131.800781 229.226562 132.074219 229.5 132.410156 229.5 L 190.355469 229.5 C 190.691406 229.5 190.964844 229.226562 190.964844 228.890625 Z M 194.335938 238.34375 C 194.335938 238.011719 194.0625 237.734375 193.726562 237.734375 L 135.78125 237.734375 C 135.445312 237.734375 135.171875 238.011719 135.171875 238.34375 C 135.171875 238.679688 135.445312 238.953125 135.78125 238.953125 L 193.726562 238.953125 C 194.0625 238.953125 194.335938 238.679688 194.335938 238.34375 Z M 197.703125 247.800781 C 197.703125 247.464844 197.429688 247.191406 197.09375 247.191406 L 139.144531 247.191406 C 138.8125 247.191406 138.535156 247.464844 138.535156 247.800781 C 138.535156 248.136719 138.8125 248.410156 139.144531 248.410156 L 197.09375 248.410156 C 197.433594 248.410156 197.703125 248.140625 197.703125 247.800781 Z M 201.074219 257.261719 C 201.074219 256.925781 200.800781 256.652344 200.464844 256.652344 L 142.515625 256.652344 C 142.183594 256.652344 141.910156 256.925781 141.910156 257.261719 C 141.910156 257.597656 142.183594 257.871094 142.515625 257.871094 L 200.464844 257.871094 C 200.800781 257.871094 201.074219 257.597656 201.074219 257.261719 Z M 203.835938 266.105469 L 145.886719 266.105469 C 145.554688 266.105469 145.28125 266.378906 145.28125 266.714844 C 145.28125 267.050781 145.554688 267.324219 145.886719 267.324219 L 203.835938 267.324219 C 204.171875 267.324219 204.445312 267.050781 204.445312 266.714844 C 204.445312 266.378906 204.171875 266.105469 203.835938 266.105469 Z M 95.863281 185.199219 C 95.863281 185.195312 94.75 177.414062 98.578125 169.453125 C 98.929688 168.714844 99.332031 167.980469 99.777344 167.242188 C 100.582031 165.917969 101.53125 164.609375 102.667969 163.347656 C 111.253906 153.832031 135.039062 154.566406 135.039062 154.566406 C 135.039062 154.566406 135.347656 153.039062 135.992188 150.792969 C 136.6875 151.191406 137.539062 151.441406 138.554688 151.5 C 146.996094 151.976562 145.875 133.96875 145.871094 133.910156 C 146.6875 133.414062 147.554688 133.046875 148.476562 132.855469 C 157.933594 130.847656 162.050781 139.152344 162.050781 139.152344 C 162.050781 139.152344 165.449219 139.707031 168.089844 140.992188 C 167.621094 141.417969 167.316406 142.027344 167.316406 142.710938 C 167.316406 143.996094 168.355469 145.039062 169.640625 145.039062 C 170.214844 145.039062 170.730469 144.828125 171.132812 144.480469 C 170.652344 147.953125 155.632812 150.265625 155.632812 150.265625 C 153.738281 150.597656 152.382812 150.265625 152.382812 150.265625 C 152.382812 150.265625 153.640625 151.835938 156.089844 152.25 C 156.613281 154.773438 157.398438 159.414062 157.410156 164.5 C 157.398438 164.5 157.390625 164.492188 157.378906 164.492188 C 157.042969 164.511719 156.78125 164.796875 156.800781 165.132812 C 157.074219 170.710938 155.59375 178.664062 150.527344 182.738281 C 150.265625 182.949219 150.222656 183.335938 150.433594 183.597656 C 149.398438 184.40625 148.226562 185.101562 146.886719 185.644531 C 145.347656 186.273438 143.878906 186.71875 142.492188 187.015625 L 139.152344 196.933594 C 140.4375 197.59375 141.855469 198.191406 142.25 199.28125 L 134.0625 199.28125 L 133.113281 186.804688 C 130.886719 186.207031 128.855469 185.265625 126.945312 184.21875 C 127.082031 183.960938 127.035156 183.632812 126.792969 183.445312 C 118.777344 177.25 115.015625 176.734375 107.074219 178.25 C 106.746094 178.3125 106.527344 178.632812 106.59375 178.964844 C 106.609375 179.066406 106.667969 179.160156 106.726562 179.230469 L 102.742188 197.445312 C 104.25 197.5 105.125 198.207031 105.65625 199.277344 L 97.578125 199.277344 Z M 155.820312 146.117188 C 157.128906 146.703125 158.195312 146.90625 159.035156 146.90625 C 160.75 146.90625 161.546875 146.082031 161.59375 146.027344 C 161.820312 145.785156 161.808594 145.410156 161.570312 145.179688 C 161.335938 144.949219 160.949219 144.953125 160.714844 145.1875 C 160.664062 145.234375 159.429688 146.40625 156.320312 145.003906 C 156.015625 144.863281 155.648438 145.003906 155.515625 145.308594 C 155.382812 145.617188 155.515625 145.976562 155.820312 146.117188 Z M 149.757812 139.695312 C 149.832031 139.722656 149.910156 139.734375 149.992188 139.734375 C 150.234375 139.734375 150.457031 139.589844 150.554688 139.359375 C 150.988281 138.292969 151.53125 137.699219 152.035156 137.722656 C 152.550781 137.753906 153.113281 138.414062 153.355469 139.296875 C 153.445312 139.621094 153.78125 139.816406 154.105469 139.71875 C 154.425781 139.625 154.617188 139.292969 154.523438 138.96875 C 154.121094 137.535156 153.167969 136.566406 152.097656 136.511719 C 151.476562 136.476562 150.292969 136.742188 149.417969 138.90625 C 149.296875 139.210938 149.449219 139.566406 149.757812 139.695312 Z M 143.769531 173.105469 C 143.855469 173.148438 143.945312 173.167969 144.039062 173.167969 C 144.261719 173.167969 144.484375 173.039062 144.585938 172.824219 L 145.894531 170.128906 C 146.039062 169.824219 145.917969 169.460938 145.613281 169.3125 C 145.308594 169.167969 144.945312 169.289062 144.800781 169.59375 L 143.492188 172.289062 C 143.34375 172.59375 143.464844 172.960938 143.769531 173.105469 Z M 142.261719 169.242188 L 140.953125 171.933594 C 140.808594 172.238281 140.929688 172.601562 141.234375 172.753906 C 141.316406 172.792969 141.410156 172.8125 141.5 172.8125 C 141.726562 172.8125 141.945312 172.683594 142.046875 172.472656 L 143.355469 169.777344 C 143.503906 169.472656 143.382812 169.113281 143.078125 168.960938 C 142.773438 168.8125 142.40625 168.9375 142.261719 169.242188 Z M 139.917969 161.15625 C 140.003906 161.199219 140.09375 161.21875 140.1875 161.21875 C 140.410156 161.21875 140.628906 161.089844 140.734375 160.878906 L 142.042969 158.183594 C 142.1875 157.878906 142.066406 157.519531 141.761719 157.367188 C 141.464844 157.21875 141.097656 157.339844 140.945312 157.644531 L 139.636719 160.339844 C 139.492188 160.644531 139.621094 161.011719 139.917969 161.15625 Z M 137.378906 160.804688 C 137.464844 160.847656 137.558594 160.863281 137.648438 160.863281 C 137.875 160.863281 138.09375 160.738281 138.195312 160.523438 L 139.503906 157.828125 C 139.652344 157.523438 139.527344 157.164062 139.222656 157.011719 C 138.925781 156.867188 138.554688 156.988281 138.410156 157.292969 L 137.101562 159.988281 C 136.949219 160.292969 137.078125 160.65625 137.378906 160.804688 Z M 110.585938 168.699219 C 110.671875 168.742188 110.761719 168.757812 110.851562 168.757812 C 111.078125 168.757812 111.296875 168.632812 111.402344 168.417969 L 112.710938 165.722656 C 112.855469 165.417969 112.734375 165.058594 112.429688 164.90625 C 112.125 164.761719 111.761719 164.882812 111.613281 165.1875 L 110.304688 167.882812 C 110.160156 168.1875 110.28125 168.550781 110.585938 168.699219 Z M 108.042969 168.34375 C 108.125 168.386719 108.21875 168.40625 108.308594 168.40625 C 108.535156 168.40625 108.753906 168.277344 108.855469 168.0625 L 110.164062 165.371094 C 110.3125 165.066406 110.191406 164.707031 109.886719 164.554688 C 109.582031 164.40625 109.222656 164.527344 109.070312 164.832031 L 107.761719 167.527344 C 107.617188 167.832031 107.742188 168.199219 108.042969 168.34375 Z M 113.171875 178.757812 L 115.320312 199.277344 L 122.484375 199.277344 C 122.003906 198.390625 120.816406 197.78125 119.804688 197.613281 L 121.449219 181.21875 C 118.453125 179.445312 116.007812 178.75 113.171875 178.757812 Z M 157.847656 170.039062 C 157.367188 174.148438 156.003906 178.441406 153.335938 181.652344 L 161.710938 192.941406 L 169.640625 188.15625 C 167.960938 186.4375 165.929688 186.199219 163.261719 187.195312 Z M 260.507812 220.886719 C 260.304688 220.617188 259.929688 220.558594 259.65625 220.757812 L 257.074219 222.667969 C 256.808594 222.867188 256.746094 223.246094 256.945312 223.519531 C 257.070312 223.683594 257.25 223.769531 257.441406 223.769531 C 257.566406 223.769531 257.6875 223.734375 257.796875 223.648438 L 260.378906 221.738281 C 260.652344 221.539062 260.707031 221.15625 260.507812 220.886719 Z M 262.988281 220.757812 L 260.410156 222.667969 C 260.140625 222.867188 260.082031 223.246094 260.28125 223.519531 C 260.402344 223.683594 260.585938 223.769531 260.773438 223.769531 C 260.902344 223.769531 261.023438 223.734375 261.132812 223.648438 L 263.714844 221.738281 C 263.980469 221.539062 264.042969 221.160156 263.839844 220.886719 C 263.640625 220.613281 263.257812 220.558594 262.988281 220.757812 Z M 262.988281 220.757812 " fill-opacity="1" fill-rule="nonzero"/></g></svg>