<svg xmlns="http://www.w3.org/2000/svg" xmlns:xlink="http://www.w3.org/1999/xlink" width="512" zoomAndPan="magnify" viewBox="0 0 384 383.999986" height="512" preserveAspectRatio="xMidYMid meet" version="1.0"><defs><clipPath id="d82c1bc7c0"><path d="M 82.496094 78 L 299 78 L 299 305 L 82.496094 305 Z M 82.496094 78 " clip-rule="nonzero"/></clipPath></defs><rect x="-38.4" width="460.8" fill="#ffffff" y="-38.399999" height="460.799983" fill-opacity="1"/><rect x="-38.4" width="460.8" fill="#eaeaea" y="-38.399999" height="460.799983" fill-opacity="1"/><g clip-path="url(#d82c1bc7c0)"><path fill="#000000" d="M 99.03125 224.113281 C 89.910156 230.953125 82.519531 222.519531 83.230469 212.8125 C 83.316406 211.632812 84.085938 209.890625 83.953125 208.871094 C 83.828125 207.957031 82.632812 207.609375 82.613281 206.417969 C 82.554688 202.734375 84.402344 194.347656 85.125 190.289062 C 86.734375 181.25 88.8125 170.503906 92.507812 162.117188 C 93.226562 160.472656 97.085938 154.492188 97.183594 153.835938 C 97.28125 153.183594 96.242188 151.183594 96.164062 149.960938 C 95.828125 144.980469 99.503906 141.171875 103.699219 139.179688 C 102.859375 138.246094 101.101562 132.628906 100.753906 132.285156 C 100.65625 132.179688 98.878906 131.648438 98.144531 131.121094 C 93.632812 127.859375 93.140625 120.425781 96.402344 116.136719 C 96.941406 115.425781 97.980469 115.183594 98.242188 114.347656 C 99.542969 110.242188 99.164062 105.855469 101.128906 101.074219 C 110.175781 79.058594 147.523438 77.933594 157.773438 99.515625 C 158.722656 98.3125 159.023438 96.804688 159.820312 95.457031 C 165 86.667969 177.933594 80.722656 187.941406 80.472656 C 189.625 80.433594 192.039062 81.089844 193.339844 80.839844 C 194.582031 80.597656 195.445312 78.472656 197.621094 78.695312 C 200.152344 78.945312 200.632812 83.136719 201.078125 85.15625 C 203.425781 84.464844 210.265625 81.753906 211.875 84.234375 C 213.113281 86.148438 211.316406 88.398438 211.554688 89.5625 C 211.679688 90.175781 214.242188 93.015625 214.90625 94.128906 C 216.511719 96.824219 216.808594 98.890625 217.78125 101.671875 C 217.90625 102.015625 217.832031 102.496094 218.3125 102.390625 C 224.902344 85.878906 247.34375 81.628906 262.386719 88.6875 C 263.761719 89.332031 266.695312 91.621094 267.515625 91.820312 C 268.46875 92.054688 270.105469 91.234375 271.289062 91.253906 C 282.554688 91.417969 288.609375 107.375 289.765625 116.625 C 290.832031 125.15625 288.332031 145.933594 292.527344 151.925781 C 294.285156 154.445312 301.476562 156.195312 296.519531 159.558594 C 291.363281 163.0625 282.980469 163.117188 277.457031 160.511719 C 276.695312 160.15625 275.039062 158.773438 274.539062 158.761719 C 274.039062 158.753906 273 160.695312 272.972656 160.820312 C 272.691406 161.839844 274.683594 167.179688 275.164062 168.554688 C 279.863281 181.835938 286.28125 194.703125 290.523438 208.109375 C 289.15625 210.113281 290.628906 210.785156 291.140625 212.554688 C 293.585938 221.105469 288.617188 230.15625 279.023438 225.921875 L 284.007812 250.921875 C 284.691406 257.527344 275.003906 253.363281 271.113281 254.285156 L 271.113281 287.496094 C 275.195312 290.796875 278.746094 293.875 277.910156 299.671875 C 277.003906 305.933594 265.417969 304.875 261.058594 303.289062 C 256.632812 301.671875 252.433594 296.652344 252.433594 291.804688 L 252.433594 253.921875 L 244.890625 253.921875 L 244.890625 292.515625 C 244.890625 293.710938 243.070312 298.171875 242.320312 299.277344 C 238.972656 304.191406 229.53125 305.40625 224.179688 303.875 C 217.925781 302.097656 218.695312 296.230469 221.957031 291.855469 C 222.757812 290.785156 226.210938 288.132812 226.210938 287.84375 L 226.210938 253.554688 C 224.125 253.496094 222.007812 253.632812 219.910156 253.574219 C 217.8125 253.515625 214.355469 252.546875 214.355469 253.738281 L 214.355469 276.359375 C 214.355469 277.503906 211.949219 277.714844 211.824219 278.214844 C 212.21875 281.890625 211.34375 286.46875 211.824219 290.027344 C 212.019531 291.476562 212.863281 291.421875 213.441406 292.363281 C 215.070312 295.054688 216.878906 299.414062 214.011719 301.867188 C 209.9375 305.355469 195.175781 305.242188 191.019531 301.847656 C 188.355469 299.664062 190.132812 296.894531 190.296875 294.335938 C 190.644531 289.027344 190.019531 283.332031 190.289062 277.984375 L 184.542969 277.984375 C 184.621094 283.542969 184.4375 289.132812 184.523438 294.699219 C 184.5625 297.171875 185.976562 300.257812 183.359375 302.125 C 179.046875 305.195312 164.179688 305.367188 160.273438 301.703125 C 157.695312 299.277344 159.714844 294.460938 161.390625 292.027344 C 162.121094 290.96875 163.160156 290.765625 163.351562 289.324219 C 163.804688 285.96875 162.96875 281.679688 163.351562 278.214844 C 162.507812 277.964844 160.457031 277.03125 160.457031 276.023438 L 160.457031 217.316406 C 160.0625 217.679688 158.753906 217.613281 158.675781 217.691406 C 158.484375 217.875 158.792969 221.019531 158.648438 221.796875 C 158.222656 224.066406 155.289062 223.347656 153.625 223.421875 L 153.441406 290.566406 C 152.71875 291.46875 152.027344 292.199219 150.757812 292.015625 C 159.300781 304.097656 144.097656 305.460938 135.53125 304.175781 C 127.132812 302.914062 125.195312 299.777344 129.554688 292.015625 L 123.445312 292.015625 C 125.734375 295.277344 127.449219 300.277344 123.109375 302.625 C 118.46875 305.136719 106.632812 305.164062 102.121094 302.375 C 98.300781 300.019531 100.511719 295.027344 102.246094 292.015625 C 101.445312 292.429688 99.011719 290.921875 99.011719 290.402344 L 99.011719 224.152344 Z M 191.289062 85.589844 C 189.863281 84.742188 182.445312 86.148438 180.5 86.695312 C 170.28125 89.53125 162.015625 96.238281 161.179688 107.421875 C 162.871094 105.546875 166.238281 97.957031 168.617188 97.4375 C 172.089844 96.679688 177.085938 104.054688 181.28125 101.121094 C 182.734375 100.101562 182.90625 97.707031 185.074219 97.765625 C 187.613281 97.832031 187.132812 100.007812 187.941406 101.671875 C 192.15625 91.484375 195.207031 102.429688 199.066406 102.046875 C 200.980469 101.855469 201.238281 98.449219 202.289062 97.699219 C 204.550781 96.082031 206.457031 99.082031 207.878906 100.429688 L 213.632812 108.855469 C 213.472656 103.96875 212.671875 98.449219 209.3125 94.6875 C 207.484375 92.648438 203.703125 91.929688 206.089844 88.753906 C 204.03125 88.621094 200.324219 91.871094 198.816406 91.570312 C 196.148438 91.042969 196.753906 87.550781 196.390625 85.523438 C 195.128906 86.5625 193.734375 88.050781 192.078125 86.773438 C 191.625 86.417969 191.433594 85.6875 191.289062 85.597656 Z M 126.988281 88.851562 C 122.945312 89.226562 118.238281 90.640625 114.890625 92.910156 C 119.566406 109.882812 140.71875 113.136719 155.644531 109.941406 C 154.257812 95.082031 141.066406 87.53125 126.988281 88.851562 Z M 272.558594 121.058594 C 274.683594 106.683594 269.113281 94.410156 254.246094 91.070312 C 237.402344 87.300781 220.285156 96.363281 220.46875 114.953125 C 227.320312 113.597656 233.640625 108.828125 237.652344 103.21875 C 238.722656 101.726562 240.378906 97.6875 241.9375 97.410156 C 244.648438 96.929688 245.257812 100.816406 246.277344 102.621094 C 252.023438 112.742188 261.144531 118.867188 272.558594 121.058594 Z M 110.886719 95.929688 C 110.386719 95.46875 108.210938 98.34375 107.867188 98.832031 C 104.699219 103.285156 103.34375 109.546875 103.34375 114.960938 C 106.585938 112.183594 109.375 107.960938 110.789062 103.921875 C 111.9375 100.640625 112.292969 99.285156 110.878906 95.929688 Z M 290.167969 156.964844 C 287.417969 154.078125 286.125 150.210938 285.550781 146.328125 C 284.191406 137.21875 286.089844 127.90625 285.097656 118.769531 C 284.105469 109.632812 281.035156 99.238281 272.566406 96.640625 L 276.050781 103.75 C 277.6875 106.5 276.925781 111.625 277.65625 113.992188 C 277.792969 114.414062 279.84375 115.953125 280.410156 116.992188 C 282.664062 121.089844 281.785156 127.976562 277.773438 130.765625 C 273.761719 133.554688 275.433594 131.574219 274.914062 132.21875 C 273.078125 134.496094 273.386719 138.296875 273.644531 140.988281 C 273.992188 144.605469 275.078125 152.425781 277.78125 154.808594 C 281.152344 157.78125 285.972656 157.675781 290.167969 156.972656 Z M 182.378906 105.980469 C 177.703125 108.316406 173.628906 104.777344 169.472656 103.125 C 167.992188 105.777344 166.269531 108.308594 165.066406 111.125 C 164.355469 112.796875 163.757812 115.820312 163.054688 117.019531 C 162.351562 118.222656 161.648438 117.386719 161.898438 120.511719 C 163.941406 146.34375 195.023438 158.683594 208.660156 133.503906 C 210.082031 130.878906 213.328125 122.175781 212.914062 119.472656 C 212.796875 118.742188 209.304688 111.585938 208.660156 110.402344 C 208.179688 109.507812 204.972656 104.316406 204.425781 104.199219 C 203.347656 104.644531 202.875 105.585938 201.789062 106.179688 C 198.382812 108.039062 195.082031 106.375 192.609375 103.835938 C 190.492188 107.027344 182.078125 114.433594 182.367188 105.980469 Z M 154.722656 115.308594 C 140.804688 117.300781 125.824219 115.195312 115.5625 104.902344 C 113.890625 110.191406 110.617188 114.960938 106.585938 118.734375 C 105.296875 119.933594 103.3125 120.320312 103.332031 122.300781 C 103.351562 124.28125 104.785156 129.484375 105.691406 131.832031 C 114.628906 155.125 142.125 155.972656 151.910156 132.792969 C 154.183594 127.425781 155.453125 121.109375 154.722656 115.320312 Z M 257.46875 121.050781 C 251.347656 117.011719 245.96875 111.972656 242.195312 105.613281 L 235.382812 112.796875 C 231.140625 116.425781 226.203125 118.820312 220.804688 120.183594 C 221.652344 136.351562 234.082031 153.03125 251.945312 148.742188 C 262.636719 146.171875 269.535156 135.9375 271.835938 125.714844 C 267.804688 125.40625 264.128906 123.667969 260.335938 122.484375 C 260.941406 124.984375 259.5 127.148438 256.726562 126.273438 C 254.140625 125.457031 254.820312 121.339844 257.457031 121.042969 Z M 169.089844 145.46875 C 166.539062 142.757812 164.085938 139.96875 162.199219 136.738281 C 161.773438 136.007812 159.832031 131.542969 159.542969 131.476562 C 159.425781 131.449219 157.394531 132.1875 157.320312 132.273438 C 157.089844 132.496094 155.355469 137.113281 154.777344 138.171875 C 154.191406 139.246094 150.757812 143.855469 150.777344 144.21875 C 150.785156 144.414062 151.371094 144.789062 151.660156 144.757812 Z M 218.214844 132.285156 C 216.675781 130.792969 216.328125 132.449219 216.195312 133.851562 C 215.742188 138.679688 215.664062 143.519531 216.144531 148.355469 L 232.3125 150.5 C 227.761719 147.277344 223.894531 143.421875 221.113281 138.535156 C 220.457031 137.382812 218.609375 132.679688 218.207031 132.285156 Z M 211.121094 147.632812 L 211.121094 139.015625 L 207.351562 143.691406 L 204.289062 146.558594 L 211.113281 147.632812 Z M 270.410156 144.757812 L 269.871094 141.890625 L 268.257812 144.039062 Z M 105.765625 143.738281 C 104.277344 143.988281 102.003906 145.953125 101.464844 147.375 C 99.214844 153.335938 107.066406 155.617188 110.886719 150.683594 C 112.90625 148.078125 110.714844 147.914062 108.894531 146.210938 C 107.933594 145.308594 107.578125 143.429688 105.765625 143.738281 Z M 264.203125 148.066406 C 263.964844 148.113281 260.289062 150.664062 260.152344 150.875 C 259.460938 151.992188 261.242188 155.5 262.144531 156.433594 C 267.140625 161.617188 274.386719 155.367188 269.679688 150.335938 C 268.777344 149.367188 265.445312 147.816406 264.195312 148.066406 Z M 160.464844 212.621094 L 214.355469 212.621094 C 213.375 197.484375 211.875 182.355469 211.132812 167.207031 C 214.742188 162.667969 219.167969 158.714844 223.605469 154.914062 C 223.863281 154.695312 224.289062 154.925781 224.054688 154.097656 C 223.296875 154.097656 222.527344 154.15625 221.765625 154.050781 C 215.175781 153.105469 203.320312 150.394531 197.285156 150.5 C 196.023438 150.519531 193.398438 151.578125 191.800781 151.835938 C 188.527344 152.375 186.285156 152.316406 183.023438 151.835938 C 173.167969 150.394531 163.160156 150.308594 153.105469 149.777344 C 150.621094 149.644531 148.042969 149.328125 145.558594 149.046875 C 144.953125 148.796875 144.828125 149.585938 145.011719 149.777344 C 145.195312 149.972656 149.003906 151.011719 149.765625 151.308594 C 155.171875 153.433594 160.785156 156.117188 165.046875 160.089844 L 160.445312 212.621094 Z M 99.753906 218.730469 L 153.644531 218.730469 C 153.605469 217.605469 153.710938 216.449219 153.644531 215.324219 C 152.765625 201.03125 150.1875 186.039062 149.699219 171.871094 C 149.628906 169.832031 149.207031 167.484375 151.765625 167.089844 C 154.730469 166.628906 154.144531 169.457031 154.828125 170.523438 C 154.953125 170.71875 158.628906 172.824219 158.847656 172.773438 C 159.089844 172.726562 159.40625 172.179688 159.398438 171.871094 C 158.964844 169.679688 160.753906 164.03125 159.9375 162.347656 C 159.464844 161.398438 152.75 157.886719 151.371094 157.261719 C 148.28125 155.859375 141.875 153.375 138.632812 153.085938 C 137.109375 152.953125 134.15625 154.28125 132.261719 154.445312 C 130.632812 154.589844 128.140625 154.578125 126.496094 154.464844 C 122.214844 154.183594 118.882812 151.941406 114.582031 154.011719 C 113.523438 154.519531 112.761719 155.847656 111.722656 156.539062 C 108.230469 158.867188 104.304688 158.722656 100.523438 157.367188 C 92.207031 171.515625 90.574219 188.566406 87.867188 204.503906 L 95.796875 206.515625 L 99.117188 168.359375 C 99.398438 165.339844 103.5625 164.957031 104.035156 167.9375 C 104.285156 169.515625 103.832031 172.929688 103.699219 174.738281 C 102.699219 188.386719 100.65625 202.023438 99.753906 215.679688 C 99.6875 216.691406 99.78125 217.71875 99.753906 218.730469 Z M 255.3125 153.019531 C 250.222656 154.453125 245.46875 154.683594 240.253906 153.769531 C 237.835938 164.3125 250.625 168.410156 255.140625 158.414062 C 256.21875 156.039062 256.023438 155.519531 255.304688 153.019531 Z M 235.199219 156.964844 C 232.015625 156.867188 229.1875 157.15625 226.460938 158.820312 C 225.238281 159.570312 216.472656 167.898438 216.234375 168.707031 C 215.550781 171.003906 216.714844 174.96875 216.695312 177.429688 C 217.90625 175.910156 221.527344 174.246094 222.421875 172.738281 C 223.59375 170.753906 223.113281 165.695312 224.585938 164.496094 C 226.261719 163.128906 228.714844 164.3125 228.734375 166.464844 L 213.683594 247.957031 L 278.667969 249.601562 L 262.867188 171.160156 C 263.214844 169.199219 266.246094 168.773438 267.285156 170.34375 L 275.800781 210.101562 L 284.625 206.515625 L 284.730469 206.035156 L 268.292969 163.273438 C 268.015625 162.878906 264.832031 163.089844 263.925781 162.898438 C 262.308594 162.5625 261.066406 161.273438 259.488281 160.878906 C 253.4375 173.074219 235.980469 171.351562 235.210938 156.953125 Z M 158.628906 178.210938 L 155.085938 176.351562 L 156.519531 193.230469 C 156.953125 193.800781 157.175781 193.230469 157.242188 192.703125 C 157.808594 187.894531 157.925781 183 158.636719 178.210938 Z M 218.3125 196.109375 L 221.1875 180.316406 L 217.234375 183.085938 L 217.234375 187.316406 C 217.242188 187.316406 218.3125 196.117188 218.3125 196.117188 Z M 89.207031 210.140625 C 87.378906 210.726562 87.300781 220.527344 92.113281 221.519531 C 94.539062 222.019531 94.402344 220.875 94.679688 218.863281 C 95.007812 216.496094 94.933594 213.902344 95.296875 211.527344 C 95.046875 211.199219 89.695312 209.976562 89.214844 210.132812 Z M 285.441406 211.957031 C 284.664062 211.507812 278.949219 214.640625 277.609375 214.804688 C 277.550781 219.644531 285.203125 226.097656 286.78125 218.75 C 287.097656 217.277344 286.742188 212.707031 285.441406 211.949219 Z M 209.6875 217.296875 L 165.5 217.296875 L 165.5 272.953125 L 184.898438 272.953125 L 184.898438 230.050781 C 184.898438 228.65625 188.035156 227.847656 189.125 228.886719 C 190.210938 229.925781 189.933594 230.320312 189.933594 230.40625 L 189.933594 272.953125 L 209.6875 272.953125 L 209.6875 253.027344 C 209.6875 252.941406 208.734375 252.160156 208.523438 251.679688 C 207.820312 250.054688 209.535156 244.839844 209.707031 242.628906 C 210.324219 234.464844 209.226562 225.539062 209.699219 217.304688 Z M 148.609375 223.394531 L 103.699219 223.394531 L 103.699219 286.773438 L 123.820312 286.957031 L 123.820312 235.792969 C 123.820312 234.367188 126.640625 233.761719 127.882812 234.511719 C 127.96875 234.558594 128.84375 235.703125 128.84375 235.792969 L 128.84375 286.957031 L 148.601562 286.957031 L 148.601562 223.402344 Z M 239.867188 253.921875 L 231.246094 253.566406 L 231.246094 276.1875 L 239.867188 276.1875 Z M 266.101562 254.277344 L 258.015625 254.277344 C 257.910156 254.277344 257.738281 253.824219 257.476562 253.921875 L 257.476562 276.1875 L 266.101562 276.1875 Z M 179.511719 277.976562 L 168.375 277.976562 L 168.375 287.3125 C 170.90625 286.304688 173.285156 286.496094 175.84375 287.21875 C 177.230469 287.601562 178.238281 288.238281 179.519531 288.757812 L 179.519531 277.984375 Z M 206.8125 277.976562 L 195.3125 277.976562 L 195.3125 288.746094 C 198.832031 286.496094 202.828125 286.1875 206.8125 287.3125 Z M 239.867188 281.207031 L 231.246094 281.207031 L 231.246094 283.359375 L 239.867188 283.359375 Z M 266.101562 281.207031 L 257.476562 281.207031 L 257.476562 283.359375 L 266.101562 283.359375 Z M 240.234375 288.390625 L 231.253906 288.390625 C 231.101562 288.390625 231.042969 290.449219 230.351562 291.257812 C 229.878906 291.804688 228.433594 292.316406 227.695312 292.910156 C 226.558594 293.835938 223.519531 297.289062 224.480469 298.757812 C 224.988281 299.546875 229.65625 299.613281 230.734375 299.539062 C 238.078125 299.019531 240.164062 295.421875 240.242188 288.390625 Z M 266.101562 288.390625 C 265.746094 288.160156 258.863281 288.390625 257.660156 288.390625 C 256.457031 288.390625 257.441406 291.46875 257.566406 292.074219 C 258.640625 297.277344 261.835938 299.203125 266.984375 299.539062 C 268.015625 299.605469 272.761719 299.460938 273.25 298.757812 C 273.925781 297.789062 272.046875 294.929688 271.324219 294.125 C 270.199219 292.871094 267.410156 291.632812 266.8125 290.738281 C 266.417969 290.140625 266.214844 288.457031 266.109375 288.390625 Z M 111.15625 291.710938 C 109.933594 291.921875 107.835938 293.085938 106.941406 293.960938 C 106.355469 294.535156 104.285156 297.539062 105.113281 298.257812 C 107.027344 299.933594 119.617188 299.988281 120.800781 298.085938 C 121.097656 297.59375 120.421875 296.304688 120.164062 295.816406 C 118.5 292.613281 114.621094 291.121094 111.15625 291.710938 Z M 148.246094 298.433594 C 147.03125 289.613281 134.300781 289.238281 132.144531 297.921875 C 136.984375 300.472656 143.117188 299.710938 148.246094 298.433594 Z M 164.074219 298.433594 C 169.242188 299.769531 175.246094 300.347656 180.175781 297.921875 C 178.152344 289.285156 165.179688 289.566406 164.074219 298.433594 Z M 208.484375 293.902344 C 203.992188 289.410156 194.90625 291.777344 194.628906 298.414062 C 199.804688 299.710938 205.859375 300.402344 210.71875 297.914062 C 210.207031 296.554688 209.527344 294.941406 208.484375 293.902344 Z M 208.484375 293.902344 " fill-opacity="1" fill-rule="nonzero"/></g><path fill="#000000" d="M 179.414062 128.300781 C 180.742188 128.101562 181.761719 129.792969 182.859375 130.464844 C 185.273438 131.957031 187.535156 132.332031 190.183594 131.179688 C 191.710938 130.515625 194.800781 126.484375 196.226562 129.6875 C 197.476562 132.503906 191.011719 135.542969 188.671875 135.777344 C 185.4375 136.101562 179.78125 134.679688 178.058594 131.667969 C 177.289062 130.324219 177.71875 128.550781 179.414062 128.292969 Z M 179.414062 128.300781 " fill-opacity="1" fill-rule="nonzero"/><path fill="#000000" d="M 198.816406 118.261719 C 202.90625 117.367188 203.28125 122.847656 200.085938 123.511719 C 196.476562 124.261719 195.496094 118.984375 198.816406 118.261719 Z M 198.816406 118.261719 " fill-opacity="1" fill-rule="nonzero"/><path fill="#000000" d="M 173.660156 118.261719 C 177.394531 117.425781 178.328125 122.8125 174.929688 123.511719 C 171.398438 124.242188 170.359375 118.992188 173.660156 118.261719 Z M 173.660156 118.261719 " fill-opacity="1" fill-rule="nonzero"/><path fill="#000000" d="M 134.109375 132.054688 C 134.367188 131.878906 134.484375 131.273438 135.03125 131.015625 C 137.714844 129.753906 139.324219 132.59375 136.925781 135.054688 C 134.609375 137.4375 130.539062 138.613281 127.265625 138.246094 C 124.714844 137.96875 117.921875 134.792969 119.847656 131.621094 C 121.394531 129.0625 124.011719 132.699219 125.648438 133.398438 C 128.960938 134.832031 131.335938 133.898438 134.109375 132.042969 Z M 134.109375 132.054688 " fill-opacity="1" fill-rule="nonzero"/><path fill="#000000" d="M 138.648438 126.339844 C 136.261719 123.964844 139.765625 120.03125 142.335938 122.128906 C 145.164062 124.4375 141.324219 129.003906 138.648438 126.339844 Z M 138.648438 126.339844 " fill-opacity="1" fill-rule="nonzero"/><path fill="#000000" d="M 114.738281 121.859375 C 119.039062 120.597656 119.902344 126.023438 116.652344 127.015625 C 113.300781 128.035156 112.148438 122.609375 114.738281 121.859375 Z M 114.738281 121.859375 " fill-opacity="1" fill-rule="nonzero"/><path fill="#000000" d="M 237.441406 130.839844 C 239.183594 129.101562 241.511719 132.371094 243.089844 133.101562 C 245.332031 134.140625 247.074219 134.257812 249.355469 133.226562 C 251.269531 132.359375 253.0625 129.179688 254.964844 131.285156 C 257.554688 134.140625 250.355469 137.621094 247.914062 137.890625 C 244.667969 138.246094 241.273438 137.382812 238.789062 135.238281 C 237.652344 134.257812 235.941406 132.332031 237.441406 130.832031 Z M 237.441406 130.839844 " fill-opacity="1" fill-rule="nonzero"/><path fill="#000000" d="M 235.816406 121.878906 C 238.289062 124.347656 234.621094 128.160156 231.976562 125.898438 C 229.367188 123.667969 233.113281 119.175781 235.816406 121.878906 Z M 235.816406 121.878906 " fill-opacity="1" fill-rule="nonzero"/></svg>