<svg xmlns="http://www.w3.org/2000/svg" xmlns:xlink="http://www.w3.org/1999/xlink" width="512" zoomAndPan="magnify" viewBox="0 0 384 383.999986" height="512" preserveAspectRatio="xMidYMid meet" version="1.0"><rect x="-38.4" width="460.8" fill="#ffffff" y="-38.399999" height="460.799983" fill-opacity="1"/><rect x="-38.4" width="460.8" fill="#eaeaea" y="-38.399999" height="460.799983" fill-opacity="1"/><path fill="#9fca8a" d="M 296.074219 159.636719 C 292.261719 183.3125 265.398438 211.441406 207.125 204.355469 C 207.125 204.355469 202.023438 208.496094 199.960938 218.136719 C 199.398438 220.765625 199.0625 223.796875 199.117188 227.269531 C 199.132812 228.382812 199.089844 229.28125 199 229.992188 C 197.734375 239.628906 187.066406 214.398438 187.066406 214.398438 L 188.453125 209.003906 L 191.132812 198.609375 C 191.132812 198.609375 191.558594 196.648438 192.046875 193.761719 C 192.726562 189.707031 193.527344 183.828125 193.417969 178.996094 C 193.238281 170.726562 195.824219 151.820312 207.851562 132.917969 C 219.878906 114.011719 246.652344 107.785156 258.863281 108.742188 C 271.070312 109.695312 279.511719 117.964844 282.914062 126.828125 C 282.914062 126.828125 299.886719 135.960938 296.074219 159.636719 Z M 296.074219 159.636719 " fill-opacity="1" fill-rule="nonzero"/><path fill="#88ba6e" d="M 199.113281 227.269531 C 199.132812 228.382812 199.089844 229.28125 198.996094 229.988281 C 198.523438 230.839844 198.160156 231.371094 198.160156 231.371094 C 198.160156 231.371094 192.082031 225.917969 191.808594 223.371094 C 191.597656 221.390625 189.519531 213.308594 188.453125 209.003906 L 191.132812 198.609375 C 191.132812 198.609375 191.558594 196.648438 192.046875 193.757812 C 194.324219 197.445312 196.132812 201.347656 197.472656 205.46875 C 198.808594 209.59375 199.640625 213.816406 199.960938 218.136719 C 199.28125 224.113281 199.105469 226.507812 199.113281 227.269531 Z M 199.113281 227.269531 " fill-opacity="1" fill-rule="nonzero"/><path fill="#9fca8a" d="M 199.207031 227.597656 C 199.238281 222.117188 198.539062 216.726562 197.113281 211.433594 C 195.683594 206.140625 193.578125 201.132812 190.796875 196.410156 C 190.363281 195.675781 190.074219 194.886719 189.929688 194.042969 C 189.269531 190.183594 189.019531 186.296875 189.175781 182.382812 C 189.371094 177.566406 190.128906 174.5 190.808594 170.566406 C 190.808594 170.566406 192.085938 163.1875 192.445312 150.753906 C 192.699219 141.84375 190.582031 125.527344 181.734375 111.671875 C 170.1875 93.585938 145.679688 79.53125 124.371094 83.496094 C 115.734375 85.101562 111.542969 91.074219 109.742188 94.734375 C 109.316406 95.605469 108.738281 96.355469 108.003906 96.984375 C 107.265625 97.613281 106.4375 98.070312 105.511719 98.355469 C 99.96875 100.046875 88.652344 105.777344 86.609375 124.578125 C 83.886719 149.660156 104.402344 177.835938 123.28125 187.5625 C 142.160156 197.289062 165.691406 195.765625 172.089844 199.71875 C 178.488281 203.671875 180.804688 216.304688 180.621094 232.710938 C 180.449219 248.191406 180.964844 282.363281 186.742188 298.691406 C 187.082031 299.648438 187.605469 300.488281 188.308594 301.21875 C 189.015625 301.945312 189.84375 302.496094 190.789062 302.859375 C 193.167969 303.785156 196.53125 304.527344 199.683594 303.195312 C 201.074219 302.605469 204.5 301.738281 204.96875 299.398438 C 205.085938 298.8125 204.992188 298.28125 204.878906 297.898438 C 200.921875 282.117188 199.984375 269.386719 199.863281 260.660156 C 199.847656 259.375 199.113281 244.804688 199.207031 227.597656 Z M 199.207031 227.597656 " fill-opacity="1" fill-rule="nonzero"/><path fill="#b4dba1" d="M 115.453125 108.332031 C 115.453125 108.332031 159.15625 163 164.285156 168.679688 C 164.285156 168.679688 143.859375 173.453125 126.886719 165.816406 C 126.886719 165.816406 135.011719 171.816406 149.125 171.726562 C 163.238281 171.632812 167.640625 172.90625 167.640625 172.90625 C 167.640625 172.90625 177.21875 187.949219 180.53125 196.445312 C 183.84375 204.945312 189.878906 203.082031 185.523438 192.539062 C 181.164062 181.996094 172.089844 170.726562 172.089844 170.726562 C 173.8125 164.757812 174.703125 158.667969 174.765625 152.457031 C 174.894531 138.835938 170.882812 128.179688 168.003906 122.101562 C 170.378906 129.023438 172.90625 139.234375 172.589844 151.640625 C 172.445312 157.285156 171.734375 162.859375 170.457031 168.363281 C 161.320312 157.804688 152.03125 147.382812 142.589844 137.097656 C 133.675781 127.386719 124.632812 117.796875 115.453125 108.332031 Z M 115.453125 108.332031 " fill-opacity="1" fill-rule="nonzero"/><path fill="#b4dba1" d="M 200.316406 187.539062 C 198.125 190.363281 196.167969 193.339844 194.441406 196.46875 C 194.058594 197.703125 194.460938 199.015625 195.417969 199.71875 C 196.523438 200.535156 197.835938 200.148438 197.980469 200.105469 C 199.25 197.726562 200.957031 195.160156 202.894531 192.355469 C 205.671875 188.335938 209.097656 184.019531 211.6875 182.835938 C 218.964844 184.441406 226.328125 185.132812 233.773438 184.917969 C 241.222656 184.703125 248.535156 183.585938 255.707031 181.5625 C 249.019531 182.589844 242.296875 183.003906 235.535156 182.8125 C 228.285156 182.605469 221.121094 181.707031 214.046875 180.109375 C 217.257812 177.316406 220.832031 174.527344 224.609375 171.578125 C 230.179688 167.226562 236.328125 162.703125 238.644531 162.023438 C 242.863281 163.429688 249.507812 165.046875 257.679688 164.636719 C 262.410156 164.394531 267.015625 163.523438 271.503906 162.019531 C 265.359375 162.757812 260.40625 162.601562 257 162.316406 C 250.207031 161.753906 241.785156 160.03125 241.730469 160.023438 L 275.675781 138.121094 L 238.644531 158.113281 C 241.160156 149.195312 245.335938 141.136719 251.167969 133.9375 C 247.488281 137.390625 244.355469 141.28125 241.777344 145.621094 C 239.195312 149.960938 237.265625 154.570312 235.988281 159.457031 L 214.023438 174.722656 C 214.53125 168.742188 215.710938 162.894531 217.5625 157.183594 C 220.929688 146.808594 225.851562 139.03125 229.726562 133.914062 C 225.636719 137.875 218.8125 145.566406 214.75 157.273438 C 212.628906 163.398438 211.539062 169.699219 211.480469 176.179688 C 207.320312 179.53125 203.597656 183.316406 200.316406 187.539062 Z M 200.316406 187.539062 " fill-opacity="1" fill-rule="nonzero"/></svg>
