<svg xmlns="http://www.w3.org/2000/svg" xmlns:xlink="http://www.w3.org/1999/xlink" width="512" zoomAndPan="magnify" viewBox="0 0 384 383.999986" height="512" preserveAspectRatio="xMidYMid meet" version="1.0"><defs><clipPath id="80903517ba"><path d="M 146 268 L 151 268 L 151 289 L 146 289 Z M 146 268 " clip-rule="nonzero"/></clipPath><clipPath id="bc1b417722"><path d="M 143.679688 265.121094 L 140.453125 297.835938 C 141.78125 300.066406 143.628906 299.886719 145.875 297.867188 C 144.917969 302.410156 148.894531 305.375 152.355469 301.605469 C 152.289062 306.789062 156.371094 308.390625 159.808594 304.722656 C 162.378906 308.964844 165.542969 310.332031 169.777344 306.457031 C 173.066406 309.875 176.089844 310.277344 178.703125 305.996094 C 182.515625 308.867188 185.09375 308.558594 186.21875 304.5 C 190.976562 306.1875 193.105469 304.636719 193.265625 300.675781 C 198.230469 300.648438 199.957031 298.355469 198.6875 293.972656 C 204.464844 293.605469 205.378906 291.222656 203.230469 287.566406 C 208.242188 286.667969 209.609375 284.132812 207.199219 279.90625 C 212.042969 278.53125 213.507812 275.472656 212.058594 270.957031 C 217.613281 269.460938 218.394531 266.917969 214.648438 263.386719 C 219.632812 262.851562 221.515625 260.539062 218.945312 255.6875 C 223.363281 256.160156 224.917969 253.890625 223.242188 248.515625 C 227.945312 247.332031 229.035156 244.960938 226.097656 241.261719 C 230.929688 238.628906 232.183594 235.746094 228.957031 232.542969 C 234.191406 231.179688 236.4375 228.960938 231.601562 224.730469 C 237.023438 223.609375 239.632812 220.9375 236.863281 215.296875 C 240.433594 214.371094 242.046875 212.570312 238.832031 209.425781 C 244.082031 207.949219 244.253906 205.4375 239.964844 202.015625 C 244.621094 203 246.953125 199.804688 244.285156 197.160156 L 218.945312 177.792969 " clip-rule="evenodd"/></clipPath><clipPath id="8d106705bd"><path d="M 150 270 L 155 270 L 155 296 L 150 296 Z M 150 270 " clip-rule="nonzero"/></clipPath><clipPath id="7ca458a664"><path d="M 143.679688 265.121094 L 140.453125 297.835938 C 141.78125 300.066406 143.628906 299.886719 145.875 297.867188 C 144.917969 302.410156 148.894531 305.375 152.355469 301.605469 C 152.289062 306.789062 156.371094 308.390625 159.808594 304.722656 C 162.378906 308.964844 165.542969 310.332031 169.777344 306.457031 C 173.066406 309.875 176.089844 310.277344 178.703125 305.996094 C 182.515625 308.867188 185.09375 308.558594 186.21875 304.5 C 190.976562 306.1875 193.105469 304.636719 193.265625 300.675781 C 198.230469 300.648438 199.957031 298.355469 198.6875 293.972656 C 204.464844 293.605469 205.378906 291.222656 203.230469 287.566406 C 208.242188 286.667969 209.609375 284.132812 207.199219 279.90625 C 212.042969 278.53125 213.507812 275.472656 212.058594 270.957031 C 217.613281 269.460938 218.394531 266.917969 214.648438 263.386719 C 219.632812 262.851562 221.515625 260.539062 218.945312 255.6875 C 223.363281 256.160156 224.917969 253.890625 223.242188 248.515625 C 227.945312 247.332031 229.035156 244.960938 226.097656 241.261719 C 230.929688 238.628906 232.183594 235.746094 228.957031 232.542969 C 234.191406 231.179688 236.4375 228.960938 231.601562 224.730469 C 237.023438 223.609375 239.632812 220.9375 236.863281 215.296875 C 240.433594 214.371094 242.046875 212.570312 238.832031 209.425781 C 244.082031 207.949219 244.253906 205.4375 239.964844 202.015625 C 244.621094 203 246.953125 199.804688 244.285156 197.160156 L 218.945312 177.792969 " clip-rule="evenodd"/></clipPath><clipPath id="a92371fa42"><path d="M 157 271 L 161 271 L 161 293 L 157 293 Z M 157 271 " clip-rule="nonzero"/></clipPath><clipPath id="6d870af7cb"><path d="M 143.679688 265.121094 L 140.453125 297.835938 C 141.78125 300.066406 143.628906 299.886719 145.875 297.867188 C 144.917969 302.410156 148.894531 305.375 152.355469 301.605469 C 152.289062 306.789062 156.371094 308.390625 159.808594 304.722656 C 162.378906 308.964844 165.542969 310.332031 169.777344 306.457031 C 173.066406 309.875 176.089844 310.277344 178.703125 305.996094 C 182.515625 308.867188 185.09375 308.558594 186.21875 304.5 C 190.976562 306.1875 193.105469 304.636719 193.265625 300.675781 C 198.230469 300.648438 199.957031 298.355469 198.6875 293.972656 C 204.464844 293.605469 205.378906 291.222656 203.230469 287.566406 C 208.242188 286.667969 209.609375 284.132812 207.199219 279.90625 C 212.042969 278.53125 213.507812 275.472656 212.058594 270.957031 C 217.613281 269.460938 218.394531 266.917969 214.648438 263.386719 C 219.632812 262.851562 221.515625 260.539062 218.945312 255.6875 C 223.363281 256.160156 224.917969 253.890625 223.242188 248.515625 C 227.945312 247.332031 229.035156 244.960938 226.097656 241.261719 C 230.929688 238.628906 232.183594 235.746094 228.957031 232.542969 C 234.191406 231.179688 236.4375 228.960938 231.601562 224.730469 C 237.023438 223.609375 239.632812 220.9375 236.863281 215.296875 C 240.433594 214.371094 242.046875 212.570312 238.832031 209.425781 C 244.082031 207.949219 244.253906 205.4375 239.964844 202.015625 C 244.621094 203 246.953125 199.804688 244.285156 197.160156 L 218.945312 177.792969 " clip-rule="evenodd"/></clipPath><clipPath id="880ee3a28c"><path d="M 163 272 L 170 272 L 170 303 L 163 303 Z M 163 272 " clip-rule="nonzero"/></clipPath><clipPath id="6aa70f535d"><path d="M 143.679688 265.121094 L 140.453125 297.835938 C 141.78125 300.066406 143.628906 299.886719 145.875 297.867188 C 144.917969 302.410156 148.894531 305.375 152.355469 301.605469 C 152.289062 306.789062 156.371094 308.390625 159.808594 304.722656 C 162.378906 308.964844 165.542969 310.332031 169.777344 306.457031 C 173.066406 309.875 176.089844 310.277344 178.703125 305.996094 C 182.515625 308.867188 185.09375 308.558594 186.21875 304.5 C 190.976562 306.1875 193.105469 304.636719 193.265625 300.675781 C 198.230469 300.648438 199.957031 298.355469 198.6875 293.972656 C 204.464844 293.605469 205.378906 291.222656 203.230469 287.566406 C 208.242188 286.667969 209.609375 284.132812 207.199219 279.90625 C 212.042969 278.53125 213.507812 275.472656 212.058594 270.957031 C 217.613281 269.460938 218.394531 266.917969 214.648438 263.386719 C 219.632812 262.851562 221.515625 260.539062 218.945312 255.6875 C 223.363281 256.160156 224.917969 253.890625 223.242188 248.515625 C 227.945312 247.332031 229.035156 244.960938 226.097656 241.261719 C 230.929688 238.628906 232.183594 235.746094 228.957031 232.542969 C 234.191406 231.179688 236.4375 228.960938 231.601562 224.730469 C 237.023438 223.609375 239.632812 220.9375 236.863281 215.296875 C 240.433594 214.371094 242.046875 212.570312 238.832031 209.425781 C 244.082031 207.949219 244.253906 205.4375 239.964844 202.015625 C 244.621094 203 246.953125 199.804688 244.285156 197.160156 L 218.945312 177.792969 " clip-rule="evenodd"/></clipPath><clipPath id="4ad87b0dae"><path d="M 170 270 L 178 270 L 178 296 L 170 296 Z M 170 270 " clip-rule="nonzero"/></clipPath><clipPath id="2dfced97de"><path d="M 143.679688 265.121094 L 140.453125 297.835938 C 141.78125 300.066406 143.628906 299.886719 145.875 297.867188 C 144.917969 302.410156 148.894531 305.375 152.355469 301.605469 C 152.289062 306.789062 156.371094 308.390625 159.808594 304.722656 C 162.378906 308.964844 165.542969 310.332031 169.777344 306.457031 C 173.066406 309.875 176.089844 310.277344 178.703125 305.996094 C 182.515625 308.867188 185.09375 308.558594 186.21875 304.5 C 190.976562 306.1875 193.105469 304.636719 193.265625 300.675781 C 198.230469 300.648438 199.957031 298.355469 198.6875 293.972656 C 204.464844 293.605469 205.378906 291.222656 203.230469 287.566406 C 208.242188 286.667969 209.609375 284.132812 207.199219 279.90625 C 212.042969 278.53125 213.507812 275.472656 212.058594 270.957031 C 217.613281 269.460938 218.394531 266.917969 214.648438 263.386719 C 219.632812 262.851562 221.515625 260.539062 218.945312 255.6875 C 223.363281 256.160156 224.917969 253.890625 223.242188 248.515625 C 227.945312 247.332031 229.035156 244.960938 226.097656 241.261719 C 230.929688 238.628906 232.183594 235.746094 228.957031 232.542969 C 234.191406 231.179688 236.4375 228.960938 231.601562 224.730469 C 237.023438 223.609375 239.632812 220.9375 236.863281 215.296875 C 240.433594 214.371094 242.046875 212.570312 238.832031 209.425781 C 244.082031 207.949219 244.253906 205.4375 239.964844 202.015625 C 244.621094 203 246.953125 199.804688 244.285156 197.160156 L 218.945312 177.792969 " clip-rule="evenodd"/></clipPath><clipPath id="c8f8d92b30"><path d="M 178 268 L 191 268 L 191 296 L 178 296 Z M 178 268 " clip-rule="nonzero"/></clipPath><clipPath id="877a5ed13c"><path d="M 143.679688 265.121094 L 140.453125 297.835938 C 141.78125 300.066406 143.628906 299.886719 145.875 297.867188 C 144.917969 302.410156 148.894531 305.375 152.355469 301.605469 C 152.289062 306.789062 156.371094 308.390625 159.808594 304.722656 C 162.378906 308.964844 165.542969 310.332031 169.777344 306.457031 C 173.066406 309.875 176.089844 310.277344 178.703125 305.996094 C 182.515625 308.867188 185.09375 308.558594 186.21875 304.5 C 190.976562 306.1875 193.105469 304.636719 193.265625 300.675781 C 198.230469 300.648438 199.957031 298.355469 198.6875 293.972656 C 204.464844 293.605469 205.378906 291.222656 203.230469 287.566406 C 208.242188 286.667969 209.609375 284.132812 207.199219 279.90625 C 212.042969 278.53125 213.507812 275.472656 212.058594 270.957031 C 217.613281 269.460938 218.394531 266.917969 214.648438 263.386719 C 219.632812 262.851562 221.515625 260.539062 218.945312 255.6875 C 223.363281 256.160156 224.917969 253.890625 223.242188 248.515625 C 227.945312 247.332031 229.035156 244.960938 226.097656 241.261719 C 230.929688 238.628906 232.183594 235.746094 228.957031 232.542969 C 234.191406 231.179688 236.4375 228.960938 231.601562 224.730469 C 237.023438 223.609375 239.632812 220.9375 236.863281 215.296875 C 240.433594 214.371094 242.046875 212.570312 238.832031 209.425781 C 244.082031 207.949219 244.253906 205.4375 239.964844 202.015625 C 244.621094 203 246.953125 199.804688 244.285156 197.160156 L 218.945312 177.792969 " clip-rule="evenodd"/></clipPath><clipPath id="1bf6d496eb"><path d="M 182 264 L 194 264 L 194 284 L 182 284 Z M 182 264 " clip-rule="nonzero"/></clipPath><clipPath id="4295f1157c"><path d="M 143.679688 265.121094 L 140.453125 297.835938 C 141.78125 300.066406 143.628906 299.886719 145.875 297.867188 C 144.917969 302.410156 148.894531 305.375 152.355469 301.605469 C 152.289062 306.789062 156.371094 308.390625 159.808594 304.722656 C 162.378906 308.964844 165.542969 310.332031 169.777344 306.457031 C 173.066406 309.875 176.089844 310.277344 178.703125 305.996094 C 182.515625 308.867188 185.09375 308.558594 186.21875 304.5 C 190.976562 306.1875 193.105469 304.636719 193.265625 300.675781 C 198.230469 300.648438 199.957031 298.355469 198.6875 293.972656 C 204.464844 293.605469 205.378906 291.222656 203.230469 287.566406 C 208.242188 286.667969 209.609375 284.132812 207.199219 279.90625 C 212.042969 278.53125 213.507812 275.472656 212.058594 270.957031 C 217.613281 269.460938 218.394531 266.917969 214.648438 263.386719 C 219.632812 262.851562 221.515625 260.539062 218.945312 255.6875 C 223.363281 256.160156 224.917969 253.890625 223.242188 248.515625 C 227.945312 247.332031 229.035156 244.960938 226.097656 241.261719 C 230.929688 238.628906 232.183594 235.746094 228.957031 232.542969 C 234.191406 231.179688 236.4375 228.960938 231.601562 224.730469 C 237.023438 223.609375 239.632812 220.9375 236.863281 215.296875 C 240.433594 214.371094 242.046875 212.570312 238.832031 209.425781 C 244.082031 207.949219 244.253906 205.4375 239.964844 202.015625 C 244.621094 203 246.953125 199.804688 244.285156 197.160156 L 218.945312 177.792969 " clip-rule="evenodd"/></clipPath><clipPath id="78cd51a0f8"><path d="M 185 257 L 200 257 L 200 280 L 185 280 Z M 185 257 " clip-rule="nonzero"/></clipPath><clipPath id="085e473415"><path d="M 143.679688 265.121094 L 140.453125 297.835938 C 141.78125 300.066406 143.628906 299.886719 145.875 297.867188 C 144.917969 302.410156 148.894531 305.375 152.355469 301.605469 C 152.289062 306.789062 156.371094 308.390625 159.808594 304.722656 C 162.378906 308.964844 165.542969 310.332031 169.777344 306.457031 C 173.066406 309.875 176.089844 310.277344 178.703125 305.996094 C 182.515625 308.867188 185.09375 308.558594 186.21875 304.5 C 190.976562 306.1875 193.105469 304.636719 193.265625 300.675781 C 198.230469 300.648438 199.957031 298.355469 198.6875 293.972656 C 204.464844 293.605469 205.378906 291.222656 203.230469 287.566406 C 208.242188 286.667969 209.609375 284.132812 207.199219 279.90625 C 212.042969 278.53125 213.507812 275.472656 212.058594 270.957031 C 217.613281 269.460938 218.394531 266.917969 214.648438 263.386719 C 219.632812 262.851562 221.515625 260.539062 218.945312 255.6875 C 223.363281 256.160156 224.917969 253.890625 223.242188 248.515625 C 227.945312 247.332031 229.035156 244.960938 226.097656 241.261719 C 230.929688 238.628906 232.183594 235.746094 228.957031 232.542969 C 234.191406 231.179688 236.4375 228.960938 231.601562 224.730469 C 237.023438 223.609375 239.632812 220.9375 236.863281 215.296875 C 240.433594 214.371094 242.046875 212.570312 238.832031 209.425781 C 244.082031 207.949219 244.253906 205.4375 239.964844 202.015625 C 244.621094 203 246.953125 199.804688 244.285156 197.160156 L 218.945312 177.792969 " clip-rule="evenodd"/></clipPath><clipPath id="e622d776a8"><path d="M 188 250 L 204 250 L 204 270 L 188 270 Z M 188 250 " clip-rule="nonzero"/></clipPath><clipPath id="1a5eae1a72"><path d="M 143.679688 265.121094 L 140.453125 297.835938 C 141.78125 300.066406 143.628906 299.886719 145.875 297.867188 C 144.917969 302.410156 148.894531 305.375 152.355469 301.605469 C 152.289062 306.789062 156.371094 308.390625 159.808594 304.722656 C 162.378906 308.964844 165.542969 310.332031 169.777344 306.457031 C 173.066406 309.875 176.089844 310.277344 178.703125 305.996094 C 182.515625 308.867188 185.09375 308.558594 186.21875 304.5 C 190.976562 306.1875 193.105469 304.636719 193.265625 300.675781 C 198.230469 300.648438 199.957031 298.355469 198.6875 293.972656 C 204.464844 293.605469 205.378906 291.222656 203.230469 287.566406 C 208.242188 286.667969 209.609375 284.132812 207.199219 279.90625 C 212.042969 278.53125 213.507812 275.472656 212.058594 270.957031 C 217.613281 269.460938 218.394531 266.917969 214.648438 263.386719 C 219.632812 262.851562 221.515625 260.539062 218.945312 255.6875 C 223.363281 256.160156 224.917969 253.890625 223.242188 248.515625 C 227.945312 247.332031 229.035156 244.960938 226.097656 241.261719 C 230.929688 238.628906 232.183594 235.746094 228.957031 232.542969 C 234.191406 231.179688 236.4375 228.960938 231.601562 224.730469 C 237.023438 223.609375 239.632812 220.9375 236.863281 215.296875 C 240.433594 214.371094 242.046875 212.570312 238.832031 209.425781 C 244.082031 207.949219 244.253906 205.4375 239.964844 202.015625 C 244.621094 203 246.953125 199.804688 244.285156 197.160156 L 218.945312 177.792969 " clip-rule="evenodd"/></clipPath><clipPath id="d3a0a94889"><path d="M 192 243 L 209 243 L 209 260 L 192 260 Z M 192 243 " clip-rule="nonzero"/></clipPath><clipPath id="4ea3f1f9aa"><path d="M 143.679688 265.121094 L 140.453125 297.835938 C 141.78125 300.066406 143.628906 299.886719 145.875 297.867188 C 144.917969 302.410156 148.894531 305.375 152.355469 301.605469 C 152.289062 306.789062 156.371094 308.390625 159.808594 304.722656 C 162.378906 308.964844 165.542969 310.332031 169.777344 306.457031 C 173.066406 309.875 176.089844 310.277344 178.703125 305.996094 C 182.515625 308.867188 185.09375 308.558594 186.21875 304.5 C 190.976562 306.1875 193.105469 304.636719 193.265625 300.675781 C 198.230469 300.648438 199.957031 298.355469 198.6875 293.972656 C 204.464844 293.605469 205.378906 291.222656 203.230469 287.566406 C 208.242188 286.667969 209.609375 284.132812 207.199219 279.90625 C 212.042969 278.53125 213.507812 275.472656 212.058594 270.957031 C 217.613281 269.460938 218.394531 266.917969 214.648438 263.386719 C 219.632812 262.851562 221.515625 260.539062 218.945312 255.6875 C 223.363281 256.160156 224.917969 253.890625 223.242188 248.515625 C 227.945312 247.332031 229.035156 244.960938 226.097656 241.261719 C 230.929688 238.628906 232.183594 235.746094 228.957031 232.542969 C 234.191406 231.179688 236.4375 228.960938 231.601562 224.730469 C 237.023438 223.609375 239.632812 220.9375 236.863281 215.296875 C 240.433594 214.371094 242.046875 212.570312 238.832031 209.425781 C 244.082031 207.949219 244.253906 205.4375 239.964844 202.015625 C 244.621094 203 246.953125 199.804688 244.285156 197.160156 L 218.945312 177.792969 " clip-rule="evenodd"/></clipPath><clipPath id="d67dcbaefb"><path d="M 196 233 L 213 233 L 213 250 L 196 250 Z M 196 233 " clip-rule="nonzero"/></clipPath><clipPath id="19ecd5948a"><path d="M 143.679688 265.121094 L 140.453125 297.835938 C 141.78125 300.066406 143.628906 299.886719 145.875 297.867188 C 144.917969 302.410156 148.894531 305.375 152.355469 301.605469 C 152.289062 306.789062 156.371094 308.390625 159.808594 304.722656 C 162.378906 308.964844 165.542969 310.332031 169.777344 306.457031 C 173.066406 309.875 176.089844 310.277344 178.703125 305.996094 C 182.515625 308.867188 185.09375 308.558594 186.21875 304.5 C 190.976562 306.1875 193.105469 304.636719 193.265625 300.675781 C 198.230469 300.648438 199.957031 298.355469 198.6875 293.972656 C 204.464844 293.605469 205.378906 291.222656 203.230469 287.566406 C 208.242188 286.667969 209.609375 284.132812 207.199219 279.90625 C 212.042969 278.53125 213.507812 275.472656 212.058594 270.957031 C 217.613281 269.460938 218.394531 266.917969 214.648438 263.386719 C 219.632812 262.851562 221.515625 260.539062 218.945312 255.6875 C 223.363281 256.160156 224.917969 253.890625 223.242188 248.515625 C 227.945312 247.332031 229.035156 244.960938 226.097656 241.261719 C 230.929688 238.628906 232.183594 235.746094 228.957031 232.542969 C 234.191406 231.179688 236.4375 228.960938 231.601562 224.730469 C 237.023438 223.609375 239.632812 220.9375 236.863281 215.296875 C 240.433594 214.371094 242.046875 212.570312 238.832031 209.425781 C 244.082031 207.949219 244.253906 205.4375 239.964844 202.015625 C 244.621094 203 246.953125 199.804688 244.285156 197.160156 L 218.945312 177.792969 " clip-rule="evenodd"/></clipPath><clipPath id="3300b7b5b8"><path d="M 200 224 L 217 224 L 217 241 L 200 241 Z M 200 224 " clip-rule="nonzero"/></clipPath><clipPath id="559c0de89c"><path d="M 143.679688 265.121094 L 140.453125 297.835938 C 141.78125 300.066406 143.628906 299.886719 145.875 297.867188 C 144.917969 302.410156 148.894531 305.375 152.355469 301.605469 C 152.289062 306.789062 156.371094 308.390625 159.808594 304.722656 C 162.378906 308.964844 165.542969 310.332031 169.777344 306.457031 C 173.066406 309.875 176.089844 310.277344 178.703125 305.996094 C 182.515625 308.867188 185.09375 308.558594 186.21875 304.5 C 190.976562 306.1875 193.105469 304.636719 193.265625 300.675781 C 198.230469 300.648438 199.957031 298.355469 198.6875 293.972656 C 204.464844 293.605469 205.378906 291.222656 203.230469 287.566406 C 208.242188 286.667969 209.609375 284.132812 207.199219 279.90625 C 212.042969 278.53125 213.507812 275.472656 212.058594 270.957031 C 217.613281 269.460938 218.394531 266.917969 214.648438 263.386719 C 219.632812 262.851562 221.515625 260.539062 218.945312 255.6875 C 223.363281 256.160156 224.917969 253.890625 223.242188 248.515625 C 227.945312 247.332031 229.035156 244.960938 226.097656 241.261719 C 230.929688 238.628906 232.183594 235.746094 228.957031 232.542969 C 234.191406 231.179688 236.4375 228.960938 231.601562 224.730469 C 237.023438 223.609375 239.632812 220.9375 236.863281 215.296875 C 240.433594 214.371094 242.046875 212.570312 238.832031 209.425781 C 244.082031 207.949219 244.253906 205.4375 239.964844 202.015625 C 244.621094 203 246.953125 199.804688 244.285156 197.160156 L 218.945312 177.792969 " clip-rule="evenodd"/></clipPath><clipPath id="33f51b3198"><path d="M 204 215 L 221 215 L 221 233 L 204 233 Z M 204 215 " clip-rule="nonzero"/></clipPath><clipPath id="78c9bfc370"><path d="M 143.679688 265.121094 L 140.453125 297.835938 C 141.78125 300.066406 143.628906 299.886719 145.875 297.867188 C 144.917969 302.410156 148.894531 305.375 152.355469 301.605469 C 152.289062 306.789062 156.371094 308.390625 159.808594 304.722656 C 162.378906 308.964844 165.542969 310.332031 169.777344 306.457031 C 173.066406 309.875 176.089844 310.277344 178.703125 305.996094 C 182.515625 308.867188 185.09375 308.558594 186.21875 304.5 C 190.976562 306.1875 193.105469 304.636719 193.265625 300.675781 C 198.230469 300.648438 199.957031 298.355469 198.6875 293.972656 C 204.464844 293.605469 205.378906 291.222656 203.230469 287.566406 C 208.242188 286.667969 209.609375 284.132812 207.199219 279.90625 C 212.042969 278.53125 213.507812 275.472656 212.058594 270.957031 C 217.613281 269.460938 218.394531 266.917969 214.648438 263.386719 C 219.632812 262.851562 221.515625 260.539062 218.945312 255.6875 C 223.363281 256.160156 224.917969 253.890625 223.242188 248.515625 C 227.945312 247.332031 229.035156 244.960938 226.097656 241.261719 C 230.929688 238.628906 232.183594 235.746094 228.957031 232.542969 C 234.191406 231.179688 236.4375 228.960938 231.601562 224.730469 C 237.023438 223.609375 239.632812 220.9375 236.863281 215.296875 C 240.433594 214.371094 242.046875 212.570312 238.832031 209.425781 C 244.082031 207.949219 244.253906 205.4375 239.964844 202.015625 C 244.621094 203 246.953125 199.804688 244.285156 197.160156 L 218.945312 177.792969 " clip-rule="evenodd"/></clipPath><clipPath id="9c489e41b5"><path d="M 207 206 L 226 206 L 226 224 L 207 224 Z M 207 206 " clip-rule="nonzero"/></clipPath><clipPath id="1c6298b568"><path d="M 143.679688 265.121094 L 140.453125 297.835938 C 141.78125 300.066406 143.628906 299.886719 145.875 297.867188 C 144.917969 302.410156 148.894531 305.375 152.355469 301.605469 C 152.289062 306.789062 156.371094 308.390625 159.808594 304.722656 C 162.378906 308.964844 165.542969 310.332031 169.777344 306.457031 C 173.066406 309.875 176.089844 310.277344 178.703125 305.996094 C 182.515625 308.867188 185.09375 308.558594 186.21875 304.5 C 190.976562 306.1875 193.105469 304.636719 193.265625 300.675781 C 198.230469 300.648438 199.957031 298.355469 198.6875 293.972656 C 204.464844 293.605469 205.378906 291.222656 203.230469 287.566406 C 208.242188 286.667969 209.609375 284.132812 207.199219 279.90625 C 212.042969 278.53125 213.507812 275.472656 212.058594 270.957031 C 217.613281 269.460938 218.394531 266.917969 214.648438 263.386719 C 219.632812 262.851562 221.515625 260.539062 218.945312 255.6875 C 223.363281 256.160156 224.917969 253.890625 223.242188 248.515625 C 227.945312 247.332031 229.035156 244.960938 226.097656 241.261719 C 230.929688 238.628906 232.183594 235.746094 228.957031 232.542969 C 234.191406 231.179688 236.4375 228.960938 231.601562 224.730469 C 237.023438 223.609375 239.632812 220.9375 236.863281 215.296875 C 240.433594 214.371094 242.046875 212.570312 238.832031 209.425781 C 244.082031 207.949219 244.253906 205.4375 239.964844 202.015625 C 244.621094 203 246.953125 199.804688 244.285156 197.160156 L 218.945312 177.792969 " clip-rule="evenodd"/></clipPath><clipPath id="e01f37e2bb"><path d="M 209 197 L 230 197 L 230 217 L 209 217 Z M 209 197 " clip-rule="nonzero"/></clipPath><clipPath id="889387bf32"><path d="M 143.679688 265.121094 L 140.453125 297.835938 C 141.78125 300.066406 143.628906 299.886719 145.875 297.867188 C 144.917969 302.410156 148.894531 305.375 152.355469 301.605469 C 152.289062 306.789062 156.371094 308.390625 159.808594 304.722656 C 162.378906 308.964844 165.542969 310.332031 169.777344 306.457031 C 173.066406 309.875 176.089844 310.277344 178.703125 305.996094 C 182.515625 308.867188 185.09375 308.558594 186.21875 304.5 C 190.976562 306.1875 193.105469 304.636719 193.265625 300.675781 C 198.230469 300.648438 199.957031 298.355469 198.6875 293.972656 C 204.464844 293.605469 205.378906 291.222656 203.230469 287.566406 C 208.242188 286.667969 209.609375 284.132812 207.199219 279.90625 C 212.042969 278.53125 213.507812 275.472656 212.058594 270.957031 C 217.613281 269.460938 218.394531 266.917969 214.648438 263.386719 C 219.632812 262.851562 221.515625 260.539062 218.945312 255.6875 C 223.363281 256.160156 224.917969 253.890625 223.242188 248.515625 C 227.945312 247.332031 229.035156 244.960938 226.097656 241.261719 C 230.929688 238.628906 232.183594 235.746094 228.957031 232.542969 C 234.191406 231.179688 236.4375 228.960938 231.601562 224.730469 C 237.023438 223.609375 239.632812 220.9375 236.863281 215.296875 C 240.433594 214.371094 242.046875 212.570312 238.832031 209.425781 C 244.082031 207.949219 244.253906 205.4375 239.964844 202.015625 C 244.621094 203 246.953125 199.804688 244.285156 197.160156 L 218.945312 177.792969 " clip-rule="evenodd"/></clipPath><clipPath id="b3afacdc5d"><path d="M 213 190 L 233 190 L 233 211 L 213 211 Z M 213 190 " clip-rule="nonzero"/></clipPath><clipPath id="d849e10b31"><path d="M 143.679688 265.121094 L 140.453125 297.835938 C 141.78125 300.066406 143.628906 299.886719 145.875 297.867188 C 144.917969 302.410156 148.894531 305.375 152.355469 301.605469 C 152.289062 306.789062 156.371094 308.390625 159.808594 304.722656 C 162.378906 308.964844 165.542969 310.332031 169.777344 306.457031 C 173.066406 309.875 176.089844 310.277344 178.703125 305.996094 C 182.515625 308.867188 185.09375 308.558594 186.21875 304.5 C 190.976562 306.1875 193.105469 304.636719 193.265625 300.675781 C 198.230469 300.648438 199.957031 298.355469 198.6875 293.972656 C 204.464844 293.605469 205.378906 291.222656 203.230469 287.566406 C 208.242188 286.667969 209.609375 284.132812 207.199219 279.90625 C 212.042969 278.53125 213.507812 275.472656 212.058594 270.957031 C 217.613281 269.460938 218.394531 266.917969 214.648438 263.386719 C 219.632812 262.851562 221.515625 260.539062 218.945312 255.6875 C 223.363281 256.160156 224.917969 253.890625 223.242188 248.515625 C 227.945312 247.332031 229.035156 244.960938 226.097656 241.261719 C 230.929688 238.628906 232.183594 235.746094 228.957031 232.542969 C 234.191406 231.179688 236.4375 228.960938 231.601562 224.730469 C 237.023438 223.609375 239.632812 220.9375 236.863281 215.296875 C 240.433594 214.371094 242.046875 212.570312 238.832031 209.425781 C 244.082031 207.949219 244.253906 205.4375 239.964844 202.015625 C 244.621094 203 246.953125 199.804688 244.285156 197.160156 L 218.945312 177.792969 " clip-rule="evenodd"/></clipPath><clipPath id="0fe84c5196"><path d="M 217 187 L 235 187 L 235 201 L 217 201 Z M 217 187 " clip-rule="nonzero"/></clipPath><clipPath id="327e4285ad"><path d="M 143.679688 265.121094 L 140.453125 297.835938 C 141.78125 300.066406 143.628906 299.886719 145.875 297.867188 C 144.917969 302.410156 148.894531 305.375 152.355469 301.605469 C 152.289062 306.789062 156.371094 308.390625 159.808594 304.722656 C 162.378906 308.964844 165.542969 310.332031 169.777344 306.457031 C 173.066406 309.875 176.089844 310.277344 178.703125 305.996094 C 182.515625 308.867188 185.09375 308.558594 186.21875 304.5 C 190.976562 306.1875 193.105469 304.636719 193.265625 300.675781 C 198.230469 300.648438 199.957031 298.355469 198.6875 293.972656 C 204.464844 293.605469 205.378906 291.222656 203.230469 287.566406 C 208.242188 286.667969 209.609375 284.132812 207.199219 279.90625 C 212.042969 278.53125 213.507812 275.472656 212.058594 270.957031 C 217.613281 269.460938 218.394531 266.917969 214.648438 263.386719 C 219.632812 262.851562 221.515625 260.539062 218.945312 255.6875 C 223.363281 256.160156 224.917969 253.890625 223.242188 248.515625 C 227.945312 247.332031 229.035156 244.960938 226.097656 241.261719 C 230.929688 238.628906 232.183594 235.746094 228.957031 232.542969 C 234.191406 231.179688 236.4375 228.960938 231.601562 224.730469 C 237.023438 223.609375 239.632812 220.9375 236.863281 215.296875 C 240.433594 214.371094 242.046875 212.570312 238.832031 209.425781 C 244.082031 207.949219 244.253906 205.4375 239.964844 202.015625 C 244.621094 203 246.953125 199.804688 244.285156 197.160156 L 218.945312 177.792969 " clip-rule="evenodd"/></clipPath><clipPath id="45e25c3e9a"><path d="M 139 176 L 246.375 176 L 246.375 310.042969 L 139 310.042969 Z M 139 176 " clip-rule="nonzero"/></clipPath><clipPath id="c93de4546c"><path d="M 137.625 164 L 225 164 L 225 279 L 137.625 279 Z M 137.625 164 " clip-rule="nonzero"/></clipPath><clipPath id="d0e39d063d"><path d="M 185 73.792969 L 233 73.792969 L 233 188 L 185 188 Z M 185 73.792969 " clip-rule="nonzero"/></clipPath></defs><rect x="-38.4" width="460.8" fill="#ffffff" y="-38.399999" height="460.799983" fill-opacity="1"/><rect x="-38.4" width="460.8" fill="#eaeaea" y="-38.399999" height="460.799983" fill-opacity="1"/><path fill="#ffedcc" d="M 143.679688 265.121094 L 140.453125 297.835938 C 141.78125 300.066406 143.628906 299.886719 145.875 297.867188 C 144.917969 302.410156 148.894531 305.375 152.355469 301.605469 C 152.289062 306.789062 156.371094 308.390625 159.808594 304.722656 C 162.378906 308.964844 165.542969 310.332031 169.777344 306.457031 C 173.066406 309.875 176.089844 310.277344 178.703125 305.996094 C 182.515625 308.867188 185.09375 308.558594 186.21875 304.5 C 190.976562 306.1875 193.105469 304.636719 193.265625 300.675781 C 198.230469 300.648438 199.957031 298.355469 198.6875 293.972656 C 204.464844 293.605469 205.378906 291.222656 203.230469 287.566406 C 208.242188 286.667969 209.609375 284.132812 207.199219 279.90625 C 212.042969 278.53125 213.507812 275.472656 212.058594 270.960938 C 217.613281 269.460938 218.394531 266.917969 214.648438 263.386719 C 219.632812 262.851562 221.515625 260.539062 218.945312 255.6875 C 223.363281 256.160156 224.917969 253.890625 223.242188 248.515625 C 227.945312 247.332031 229.035156 244.960938 226.097656 241.261719 C 230.929688 238.628906 232.183594 235.746094 228.957031 232.542969 C 234.191406 231.179688 236.4375 228.960938 231.601562 224.730469 C 237.023438 223.609375 239.632812 220.9375 236.863281 215.296875 C 240.433594 214.371094 242.046875 212.570312 238.832031 209.425781 C 244.082031 207.949219 244.253906 205.4375 239.964844 202.015625 C 244.621094 203 246.953125 199.804688 244.285156 197.160156 L 218.945312 177.792969 " fill-opacity="1" fill-rule="evenodd"/><g clip-path="url(#80903517ba)"><g clip-path="url(#bc1b417722)"><path fill="#000000" d="M 150.382812 269.609375 C 150.214844 270.4375 149.316406 278.171875 147.601562 287.390625 C 147.597656 287.40625 147.558594 287.613281 147.558594 287.613281 C 147.53125 287.6875 147.515625 287.769531 147.472656 287.839844 C 147.453125 287.871094 147.339844 288.046875 147.097656 288.105469 C 147.0625 288.113281 146.851562 288.164062 146.628906 288.027344 C 146.601562 288.007812 146.421875 287.894531 146.363281 287.652344 C 146.347656 287.574219 146.355469 287.492188 146.359375 287.414062 C 146.363281 287.339844 146.996094 283.359375 147.707031 277.054688 C 148.222656 272.511719 148.453125 269.667969 148.550781 269.199219 C 148.578125 269.066406 148.621094 268.980469 148.628906 268.960938 C 148.65625 268.910156 148.796875 268.617188 149.164062 268.488281 C 149.535156 268.355469 149.835938 268.503906 149.886719 268.53125 C 149.9375 268.554688 150.230469 268.695312 150.359375 269.0625 C 150.398438 269.175781 150.402344 269.222656 150.402344 269.238281 C 150.410156 269.417969 150.375 269.421875 150.382812 269.589844 L 150.386719 269.59375 C 150.386719 269.597656 150.386719 269.601562 150.382812 269.605469 C 150.382812 269.605469 150.382812 269.609375 150.382812 269.609375 Z M 150.382812 269.609375 C 150.382812 269.609375 150.382812 269.605469 150.382812 269.605469 Z M 150.382812 269.609375 " fill-opacity="1" fill-rule="evenodd"/></g></g><g clip-path="url(#8d106705bd)"><g clip-path="url(#7ca458a664)"><path fill="#000000" d="M 151.328125 295.351562 C 151.058594 295.332031 150.921875 295.167969 150.898438 295.136719 C 150.847656 295.078125 150.808594 295.007812 150.789062 294.933594 C 150.765625 294.855469 150.769531 294.773438 150.769531 294.695312 C 150.773438 294.613281 150.984375 291.921875 151.441406 284.605469 C 151.929688 276.804688 152.160156 272.585938 152.582031 271.203125 C 152.621094 271.082031 152.617188 271.078125 152.679688 270.972656 C 152.707031 270.921875 152.871094 270.644531 153.242188 270.539062 C 153.425781 270.492188 153.578125 270.511719 153.605469 270.515625 C 153.664062 270.523438 154 270.5625 154.234375 270.875 C 154.28125 270.933594 154.542969 271.277344 154.371094 271.769531 C 154.058594 272.675781 153.707031 276.34375 153.382812 279.878906 C 153.007812 283.957031 152.613281 288.492188 151.984375 294.796875 C 151.960938 295.050781 151.796875 295.1875 151.769531 295.210938 C 151.574219 295.375 151.363281 295.355469 151.328125 295.351562 Z M 151.328125 295.351562 " fill-opacity="1" fill-rule="evenodd"/></g></g><g clip-path="url(#a92371fa42)"><g clip-path="url(#6d870af7cb)"><path fill="#000000" d="M 159.5625 292.199219 C 159.527344 292.199219 159.3125 292.210938 159.128906 292.039062 C 159.070312 291.984375 159.019531 291.921875 158.988281 291.851562 C 158.953125 291.777344 158.9375 291.695312 158.925781 291.617188 C 158.925781 291.617188 158.8125 289.808594 158.683594 287.632812 C 157.886719 274.394531 157.945312 273.238281 157.953125 273.003906 C 157.953125 272.992188 157.953125 272.855469 157.957031 272.835938 C 157.96875 272.773438 157.976562 272.707031 157.992188 272.648438 C 158.007812 272.59375 158.097656 272.28125 158.433594 272.09375 C 158.597656 272 158.75 271.980469 158.777344 271.976562 C 158.835938 271.96875 159.167969 271.925781 159.476562 272.171875 C 159.78125 272.414062 159.820312 272.734375 159.828125 272.792969 C 159.84375 272.941406 159.828125 272.941406 159.820312 273.175781 C 159.746094 274.867188 159.910156 282.867188 160.144531 291.5625 C 160.148438 291.671875 160.101562 291.785156 160.09375 291.800781 C 160.082031 291.835938 160 292.035156 159.785156 292.140625 C 159.679688 292.191406 159.679688 292.195312 159.5625 292.199219 Z M 159.5625 292.199219 " fill-opacity="1" fill-rule="evenodd"/></g></g><g clip-path="url(#880ee3a28c)"><g clip-path="url(#6aa70f535d)"><path fill="#000000" d="M 169.105469 302.6875 C 169.070312 302.699219 168.867188 302.757812 168.644531 302.636719 C 168.574219 302.601562 168.511719 302.550781 168.464844 302.488281 C 168.414062 302.425781 168.382812 302.351562 168.351562 302.277344 C 168.339844 302.257812 168.109375 301.5 168.089844 301.433594 C 164.613281 289.980469 165.699219 288.320312 163.066406 273.957031 C 163.035156 273.789062 163.035156 273.789062 163.035156 273.785156 C 163.03125 273.722656 163.019531 273.660156 163.023438 273.59375 C 163.023438 273.539062 163.035156 273.214844 163.316406 272.945312 C 163.449219 272.816406 163.59375 272.761719 163.621094 272.75 C 163.675781 272.730469 163.988281 272.609375 164.347656 272.769531 C 164.699219 272.929688 164.816406 273.230469 164.835938 273.28125 C 164.859375 273.34375 164.875 273.402344 164.886719 273.464844 C 164.898438 273.515625 165.0625 274.574219 165.078125 274.667969 C 167.222656 288.5 166.132812 290.023438 169.476562 301.785156 C 169.515625 301.925781 169.515625 301.925781 169.515625 301.929688 C 169.523438 302.007812 169.546875 302.089844 169.539062 302.171875 C 169.515625 302.414062 169.347656 302.550781 169.320312 302.574219 C 169.226562 302.652344 169.222656 302.652344 169.105469 302.6875 Z M 169.105469 302.6875 " fill-opacity="1" fill-rule="evenodd"/></g></g><g clip-path="url(#4ad87b0dae)"><g clip-path="url(#2dfced97de)"><path fill="#000000" d="M 177.28125 295.34375 C 177.246094 295.355469 177.042969 295.414062 176.820312 295.292969 C 176.75 295.257812 176.6875 295.207031 176.640625 295.148438 C 176.589844 295.085938 176.554688 295.007812 176.523438 294.933594 C 176.523438 294.933594 176.371094 294.449219 176.277344 294.140625 C 175.625 292.039062 175.1875 290.390625 172.066406 278.402344 L 170.339844 271.753906 C 170.324219 271.695312 170.246094 271.378906 170.449219 271.042969 C 170.597656 270.800781 170.808594 270.699219 170.851562 270.679688 C 171.207031 270.511719 171.523438 270.628906 171.574219 270.648438 C 171.9375 270.78125 172.078125 271.074219 172.101562 271.128906 C 172.128906 271.183594 172.148438 271.242188 172.164062 271.304688 C 172.371094 272.175781 175.707031 286.722656 176.648438 290.625 C 177.121094 292.574219 177.332031 293.316406 177.691406 294.585938 C 177.722656 294.703125 177.734375 294.703125 177.726562 294.824219 C 177.714844 295.066406 177.539062 295.203125 177.507812 295.226562 C 177.40625 295.304688 177.40625 295.308594 177.28125 295.34375 Z M 177.28125 295.34375 " fill-opacity="1" fill-rule="evenodd"/></g></g><g clip-path="url(#c8f8d92b30)"><g clip-path="url(#877a5ed13c)"><path fill="#000000" d="M 178.457031 270.425781 C 178.398438 270.363281 178.332031 270.308594 178.28125 270.242188 C 178.246094 270.191406 178.222656 270.136719 178.203125 270.078125 C 178.0625 269.71875 178.191406 269.421875 178.214844 269.367188 C 178.371094 269.007812 178.683594 268.886719 178.738281 268.867188 C 179.101562 268.730469 179.398438 268.859375 179.449219 268.882812 C 179.691406 268.984375 179.871094 269.199219 179.902344 269.230469 C 180.199219 269.574219 180.277344 269.945312 180.738281 271.328125 C 181.09375 272.382812 182.152344 275.535156 185.316406 283.355469 C 187.058594 287.664062 187.445312 288.386719 190.058594 294.496094 C 190.15625 294.730469 190.082031 294.929688 190.066406 294.964844 C 190.039062 295.035156 190 295.105469 189.945312 295.160156 C 189.917969 295.191406 189.765625 295.347656 189.507812 295.355469 C 189.472656 295.355469 189.253906 295.363281 189.078125 295.1875 C 189.023438 295.132812 188.984375 295.058594 188.945312 294.992188 C 188.925781 294.953125 188.476562 293.949219 186.875 290.496094 C 185.800781 288.179688 184.902344 286.285156 182.507812 280.640625 C 181.027344 277.164062 180.117188 274.859375 179.535156 273.332031 C 178.816406 271.441406 178.574219 270.652344 178.457031 270.425781 Z M 178.539062 270.511719 L 178.535156 270.511719 Z M 178.539062 270.511719 " fill-opacity="1" fill-rule="evenodd"/></g></g><g clip-path="url(#1bf6d496eb)"><g clip-path="url(#4295f1157c)"><path fill="#000000" d="M 193.058594 283.207031 C 193.023438 283.226562 192.847656 283.339844 192.601562 283.28125 C 192.523438 283.261719 192.449219 283.230469 192.382812 283.183594 C 192.320312 283.136719 192.265625 283.074219 192.214844 283.007812 C 192.195312 282.984375 191.261719 281.542969 191.179688 281.414062 C 188.050781 276.574219 187.101562 274.921875 182.160156 266.21875 C 182.140625 266.179688 182.023438 265.976562 182.050781 265.679688 C 182.089844 265.296875 182.335938 265.085938 182.378906 265.050781 C 182.683594 264.796875 183.015625 264.828125 183.074219 264.835938 C 183.457031 264.871094 183.667969 265.117188 183.703125 265.164062 C 183.746094 265.210938 183.78125 265.265625 183.8125 265.316406 C 183.996094 265.660156 187.054688 271.566406 188.882812 274.886719 C 190.242188 277.359375 191.355469 279.222656 193.246094 282.363281 C 193.265625 282.398438 193.378906 282.582031 193.320312 282.828125 C 193.265625 283.078125 193.089844 283.1875 193.058594 283.207031 Z M 193.058594 283.207031 " fill-opacity="1" fill-rule="evenodd"/></g></g><g clip-path="url(#78cd51a0f8)"><g clip-path="url(#085e473415)"><path fill="#000000" d="M 198.84375 279.457031 C 198.8125 279.476562 198.640625 279.597656 198.390625 279.550781 C 198.3125 279.535156 198.238281 279.507812 198.167969 279.464844 C 198.101562 279.421875 198.046875 279.359375 197.996094 279.296875 C 197.976562 279.28125 197.269531 278.277344 197.207031 278.1875 C 194.976562 275.023438 189.894531 267.714844 187.035156 262.734375 C 185.902344 260.761719 185.453125 259.734375 185.234375 259.164062 C 185.21875 259.125 185.132812 258.902344 185.203125 258.617188 C 185.292969 258.242188 185.570312 258.070312 185.617188 258.042969 C 185.667969 258.011719 185.953125 257.832031 186.335938 257.925781 C 186.710938 258.019531 186.882812 258.292969 186.910156 258.34375 C 186.984375 258.457031 186.976562 258.460938 187.023438 258.585938 C 188.339844 262.207031 194.433594 271.789062 198.996094 278.609375 C 199.015625 278.636719 199.136719 278.816406 199.089844 279.066406 C 199.046875 279.316406 198.871094 279.433594 198.84375 279.457031 Z M 198.84375 279.457031 " fill-opacity="1" fill-rule="evenodd"/></g></g><g clip-path="url(#e622d776a8)"><g clip-path="url(#1a5eae1a72)"><path fill="#000000" d="M 203.394531 269.507812 C 203.367188 269.53125 203.203125 269.664062 202.953125 269.640625 C 202.875 269.632812 202.796875 269.609375 202.726562 269.574219 C 202.589844 269.5 202.59375 269.488281 202.496094 269.371094 C 200.613281 267.117188 194.417969 258.457031 188.757812 252.070312 C 188.726562 252.039062 188.574219 251.863281 188.539062 251.570312 C 188.492188 251.1875 188.691406 250.929688 188.726562 250.886719 C 188.96875 250.574219 189.300781 250.535156 189.359375 250.527344 C 189.742188 250.484375 190 250.683594 190.042969 250.714844 C 190.054688 250.726562 190.125 250.78125 190.183594 250.847656 C 195.71875 257.480469 201.738281 266.449219 203.480469 268.652344 C 203.503906 268.679688 203.636719 268.847656 203.613281 269.101562 C 203.585938 269.351562 203.425781 269.484375 203.394531 269.507812 Z M 203.394531 269.507812 " fill-opacity="1" fill-rule="evenodd"/></g></g><g clip-path="url(#d3a0a94889)"><g clip-path="url(#4ea3f1f9aa)"><path fill="#000000" d="M 208.011719 258.847656 C 207.984375 258.875 207.839844 259.027344 207.585938 259.03125 C 207.507812 259.03125 207.425781 259.015625 207.355469 258.988281 C 207.28125 258.957031 207.214844 258.910156 207.152344 258.859375 C 207.125 258.835938 205.90625 257.679688 205.796875 257.578125 C 197 249.214844 195.433594 247.214844 192.457031 245.164062 C 192.421875 245.136719 192.226562 245.003906 192.125 244.726562 C 191.988281 244.363281 192.121094 244.070312 192.144531 244.019531 C 192.308594 243.65625 192.621094 243.539062 192.675781 243.519531 C 193.039062 243.386719 193.335938 243.515625 193.386719 243.539062 C 193.496094 243.589844 193.492188 243.589844 193.585938 243.660156 C 196.742188 245.996094 198.210938 248.109375 208 257.988281 C 208.089844 258.074219 208.09375 258.070312 208.140625 258.183594 C 208.242188 258.410156 208.160156 258.609375 208.144531 258.640625 C 208.101562 258.757812 208.097656 258.757812 208.011719 258.847656 Z M 208.011719 258.847656 " fill-opacity="1" fill-rule="evenodd"/></g></g><g clip-path="url(#d67dcbaefb)"><g clip-path="url(#19ecd5948a)"><path fill="#000000" d="M 212.019531 249.460938 C 211.992188 249.488281 211.839844 249.632812 211.585938 249.628906 C 211.507812 249.625 211.429688 249.609375 211.355469 249.578125 C 211.285156 249.546875 211.21875 249.496094 211.160156 249.445312 C 211.132812 249.421875 210.164062 248.433594 210.078125 248.34375 C 202.976562 241.117188 201.761719 239.328125 196.816406 235.128906 C 196.78125 235.101562 196.605469 234.949219 196.527344 234.660156 C 196.429688 234.289062 196.589844 234.007812 196.617188 233.957031 C 196.816406 233.617188 197.140625 233.53125 197.195312 233.515625 C 197.570312 233.417969 197.851562 233.578125 197.902344 233.605469 C 197.914062 233.617188 197.992188 233.660156 198.054688 233.71875 C 203.164062 238.347656 204.171875 240.113281 212.039062 248.601562 C 212.121094 248.691406 212.125 248.691406 212.167969 248.804688 C 212.257812 249.035156 212.171875 249.230469 212.160156 249.261719 C 212.109375 249.375 212.109375 249.378906 212.019531 249.460938 Z M 212.019531 249.460938 " fill-opacity="1" fill-rule="evenodd"/></g></g><g clip-path="url(#3300b7b5b8)"><g clip-path="url(#559c0de89c)"><path fill="#000000" d="M 200.785156 226.546875 C 200.679688 226.484375 200.554688 226.457031 200.445312 226.398438 C 200.390625 226.367188 200.347656 226.324219 200.304688 226.28125 C 200.035156 226.003906 200.039062 225.679688 200.039062 225.625 C 200.039062 225.566406 200.039062 225.230469 200.324219 224.953125 C 200.597656 224.6875 200.921875 224.6875 200.980469 224.6875 C 201 224.6875 201.105469 224.6875 201.253906 224.726562 C 201.90625 224.902344 203.230469 225.566406 208.046875 230.527344 C 211.488281 234.074219 215.132812 238.183594 216.089844 239.269531 C 216.152344 239.339844 216.308594 239.519531 216.308594 239.519531 C 216.347656 239.585938 216.402344 239.652344 216.429688 239.726562 C 216.441406 239.761719 216.511719 239.964844 216.40625 240.1875 C 216.40625 240.1875 216.269531 240.378906 216.265625 240.378906 C 216.199219 240.421875 216.136719 240.472656 216.0625 240.5 C 215.832031 240.582031 215.636719 240.492188 215.601562 240.476562 C 215.53125 240.445312 215.46875 240.390625 215.40625 240.335938 C 215.40625 240.335938 205.664062 229.898438 201.742188 227.101562 C 201.144531 226.675781 200.871094 226.5625 200.785156 226.546875 Z M 200.785156 226.546875 " fill-opacity="1" fill-rule="evenodd"/></g></g><g clip-path="url(#33f51b3198)"><g clip-path="url(#78c9bfc370)"><path fill="#000000" d="M 220.691406 232.207031 C 220.503906 232.382812 220.289062 232.375 220.25 232.375 C 220.171875 232.371094 220.09375 232.351562 220.023438 232.320312 C 219.953125 232.285156 219.890625 232.230469 219.832031 232.175781 C 219.785156 232.136719 217.539062 229.769531 212.613281 224.800781 C 208.691406 220.847656 205.9375 218.125 204.796875 216.832031 C 204.765625 216.800781 204.609375 216.625 204.578125 216.328125 C 204.535156 215.945312 204.734375 215.691406 204.769531 215.644531 C 204.804688 215.601562 205.011719 215.335938 205.402344 215.292969 C 205.785156 215.25 206.042969 215.445312 206.085938 215.480469 C 206.183594 215.558594 206.179688 215.5625 206.261719 215.65625 C 207.914062 217.640625 213.550781 223.4375 220.722656 231.34375 C 220.890625 231.53125 220.886719 231.746094 220.882812 231.78125 C 220.875 232.035156 220.71875 232.179688 220.691406 232.207031 Z M 220.691406 232.207031 " fill-opacity="1" fill-rule="evenodd"/></g></g><g clip-path="url(#9c489e41b5)"><g clip-path="url(#1c6298b568)"><path fill="#000000" d="M 225.289062 223.242188 C 225.261719 223.269531 225.113281 223.421875 224.859375 223.421875 C 224.78125 223.421875 224.703125 223.410156 224.628906 223.382812 C 224.554688 223.351562 224.488281 223.300781 224.421875 223.25 C 224.371094 223.207031 218.601562 217.6875 214.203125 213.703125 C 211.4375 211.195312 209.65625 209.691406 207.671875 208.015625 C 207.535156 207.902344 207.460938 207.742188 207.449219 207.71875 C 207.421875 207.667969 207.28125 207.371094 207.398438 207.011719 C 207.417969 206.953125 207.441406 206.898438 207.472656 206.84375 C 207.5 206.792969 207.664062 206.503906 208.042969 206.402344 C 208.417969 206.300781 208.699219 206.460938 208.75 206.488281 C 208.761719 206.496094 208.839844 206.539062 208.902344 206.597656 C 212.894531 210.175781 215.507812 212.546875 225.277344 222.378906 C 225.300781 222.40625 225.453125 222.5625 225.457031 222.8125 C 225.460938 223.066406 225.3125 223.21875 225.289062 223.242188 Z M 225.289062 223.242188 " fill-opacity="1" fill-rule="evenodd"/></g></g><g clip-path="url(#e01f37e2bb)"><g clip-path="url(#889387bf32)"><path fill="#000000" d="M 228.890625 216.164062 C 228.863281 216.191406 228.714844 216.34375 228.460938 216.347656 C 228.382812 216.347656 228.304688 216.335938 228.230469 216.304688 C 228.15625 216.277344 228.089844 216.226562 228.027344 216.175781 C 228.003906 216.15625 227.066406 215.253906 226.980469 215.175781 C 220.003906 208.46875 213.617188 201.785156 209.550781 198.746094 C 209.449219 198.671875 209.445312 198.675781 209.363281 198.582031 C 209.324219 198.539062 209.113281 198.292969 209.136719 197.90625 C 209.160156 197.515625 209.410156 197.292969 209.457031 197.257812 C 209.5 197.21875 209.742188 197.003906 210.128906 197.027344 C 210.316406 197.039062 210.457031 197.105469 210.480469 197.121094 C 210.597656 197.175781 210.59375 197.179688 210.695312 197.261719 C 214.992188 200.648438 221.476562 207.871094 228.878906 215.304688 C 228.964844 215.390625 228.96875 215.390625 229.015625 215.503906 C 229.113281 215.730469 229.035156 215.925781 229.023438 215.960938 C 228.976562 216.074219 228.976562 216.078125 228.890625 216.164062 Z M 228.890625 216.164062 " fill-opacity="1" fill-rule="evenodd"/></g></g><g clip-path="url(#b3afacdc5d)"><g clip-path="url(#d849e10b31)"><path fill="#000000" d="M 213.800781 192.742188 C 213.707031 192.699219 213.609375 192.671875 213.519531 192.621094 C 213.46875 192.589844 213.425781 192.546875 213.382812 192.5 C 213.117188 192.222656 213.125 191.898438 213.125 191.839844 C 213.125 191.785156 213.132812 191.449219 213.417969 191.179688 C 213.695312 190.914062 214.023438 190.917969 214.078125 190.917969 C 214.105469 190.917969 214.242188 190.921875 214.433594 190.988281 C 215.121094 191.234375 216.1875 192.203125 219.246094 195.476562 C 222.53125 198.984375 226.976562 203.914062 232.0625 208.988281 C 232.148438 209.074219 232.152344 209.074219 232.199219 209.1875 C 232.296875 209.414062 232.21875 209.609375 232.207031 209.644531 C 232.113281 209.882812 231.910156 209.96875 231.875 209.984375 C 231.648438 210.082031 231.453125 210.003906 231.417969 209.992188 C 231.34375 209.960938 231.277344 209.910156 231.214844 209.863281 C 231.195312 209.847656 230.441406 209.128906 230.375 209.066406 C 222.730469 201.757812 216.089844 194.398438 214.054688 192.917969 C 214.035156 192.902344 213.867188 192.777344 213.796875 192.753906 C 213.796875 192.75 213.796875 192.746094 213.800781 192.742188 Z M 213.855469 192.773438 L 213.859375 192.773438 C 213.859375 192.773438 213.859375 192.773438 213.855469 192.773438 Z M 213.855469 192.773438 " fill-opacity="1" fill-rule="evenodd"/></g></g><g clip-path="url(#0fe84c5196)"><g clip-path="url(#327e4285ad)"><path fill="#000000" d="M 234.582031 200.515625 C 234.402344 200.726562 234.1875 200.742188 234.148438 200.742188 C 234.074219 200.75 233.992188 200.742188 233.921875 200.710938 C 233.847656 200.683594 233.785156 200.628906 233.722656 200.582031 C 233.605469 200.488281 230.292969 197.699219 227.832031 195.765625 C 224.542969 193.183594 222.191406 191.652344 218.046875 189.203125 C 217.894531 189.109375 217.792969 188.96875 217.777344 188.945312 C 217.742188 188.898438 217.554688 188.632812 217.613281 188.257812 C 217.671875 187.867188 217.945312 187.671875 217.992188 187.636719 C 218.304688 187.417969 218.625 187.464844 218.679688 187.472656 C 218.742188 187.484375 218.800781 187.496094 218.859375 187.519531 C 218.917969 187.539062 218.976562 187.570312 219.03125 187.601562 C 219.0625 187.617188 219.828125 188.113281 219.898438 188.15625 C 225.679688 191.878906 227.859375 193.71875 234.519531 199.660156 C 234.707031 199.828125 234.722656 200.039062 234.726562 200.078125 C 234.746094 200.328125 234.605469 200.488281 234.582031 200.515625 Z M 234.582031 200.515625 " fill-opacity="1" fill-rule="evenodd"/></g></g><g clip-path="url(#45e25c3e9a)"><path stroke-linecap="round" transform="matrix(0.128909, 0, 0, 0.123544, -406.005345, -612.792071)" fill="none" stroke-linejoin="round" d="M 4264.127992 7106.086119 L 4239.098248 7370.88964 C 4249.401048 7388.943707 4263.734061 7387.489263 4281.157914 7371.142586 C 4273.733838 7407.914705 4304.581633 7431.913018 4331.429518 7401.401329 C 4330.914378 7443.358854 4362.580337 7456.32237 4389.246408 7426.632757 C 4409.185356 7460.970264 4433.730262 7472.03668 4466.578013 7440.671296 C 4492.092595 7468.337335 4515.546616 7471.594024 4535.81889 7436.940333 C 4565.393987 7460.179806 4585.39354 7457.681958 4594.120618 7424.830512 C 4631.028884 7438.489631 4647.543666 7425.937154 4648.786063 7393.876166 C 4687.300354 7393.654838 4700.693994 7375.094878 4690.845729 7339.619111 C 4735.662909 7336.646988 4742.75366 7317.359806 4726.087366 7287.765048 C 4764.965285 7280.492832 4775.571108 7259.972535 4756.874556 7225.761501 C 4794.449474 7214.631849 4805.812857 7189.874696 4794.570684 7153.355524 C 4837.66063 7141.214085 4843.7211 7120.630551 4814.661144 7092.04758 C 4853.326946 7087.715869 4867.932681 7068.997817 4847.993732 7029.72785 C 4882.265694 7033.553668 4894.32603 7015.183418 4881.326321 6971.676595 C 4917.810354 6962.09624 4926.26471 6942.903914 4903.477341 6912.961354 C 4940.961352 6891.650599 4950.688407 6868.316271 4925.658663 6842.38924 C 4966.263817 6831.354442 4983.68767 6813.395231 4946.173357 6779.152578 C 4988.233023 6770.078117 5008.474995 6748.451179 4986.990626 6702.794309 C 5014.686977 6695.300765 5027.201849 6680.724714 5002.263012 6655.271958 C 5042.989375 6643.320229 5044.322678 6622.989642 5011.050695 6595.291984 C 5047.1711 6603.259804 5065.261604 6577.396009 5044.565097 6555.990399 L 4847.993732 6399.226715 " stroke="#000000" stroke-width="14.88" stroke-opacity="1" stroke-miterlimit="1.5"/></g><path fill="#d8a46a" d="M 139.25 255.046875 L 176.589844 174.84375 C 188.179688 158.726562 226.019531 163.855469 223.695312 185.09375 L 186.933594 264.90625 C 178.769531 286.527344 132.597656 278.757812 139.25 255.046875 Z M 139.25 255.046875 " fill-opacity="1" fill-rule="evenodd"/><g clip-path="url(#c93de4546c)"><path stroke-linecap="round" transform="matrix(0.128909, 0, 0, 0.123544, -406.005345, -612.792071)" fill="none" stroke-linejoin="round" d="M 4229.765123 7024.542444 L 4519.425317 6375.354875 C 4609.332399 6244.897642 4902.871294 6286.412511 4884.841394 6458.321375 L 4599.665948 7104.347111 C 4536.33403 7279.354572 4178.160216 7216.465712 4229.765123 7024.542444 Z M 4229.765123 7024.542444 " stroke="#000000" stroke-width="14.88" stroke-opacity="1" stroke-miterlimit="1.5"/></g><path stroke-linecap="round" transform="matrix(0.128909, 0, 0, 0.123544, -406.005345, -612.792071)" fill-opacity="1" fill="#d8a46a" fill-rule="evenodd" stroke-linejoin="round" d="M 4229.765123 7024.542444 L 4519.425317 6375.354875 C 4609.332399 6244.897642 4878.205178 6288.815504 4840.418144 6418.419042 L 4545.333829 7073.67733 C 4502.637813 7186.301824 4199.280956 7152.628302 4229.765123 7024.542444 Z M 4229.765123 7024.542444 " stroke="#000000" stroke-width="14.88" stroke-opacity="1" stroke-miterlimit="1.5"/><path fill="#d8a46a" d="M 188.332031 173.886719 C 178.203125 189.140625 207.953125 191.800781 205.09375 175.292969 C 198.804688 156.851562 249.644531 80.066406 224.636719 74.960938 C 201.765625 70.289062 191.40625 133.933594 188.332031 173.886719 Z M 188.332031 173.886719 " fill-opacity="1" fill-rule="evenodd"/><g clip-path="url(#d0e39d063d)"><path stroke-linecap="round" transform="matrix(0.128909, 0, 0, 0.123544, -406.005345, -612.792071)" fill="none" stroke-linejoin="round" d="M 4610.514191 6367.608384 C 4531.940189 6491.077966 4762.722911 6512.610049 4740.541588 6378.990983 C 4691.754799 6229.720843 5086.139926 5608.199314 4892.144261 5566.874156 C 4714.723983 5529.058632 4634.362143 6044.216096 4610.514191 6367.608384 Z M 4610.514191 6367.608384 " stroke="#000000" stroke-width="14.88" stroke-opacity="1" stroke-miterlimit="1.5"/></g><path stroke-linecap="round" transform="matrix(0.133614, 0.0539037, -0.0416853, 0.0949056, -193.453043, -712.700968)" fill-opacity="1" fill="#ffffff" fill-rule="nonzero" stroke-linejoin="round" d="M 4888.164904 5691.099783 C 4888.169026 5695.048737 4887.980508 5698.942468 4887.670836 5702.822692 C 4887.325421 5706.682058 4886.826127 5710.423026 4886.159028 5714.094666 C 4885.505855 5717.717236 4884.71273 5721.172339 4883.754818 5724.474081 C 4882.785998 5727.740859 4881.715986 5730.776995 4880.509041 5733.561631 C 4879.277261 5736.360373 4877.972143 5738.830334 4876.544017 5740.999727 C 4875.101965 5743.218188 4873.600502 5745.058801 4872.0257 5746.570633 C 4870.426064 5748.096571 4868.79185 5749.230554 4867.098225 5749.986689 C 4865.440343 5750.763681 4863.712141 5751.127861 4862.020848 5751.141803 C 4860.293811 5751.134887 4858.592775 5750.742769 4856.892905 5749.979555 C 4855.217869 5749.202236 4853.579742 5748.07468 4852.003358 5746.58278 C 4850.416065 5745.055917 4848.901424 5743.199675 4847.484268 5740.999948 C 4846.053186 5738.84929 4844.744425 5736.341043 4843.519222 5733.538381 C 4842.304928 5730.770682 4841.209935 5727.729427 4840.280895 5724.470437 C 4839.316112 5721.190589 4838.503356 5717.742075 4837.856552 5714.075828 C 4837.195821 5710.458649 4836.687117 5706.672805 4836.363163 5702.823188 C 4836.028301 5698.938607 4835.864263 5695.039321 4835.860141 5691.090367 C 4835.866927 5687.176377 4836.019701 5683.261788 4836.365116 5679.402422 C 4836.710531 5675.543056 4837.198917 5671.767125 4837.85209 5668.144554 C 4838.494355 5664.48702 4839.312315 5661.017811 4840.2563 5657.765139 C 4841.22512 5654.498361 4842.295132 5651.462225 4843.526912 5648.663483 C 4844.733857 5645.878847 4846.06381 5643.39478 4847.481027 5641.190424 C 4848.909152 5639.021032 4850.410616 5637.180419 4852.010252 5635.654481 C 4853.585054 5634.142649 4855.219267 5633.008666 4856.901984 5632.217568 C 4858.595609 5631.461433 4860.288069 5631.076395 4862.015105 5631.083311 C 4863.742141 5631.090228 4865.432269 5631.447382 4867.107305 5632.224701 C 4868.78234 5633.00202 4870.420468 5634.129576 4872.00776 5635.65644 C 4873.608979 5637.134234 4875.098786 5639.004581 4876.540776 5641.190203 C 4877.957931 5643.38993 4879.291528 5645.884072 4880.505822 5648.65177 C 4881.70619 5651.468538 4882.790275 5654.474829 4883.755057 5657.754678 C 4884.695006 5661.048631 4885.507762 5664.497145 4886.179401 5668.149287 C 4886.815296 5671.780571 4887.313093 5675.531451 4887.647955 5679.416032 C 4887.996743 5683.251544 4888.160781 5687.150829 4888.164904 5691.099783 Z M 4888.164904 5691.099783 " stroke="#000000" stroke-width="15.19" stroke-opacity="1" stroke-miterlimit="1.5"/></svg>
