<svg xmlns="http://www.w3.org/2000/svg" xmlns:xlink="http://www.w3.org/1999/xlink" width="512" zoomAndPan="magnify" viewBox="0 0 384 383.999986" height="512" preserveAspectRatio="xMidYMid meet" version="1.0"><defs><clipPath id="d4bf0e2397"><path d="M 83.773438 92.296875 L 300.523438 92.296875 L 300.523438 291.796875 L 83.773438 291.796875 Z M 83.773438 92.296875 " clip-rule="nonzero"/></clipPath></defs><rect x="-38.4" width="460.8" fill="#ffffff" y="-38.399999" height="460.799983" fill-opacity="1"/><rect x="-38.4" width="460.8" fill="#eaeaea" y="-38.399999" height="460.799983" fill-opacity="1"/><path fill="#b4d2d7" d="M 91.433594 95.679688 L 249.714844 95.679688 C 252.054688 95.679688 253.964844 97.589844 253.964844 99.925781 L 253.964844 288.367188 L 87.183594 288.367188 L 87.183594 99.925781 C 87.183594 97.589844 89.09375 95.679688 91.433594 95.679688 Z M 91.433594 95.679688 " fill-opacity="1" fill-rule="evenodd"/><path fill="#788a98" d="M 107.753906 134.457031 L 170.574219 134.457031 L 170.574219 288.367188 L 107.753906 288.367188 Z M 107.753906 134.457031 " fill-opacity="1" fill-rule="nonzero"/><path fill="#788a98" d="M 170.574219 134.457031 L 233.394531 134.457031 L 233.394531 288.367188 L 170.574219 288.367188 Z M 170.574219 134.457031 " fill-opacity="1" fill-rule="nonzero"/><path fill="#72d561" d="M 139.164062 106.550781 L 144.085938 115.066406 L 149.007812 123.585938 L 129.324219 123.585938 L 134.242188 115.066406 Z M 139.164062 106.550781 " fill-opacity="1" fill-rule="evenodd"/><path fill="#fc685b" d="M 201.984375 123.585938 L 206.90625 115.066406 L 211.828125 106.550781 L 192.140625 106.550781 L 197.0625 115.066406 Z M 201.984375 123.585938 " fill-opacity="1" fill-rule="evenodd"/><path fill="#465759" d="M 267.035156 164.445312 L 292.863281 164.445312 C 295.207031 164.445312 297.109375 166.347656 297.109375 168.6875 L 297.109375 219.550781 C 297.109375 221.894531 295.207031 223.796875 292.863281 223.796875 L 267.035156 223.796875 C 264.691406 223.796875 262.785156 221.894531 262.785156 219.550781 L 262.785156 168.6875 C 262.785156 166.347656 264.691406 164.445312 267.035156 164.445312 Z M 267.035156 164.445312 " fill-opacity="1" fill-rule="nonzero"/><path fill="#72d561" d="M 280.128906 188.636719 C 284.398438 188.636719 287.882812 185.15625 287.882812 180.890625 C 287.882812 176.621094 284.398438 173.140625 280.128906 173.140625 C 275.855469 173.140625 272.371094 176.621094 272.371094 180.890625 C 272.371094 185.15625 275.855469 188.636719 280.128906 188.636719 Z M 280.128906 188.636719 " fill-opacity="1" fill-rule="evenodd"/><path fill="#fc685b" d="M 280.128906 215.128906 C 284.398438 215.128906 287.882812 211.648438 287.882812 207.378906 C 287.882812 203.113281 284.398438 199.628906 280.128906 199.628906 C 275.855469 199.628906 272.371094 203.113281 272.371094 207.378906 C 272.371094 211.648438 275.855469 215.128906 280.128906 215.128906 Z M 280.128906 215.128906 " fill-opacity="1" fill-rule="evenodd"/><g clip-path="url(#d4bf0e2397)"><path fill="#000000" d="M 91.433594 92.285156 L 249.714844 92.285156 C 253.929688 92.285156 257.367188 95.714844 257.367188 99.925781 L 257.367188 288.367188 C 257.367188 290.242188 255.84375 291.765625 253.964844 291.765625 L 87.183594 291.765625 C 85.304688 291.765625 83.785156 290.242188 83.785156 288.367188 L 83.785156 99.925781 C 83.785156 95.714844 87.21875 92.285156 91.433594 92.285156 Z M 280.128906 196.234375 C 290.03125 196.234375 295.027344 208.253906 288.015625 215.261719 C 281.003906 222.265625 268.972656 217.273438 268.972656 207.378906 C 268.972656 201.226562 273.964844 196.234375 280.128906 196.234375 Z M 283.207031 204.300781 C 280.472656 201.566406 275.769531 203.511719 275.769531 207.378906 C 275.769531 211.246094 280.472656 213.191406 283.207031 210.457031 C 284.910156 208.757812 284.910156 206 283.207031 204.300781 Z M 280.128906 169.742188 C 290.03125 169.742188 295.027344 181.765625 288.015625 188.769531 C 281.003906 195.773438 268.972656 190.785156 268.972656 180.890625 C 268.972656 174.734375 273.964844 169.742188 280.128906 169.742188 Z M 283.207031 177.8125 C 280.472656 175.078125 275.769531 177.019531 275.769531 180.890625 C 275.769531 184.757812 280.472656 186.699219 283.207031 183.96875 C 284.910156 182.269531 284.910156 179.511719 283.207031 177.8125 Z M 267.035156 161.046875 C 262.824219 161.046875 259.386719 164.480469 259.386719 168.691406 L 259.386719 219.550781 C 259.386719 223.761719 262.824219 227.191406 267.035156 227.191406 L 292.863281 227.191406 C 297.078125 227.191406 300.511719 223.761719 300.511719 219.550781 L 300.511719 168.691406 C 300.511719 164.480469 297.078125 161.046875 292.863281 161.046875 Z M 292.863281 167.839844 L 267.035156 167.839844 C 266.574219 167.839844 266.1875 168.230469 266.1875 168.691406 L 266.1875 219.550781 C 266.1875 220.011719 266.574219 220.398438 267.035156 220.398438 L 292.863281 220.398438 C 293.324219 220.398438 293.710938 220.011719 293.710938 219.550781 L 293.710938 168.691406 C 293.710938 168.230469 293.324219 167.839844 292.863281 167.839844 Z M 201.980469 116.8125 L 205.957031 109.949219 L 198.019531 109.949219 Z M 209.839844 116.765625 L 214.761719 108.238281 C 216.066406 105.972656 214.402344 103.167969 211.828125 103.167969 L 211.828125 103.15625 L 192.140625 103.15625 C 189.617188 103.15625 187.742188 105.925781 189.324219 108.453125 L 194.128906 116.765625 L 199.050781 125.269531 C 200.363281 127.550781 203.628906 127.5 204.914062 125.277344 L 204.917969 125.28125 Z M 142.117188 104.898438 C 140.855469 102.640625 137.554688 102.570312 136.230469 104.867188 L 131.308594 113.371094 L 126.503906 121.683594 C 124.921875 124.210938 126.796875 126.980469 129.324219 126.980469 L 149.007812 126.980469 L 149.007812 126.972656 C 151.585938 126.976562 153.261719 124.167969 151.941406 121.886719 L 147.019531 113.371094 L 147.015625 113.375 Z M 141.152344 116.753906 L 139.164062 113.316406 L 135.203125 120.1875 L 143.128906 120.1875 L 141.152344 116.765625 L 141.15625 116.761719 Z M 167.175781 284.972656 L 167.175781 137.851562 L 111.15625 137.851562 L 111.15625 284.972656 Z M 170.574219 131.058594 L 233.394531 131.058594 C 235.273438 131.058594 236.792969 132.582031 236.792969 134.457031 L 236.792969 284.972656 L 250.566406 284.972656 L 250.566406 99.925781 C 250.566406 99.464844 250.175781 99.078125 249.714844 99.078125 L 91.433594 99.078125 C 90.972656 99.078125 90.582031 99.464844 90.582031 99.925781 L 90.582031 284.972656 L 104.355469 284.972656 L 104.355469 134.457031 C 104.355469 132.582031 105.878906 131.058594 107.753906 131.058594 Z M 229.996094 284.972656 L 229.996094 137.851562 L 173.972656 137.851562 L 173.972656 284.972656 Z M 229.996094 284.972656 " fill-opacity="1" fill-rule="evenodd"/></g></svg>
