<svg xmlns="http://www.w3.org/2000/svg" xmlns:xlink="http://www.w3.org/1999/xlink" width="512" zoomAndPan="magnify" viewBox="0 0 384 383.999986" height="512" preserveAspectRatio="xMidYMid meet" version="1.0"><defs><clipPath id="3f572a0bc8"><path d="M 100.15625 103 L 182 103 L 182 177 L 100.15625 177 Z M 100.15625 103 " clip-rule="nonzero"/></clipPath><clipPath id="82a68115b6"><path d="M 131 74.503906 L 186 74.503906 L 186 115 L 131 115 Z M 131 74.503906 " clip-rule="nonzero"/></clipPath><clipPath id="8a797f8c60"><path d="M 215 127 L 283.90625 127 L 283.90625 169 L 215 169 Z M 215 127 " clip-rule="nonzero"/></clipPath><clipPath id="374ce3fbc0"><path d="M 172 212 L 211 212 L 211 309.253906 L 172 309.253906 Z M 172 212 " clip-rule="nonzero"/></clipPath></defs><rect x="-38.4" width="460.8" fill="#ffffff" y="-38.399999" height="460.799983" fill-opacity="1"/><rect x="-38.4" width="460.8" fill="#eaeaea" y="-38.399999" height="460.799983" fill-opacity="1"/><g clip-path="url(#3f572a0bc8)"><path fill="#2fbd23" d="M 181.601562 150.800781 C 181.601562 150.800781 183.503906 163.207031 173.578125 171.574219 C 173.578125 171.574219 158.0625 181.902344 142.789062 172.761719 C 142.789062 172.761719 129.175781 178.460938 108.671875 170.980469 C 108.671875 170.980469 101.773438 168.488281 100.347656 168.074219 C 100.347656 168.074219 99.574219 167.332031 101.152344 166.085938 C 101.152344 166.085938 105.015625 161.664062 107.824219 156.230469 C 107.824219 156.230469 116.398438 144.09375 130.722656 137.089844 C 130.722656 137.089844 121.628906 137.03125 115.148438 136.316406 C 115.148438 136.316406 105.9375 135.84375 103.261719 137.148438 C 103.261719 137.148438 101.113281 137.421875 101.984375 135.441406 C 101.984375 135.441406 109.621094 115.722656 124.125 108.777344 C 124.125 108.777344 140.828125 99.21875 158.894531 106.285156 C 158.894531 106.285156 175.300781 112.574219 179.402344 129.136719 L 170.6875 125.933594 C 167.710938 124.839844 164.585938 124.191406 161.417969 124.082031 C 159.058594 124.003906 156.484375 124.199219 154.453125 125.070312 C 154.453125 125.070312 150.308594 126.539062 147.765625 128.765625 C 147.765625 128.765625 144.066406 131.082031 143.441406 131.300781 C 143.441406 131.300781 152.058594 128.363281 160.558594 135.367188 C 169.058594 142.375 168.40625 144.390625 175.777344 147.179688 Z M 181.601562 150.800781 " fill-opacity="1" fill-rule="nonzero"/></g><g clip-path="url(#82a68115b6)"><path fill="#2fbd23" d="M 181.894531 113.6875 C 181.894531 113.6875 182.660156 110.898438 183.695312 108.640625 C 184.394531 107.113281 184.90625 105.503906 185.148438 103.84375 C 185.863281 98.902344 185.449219 89.953125 175.71875 82.539062 C 175.71875 82.539062 163.472656 73.042969 140.234375 74.707031 C 140.234375 74.707031 130.558594 74.898438 131.894531 76.457031 C 131.894531 76.457031 136.890625 80.910156 138.316406 84.960938 C 138.316406 84.960938 140.945312 97.511719 146.382812 101.609375 C 146.382812 101.609375 151.832031 105.910156 159.832031 106.890625 C 163.160156 107.296875 166.480469 107.761719 169.777344 108.367188 L 173.222656 109 C 173.222656 109 177.617188 109.785156 180.277344 114.464844 Z M 181.894531 113.6875 " fill-opacity="1" fill-rule="nonzero"/></g><path fill="#2fbd23" d="M 191.097656 138.675781 C 191.097656 138.675781 190.042969 130.027344 187.722656 125.515625 C 187.722656 125.515625 180.472656 107.648438 195.570312 96.726562 C 195.570312 96.726562 202.046875 91.800781 212.273438 88.953125 C 212.273438 88.953125 222.136719 86.042969 226.953125 82.777344 C 226.953125 82.777344 227.667969 82.242188 227.308594 85.300781 C 227.308594 85.300781 228.390625 120.566406 210.023438 133.742188 C 210.023438 133.742188 194.46875 137.613281 193.398438 140.417969 Z M 191.097656 138.675781 " fill-opacity="1" fill-rule="nonzero"/><path fill="#2fbd23" d="M 211.78125 134.328125 C 211.78125 134.328125 213.609375 131.613281 221.1875 133.261719 C 221.1875 133.261719 241.605469 135.308594 251.234375 125.246094 C 251.234375 125.246094 254.621094 120.574219 256.40625 117.054688 C 256.40625 117.054688 267.734375 94.289062 278.925781 89.015625 C 279.453125 88.765625 279.414062 88 278.867188 87.792969 C 273.554688 85.789062 251.796875 80.105469 237.234375 86.429688 C 237.234375 86.429688 216.371094 92.570312 217.53125 124.445312 Z M 211.78125 134.328125 " fill-opacity="1" fill-rule="nonzero"/><g clip-path="url(#8a797f8c60)"><path fill="#2fbd23" d="M 218.203125 146.777344 C 218.203125 146.777344 221.246094 146.289062 224.992188 141.007812 C 224.992188 141.007812 232.910156 127.324219 252.527344 127.5625 C 252.527344 127.5625 266.003906 128.660156 276.820312 141.183594 C 276.820312 141.183594 282.347656 146.882812 283.820312 147.59375 L 283.910156 148.886719 C 283.910156 148.886719 269.066406 154.71875 265.585938 157.253906 L 258.457031 161.484375 C 258.457031 161.484375 245.082031 174.664062 231.261719 164.957031 C 231.261719 164.957031 224.976562 160.683594 222.480469 153.382812 C 222.480469 153.382812 220.964844 149.289062 215.703125 149.820312 Z M 218.203125 146.777344 " fill-opacity="1" fill-rule="nonzero"/></g><path fill="#ffed70" d="M 170.722656 146.636719 C 165.789062 146.558594 158.195312 147.179688 151.40625 148.960938 C 151.40625 148.960938 139.917969 152.765625 131.890625 156.457031 C 130.972656 156.878906 130.039062 157.261719 129.089844 157.605469 C 124.367188 159.332031 110.382812 164.414062 106.351562 165.640625 C 106.351562 165.640625 118.640625 162.316406 130.015625 158.269531 C 131.074219 157.890625 132.121094 157.46875 133.148438 157.007812 C 137.570312 155.035156 151.773438 148.988281 160.324219 148.839844 C 160.324219 148.839844 165.890625 148.828125 170.746094 149.128906 C 170.742188 148.355469 170.660156 147.414062 170.722656 146.636719 Z M 170.722656 146.636719 " fill-opacity="1" fill-rule="nonzero"/><path fill="#ffed70" d="M 169.550781 122.921875 C 166.882812 121.707031 163.742188 120.550781 160.113281 119.636719 C 160.113281 119.636719 145.847656 115.855469 130.515625 121.285156 C 130.515625 121.285156 113.574219 128.007812 108.222656 133.171875 C 108.222656 133.171875 125.730469 121.953125 140.292969 119.9375 C 140.292969 119.9375 156.3125 117.304688 168.097656 124.863281 C 168.695312 124.253906 169.203125 123.652344 169.550781 122.921875 Z M 169.550781 122.921875 " fill-opacity="1" fill-rule="nonzero"/><path fill="#ffed70" d="M 193.671875 139.214844 C 194.34375 133.46875 195.628906 126.601562 198.777344 120.796875 C 198.777344 120.796875 204.308594 108.332031 222.761719 90.878906 C 222.761719 90.878906 219.820312 91.949219 206.804688 106.90625 C 206.804688 106.90625 194.984375 119.78125 191.09375 138.710938 C 191.878906 138.988281 192.835938 139.222656 193.671875 139.214844 Z M 193.671875 139.214844 " fill-opacity="1" fill-rule="nonzero"/><path fill="#ffed70" d="M 217.308594 128.007812 C 218.785156 126.546875 221.652344 123.804688 223.386719 122.367188 C 223.386719 122.367188 240.625 107.351562 242.109375 106.222656 C 242.109375 106.222656 255.722656 95.539062 261.960938 93.222656 C 261.960938 93.222656 268.796875 90.492188 270.757812 90.078125 C 270.757812 90.078125 265.054688 89.960938 255.839844 95.65625 C 255.839844 95.65625 247.933594 100.289062 238.128906 108.0625 C 238.128906 108.0625 224.976562 118.132812 215.601562 126.433594 C 216.125 126.957031 216.753906 127.519531 217.308594 128.007812 Z M 217.308594 128.007812 " fill-opacity="1" fill-rule="nonzero"/><path fill="#ffed70" d="M 248.46875 143.410156 C 248.46875 143.410156 232.273438 143.710938 218.203125 146.777344 C 218.382812 147.410156 218.535156 148.054688 218.671875 148.699219 C 219.199219 148.542969 219.738281 148.390625 220.296875 148.246094 C 220.296875 148.246094 247.355469 141.273438 275.394531 146.035156 C 275.394531 146.035156 273.300781 143.320312 248.46875 143.410156 Z M 248.46875 143.410156 " fill-opacity="1" fill-rule="nonzero"/><path fill="#ffed70" d="M 179.816406 111.757812 C 179.816406 111.757812 180.214844 113.84375 180.320312 114.441406 C 180.808594 114.214844 181.40625 113.871094 181.902344 113.671875 C 181.003906 110.730469 179.09375 106.332031 177.164062 103.925781 C 176.203125 102.730469 175.023438 101.394531 173.726562 100.21875 C 173.152344 99.703125 172.582031 99.1875 172.027344 98.652344 C 169.941406 96.640625 162.1875 90.167969 138.851562 78.371094 C 138.851562 78.371094 158.421875 89.855469 164.347656 94.21875 C 164.347656 94.21875 177.992188 102.589844 179.816406 111.757812 Z M 179.816406 111.757812 " fill-opacity="1" fill-rule="nonzero"/><path fill="#ffed70" d="M 175.171875 103.011719 C 174.277344 103.171875 173.402344 103.289062 172.515625 103.386719 C 172.070312 103.433594 171.628906 103.46875 171.183594 103.511719 L 169.851562 103.601562 C 168.074219 103.703125 166.292969 103.703125 164.515625 103.621094 C 164.074219 103.59375 163.628906 103.582031 163.183594 103.539062 L 161.855469 103.417969 C 161.414062 103.378906 160.976562 103.304688 160.535156 103.25 L 159.875 103.160156 C 159.652344 103.132812 159.433594 103.085938 159.214844 103.046875 L 157.90625 102.804688 L 156.609375 102.5 L 155.960938 102.34375 L 155.320312 102.15625 L 154.042969 101.769531 C 153.980469 101.75 153.941406 101.679688 153.960938 101.617188 C 153.980469 101.550781 154.050781 101.515625 154.113281 101.53125 L 154.121094 101.535156 L 156.03125 102.0625 L 156.679688 102.203125 L 157.96875 102.476562 L 159.273438 102.6875 C 159.492188 102.71875 159.710938 102.761719 159.929688 102.785156 L 160.585938 102.859375 C 161.023438 102.90625 161.460938 102.96875 161.898438 102.996094 L 163.214844 103.089844 C 163.65625 103.121094 164.097656 103.121094 164.535156 103.140625 C 166.296875 103.183594 168.058594 103.144531 169.8125 103.007812 L 171.128906 102.886719 C 171.566406 102.835938 172.003906 102.792969 172.4375 102.734375 C 173.308594 102.621094 174.183594 102.484375 175.027344 102.3125 L 175.039062 102.3125 C 175.234375 102.273438 175.421875 102.398438 175.460938 102.589844 C 175.5 102.785156 175.375 102.972656 175.179688 103.011719 C 175.175781 103.011719 175.171875 103.011719 175.171875 103.011719 Z M 175.171875 103.011719 " fill-opacity="1" fill-rule="nonzero"/><path fill="#ffed70" d="M 247.566406 144.109375 C 247.929688 144.664062 248.363281 145.214844 248.800781 145.746094 C 249.246094 146.273438 249.710938 146.789062 250.199219 147.277344 C 251.171875 148.261719 252.210938 149.1875 253.324219 150.015625 C 254.4375 150.839844 255.601562 151.613281 256.832031 152.257812 L 257.289062 152.507812 L 257.519531 152.628906 L 257.757812 152.742188 L 258.703125 153.179688 C 259.015625 153.335938 259.34375 153.453125 259.667969 153.582031 L 260.640625 153.964844 L 260.648438 153.96875 C 260.71875 153.996094 260.753906 154.074219 260.726562 154.144531 C 260.699219 154.214844 260.621094 154.25 260.550781 154.222656 L 259.558594 153.863281 C 259.226562 153.742188 258.890625 153.632812 258.574219 153.484375 L 257.363281 152.957031 L 257.125 152.835938 L 256.65625 152.597656 C 255.386719 151.976562 254.1875 151.222656 253.035156 150.410156 C 251.875 149.601562 250.792969 148.6875 249.773438 147.707031 C 248.753906 146.71875 247.804688 145.679688 246.964844 144.492188 C 246.851562 144.332031 246.890625 144.109375 247.050781 143.996094 C 247.214844 143.882812 247.4375 143.921875 247.550781 144.082031 C 247.550781 144.085938 247.554688 144.089844 247.554688 144.09375 Z M 247.566406 144.109375 " fill-opacity="1" fill-rule="nonzero"/><path fill="#ffed70" d="M 247.910156 101.109375 C 248.570312 101.207031 249.269531 101.25 249.957031 101.28125 C 250.648438 101.296875 251.339844 101.292969 252.03125 101.257812 C 253.414062 101.1875 254.800781 101.03125 256.160156 100.746094 C 257.519531 100.46875 258.867188 100.117188 260.171875 99.628906 L 260.660156 99.453125 L 260.90625 99.363281 L 261.148438 99.261719 L 262.105469 98.847656 C 262.429688 98.71875 262.734375 98.554688 263.046875 98.398438 L 263.980469 97.925781 L 263.988281 97.921875 C 264.054688 97.890625 264.136719 97.917969 264.171875 97.984375 C 264.207031 98.050781 264.179688 98.128906 264.113281 98.164062 L 263.183594 98.664062 C 262.875 98.832031 262.570312 99.007812 262.246094 99.148438 L 261.285156 99.589844 L 261.042969 99.699219 L 260.796875 99.796875 L 260.304688 99.988281 C 258.996094 100.515625 257.636719 100.910156 256.261719 101.230469 C 254.886719 101.550781 253.480469 101.75 252.070312 101.859375 C 250.652344 101.960938 249.246094 101.976562 247.800781 101.8125 C 247.605469 101.789062 247.464844 101.613281 247.484375 101.417969 C 247.507812 101.222656 247.683594 101.082031 247.882812 101.105469 C 247.882812 101.105469 247.886719 101.105469 247.890625 101.105469 Z M 247.910156 101.109375 " fill-opacity="1" fill-rule="nonzero"/><path fill="#ffed70" d="M 241.933594 104.9375 C 242.070312 104.109375 242.277344 103.34375 242.507812 102.570312 C 242.636719 102.1875 242.746094 101.800781 242.890625 101.425781 C 243.027344 101.046875 243.164062 100.667969 243.324219 100.300781 C 243.476562 99.925781 243.625 99.554688 243.800781 99.195312 C 243.972656 98.832031 244.128906 98.460938 244.320312 98.109375 C 244.507812 97.753906 244.6875 97.394531 244.878906 97.042969 L 245.484375 96.003906 C 245.582031 95.832031 245.691406 95.664062 245.800781 95.496094 L 246.128906 94.992188 L 246.457031 94.492188 C 246.566406 94.320312 246.691406 94.164062 246.808594 94.003906 L 247.515625 93.035156 C 247.761719 92.71875 248.023438 92.414062 248.273438 92.105469 C 248.765625 91.472656 249.332031 90.90625 249.871094 90.316406 L 250.074219 90.09375 C 250.144531 90.023438 250.21875 89.957031 250.289062 89.886719 L 250.722656 89.472656 L 251.585938 88.644531 C 251.640625 88.589844 251.726562 88.59375 251.78125 88.648438 C 251.832031 88.699219 251.832031 88.785156 251.777344 88.839844 L 251.773438 88.84375 L 250.933594 89.6875 L 250.515625 90.105469 C 250.445312 90.175781 250.375 90.246094 250.308594 90.316406 L 250.109375 90.539062 C 249.59375 91.136719 249.046875 91.710938 248.574219 92.34375 C 248.332031 92.65625 248.082031 92.964844 247.847656 93.28125 L 247.167969 94.253906 C 247.058594 94.414062 246.9375 94.570312 246.835938 94.742188 L 246.523438 95.242188 L 246.210938 95.746094 C 246.105469 95.914062 246 96.082031 245.910156 96.253906 L 245.335938 97.289062 C 245.15625 97.640625 244.988281 97.996094 244.8125 98.347656 C 244.628906 98.699219 244.488281 99.066406 244.328125 99.425781 C 244.164062 99.785156 244.023438 100.152344 243.882812 100.519531 C 243.738281 100.882812 243.613281 101.257812 243.488281 101.628906 C 243.355469 102 243.253906 102.378906 243.140625 102.753906 C 242.933594 103.503906 242.746094 104.28125 242.640625 105.027344 L 242.636719 105.042969 C 242.609375 105.238281 242.429688 105.375 242.234375 105.347656 C 242.039062 105.320312 241.902344 105.136719 241.929688 104.945312 C 241.929688 104.941406 241.933594 104.9375 241.933594 104.9375 Z M 241.933594 104.9375 " fill-opacity="1" fill-rule="nonzero"/><path fill="#ffed70" d="M 221.871094 121.71875 C 221.753906 120.445312 221.765625 119.207031 221.8125 117.957031 C 221.863281 116.707031 221.972656 115.464844 222.136719 114.230469 C 222.464844 111.761719 222.980469 109.316406 223.703125 106.933594 C 223.875 106.335938 224.082031 105.75 224.273438 105.15625 C 224.488281 104.574219 224.683594 103.984375 224.917969 103.410156 C 225.363281 102.246094 225.875 101.113281 226.410156 99.988281 C 227.496094 97.753906 228.753906 95.605469 230.167969 93.5625 C 230.210938 93.5 230.296875 93.484375 230.359375 93.527344 C 230.421875 93.570312 230.4375 93.65625 230.394531 93.71875 C 229.019531 95.769531 227.804688 97.921875 226.753906 100.15625 C 226.242188 101.277344 225.753906 102.40625 225.328125 103.566406 C 225.105469 104.136719 224.917969 104.726562 224.714844 105.304688 C 224.53125 105.894531 224.339844 106.480469 224.175781 107.074219 C 223.496094 109.4375 223.019531 111.863281 222.734375 114.304688 C 222.59375 115.523438 222.503906 116.75 222.46875 117.976562 C 222.441406 119.199219 222.453125 120.441406 222.578125 121.632812 L 222.582031 121.648438 C 222.601562 121.84375 222.460938 122.019531 222.265625 122.039062 C 222.066406 122.058594 221.890625 121.917969 221.871094 121.722656 C 221.871094 121.722656 221.871094 121.71875 221.871094 121.71875 Z M 221.871094 121.71875 " fill-opacity="1" fill-rule="nonzero"/><path fill="#ffed70" d="M 229.417969 115.328125 C 229.433594 114.132812 229.535156 112.972656 229.675781 111.804688 C 229.820312 110.640625 230.011719 109.484375 230.253906 108.339844 C 230.5 107.195312 230.792969 106.058594 231.140625 104.9375 C 231.492188 103.820312 231.898438 102.71875 232.363281 101.640625 C 232.820312 100.5625 233.367188 99.519531 233.957031 98.507812 C 234.546875 97.492188 235.226562 96.53125 235.960938 95.617188 C 236.6875 94.695312 237.515625 93.855469 238.386719 93.070312 L 239.054688 92.496094 C 239.28125 92.3125 239.519531 92.140625 239.753906 91.964844 L 240.105469 91.699219 C 240.222656 91.613281 240.347656 91.535156 240.46875 91.453125 L 241.203125 90.972656 C 241.269531 90.929688 241.351562 90.945312 241.394531 91.011719 C 241.4375 91.074219 241.417969 91.15625 241.359375 91.199219 L 241.351562 91.203125 L 240.632812 91.691406 C 240.515625 91.773438 240.394531 91.851562 240.277344 91.9375 L 239.933594 92.203125 C 239.707031 92.382812 239.476562 92.554688 239.253906 92.738281 L 238.605469 93.3125 C 237.761719 94.101562 236.960938 94.9375 236.261719 95.855469 C 235.554688 96.765625 234.898438 97.71875 234.335938 98.726562 C 233.769531 99.730469 233.25 100.765625 232.816406 101.832031 C 232.378906 102.902344 231.992188 103.988281 231.664062 105.097656 C 231.339844 106.203125 231.070312 107.328125 230.847656 108.460938 C 230.625 109.59375 230.453125 110.734375 230.328125 111.882812 C 230.207031 113.023438 230.125 114.1875 230.128906 115.320312 L 230.128906 115.332031 C 230.128906 115.527344 229.972656 115.6875 229.773438 115.6875 C 229.578125 115.6875 229.417969 115.53125 229.417969 115.332031 C 229.417969 115.332031 229.417969 115.328125 229.417969 115.328125 Z M 229.417969 115.328125 " fill-opacity="1" fill-rule="nonzero"/><path fill="#ffed70" d="M 238.484375 108.324219 C 239.21875 108.492188 239.996094 108.609375 240.761719 108.714844 C 241.53125 108.804688 242.300781 108.882812 243.074219 108.929688 C 244.625 109.023438 246.183594 109.035156 247.734375 108.9375 C 247.929688 108.925781 248.121094 108.921875 248.316406 108.90625 L 248.898438 108.851562 C 249.285156 108.8125 249.671875 108.789062 250.058594 108.738281 C 250.828125 108.632812 251.601562 108.542969 252.363281 108.386719 C 253.898438 108.128906 255.402344 107.714844 256.898438 107.265625 L 256.902344 107.265625 C 256.972656 107.242188 257.050781 107.285156 257.074219 107.355469 C 257.09375 107.425781 257.054688 107.503906 256.984375 107.527344 C 255.492188 108.011719 253.984375 108.464844 252.4375 108.761719 C 251.671875 108.9375 250.890625 109.046875 250.113281 109.171875 C 249.726562 109.234375 249.332031 109.265625 248.945312 109.316406 L 248.355469 109.382812 C 248.160156 109.402344 247.964844 109.414062 247.769531 109.429688 C 246.199219 109.566406 244.621094 109.589844 243.046875 109.53125 C 241.464844 109.464844 239.90625 109.324219 238.324219 109.019531 C 238.132812 108.980469 238.003906 108.792969 238.042969 108.601562 C 238.082031 108.40625 238.269531 108.28125 238.460938 108.320312 C 238.464844 108.320312 238.46875 108.320312 238.46875 108.320312 Z M 238.484375 108.324219 " fill-opacity="1" fill-rule="nonzero"/><path fill="#ffed70" d="M 205.714844 108.808594 C 205.824219 108.824219 205.980469 108.832031 206.121094 108.835938 C 206.265625 108.835938 206.410156 108.839844 206.558594 108.832031 C 206.707031 108.824219 206.851562 108.820312 207 108.804688 L 207.445312 108.761719 C 208.039062 108.683594 208.628906 108.578125 209.214844 108.4375 C 210.390625 108.160156 211.546875 107.785156 212.671875 107.332031 C 213.242188 107.125 213.792969 106.863281 214.351562 106.625 C 214.90625 106.371094 215.449219 106.097656 216 105.835938 C 216.535156 105.546875 217.078125 105.265625 217.613281 104.976562 L 219.199219 104.058594 L 219.203125 104.058594 C 219.269531 104.019531 219.351562 104.042969 219.390625 104.105469 C 219.425781 104.171875 219.40625 104.253906 219.34375 104.292969 L 217.777344 105.257812 C 217.25 105.570312 216.710938 105.867188 216.179688 106.175781 C 215.632812 106.457031 215.09375 106.75 214.539062 107.019531 C 213.980469 107.28125 213.433594 107.558594 212.859375 107.789062 C 211.730469 108.28125 210.5625 108.699219 209.363281 109.023438 C 208.765625 109.183594 208.152344 109.3125 207.535156 109.414062 L 207.066406 109.472656 C 206.910156 109.492188 206.753906 109.503906 206.59375 109.515625 C 206.4375 109.527344 206.277344 109.53125 206.117188 109.535156 C 205.949219 109.535156 205.800781 109.535156 205.605469 109.511719 C 205.410156 109.492188 205.269531 109.316406 205.292969 109.121094 C 205.3125 108.925781 205.492188 108.785156 205.6875 108.804688 C 205.691406 108.804688 205.691406 108.804688 205.695312 108.804688 Z M 205.714844 108.808594 " fill-opacity="1" fill-rule="nonzero"/><path fill="#ffed70" d="M 205.125 109.230469 C 205.066406 109.015625 205.054688 108.859375 205.035156 108.679688 C 205.027344 108.511719 205.007812 108.335938 205.011719 108.167969 C 205.003906 107.828125 205.03125 107.492188 205.058594 107.160156 C 205.101562 106.828125 205.132812 106.496094 205.199219 106.171875 L 205.289062 105.683594 L 205.402344 105.199219 L 205.519531 104.71875 L 205.65625 104.246094 C 205.75 103.929688 205.839844 103.613281 205.953125 103.304688 C 206.0625 102.996094 206.164062 102.683594 206.28125 102.378906 L 206.644531 101.46875 C 206.761719 101.160156 206.902344 100.867188 207.035156 100.566406 L 207.441406 99.675781 C 207.738281 99.09375 208.019531 98.503906 208.328125 97.929688 C 208.644531 97.363281 208.949219 96.785156 209.277344 96.222656 L 210.28125 94.550781 C 210.320312 94.484375 210.40625 94.464844 210.46875 94.5 C 210.535156 94.539062 210.554688 94.621094 210.519531 94.6875 L 210.515625 94.691406 L 209.5625 96.382812 C 209.253906 96.953125 208.96875 97.53125 208.667969 98.105469 C 208.378906 98.683594 208.117188 99.273438 207.839844 99.859375 L 207.464844 100.75 C 207.339844 101.050781 207.210938 101.34375 207.105469 101.648438 L 206.769531 102.554688 C 206.664062 102.859375 206.574219 103.167969 206.476562 103.472656 C 206.371094 103.777344 206.292969 104.089844 206.214844 104.398438 L 206.089844 104.863281 L 205.894531 105.800781 L 205.824219 106.269531 C 205.765625 106.585938 205.746094 106.898438 205.714844 107.214844 C 205.699219 107.527344 205.683594 107.84375 205.699219 108.152344 C 205.699219 108.308594 205.71875 108.457031 205.730469 108.609375 C 205.75 108.75 205.777344 108.917969 205.804688 109.019531 L 205.8125 109.046875 C 205.863281 109.234375 205.753906 109.433594 205.566406 109.484375 C 205.375 109.539062 205.179688 109.429688 205.125 109.238281 C 205.125 109.238281 205.125 109.234375 205.125 109.230469 Z M 205.125 109.230469 " fill-opacity="1" fill-rule="nonzero"/><path fill="#ffed70" d="M 223.253906 121.273438 C 224.40625 121.429688 225.589844 121.527344 226.761719 121.59375 C 227.9375 121.660156 229.117188 121.691406 230.296875 121.691406 C 232.65625 121.683594 235.019531 121.554688 237.359375 121.261719 C 238.53125 121.117188 239.695312 120.9375 240.855469 120.707031 C 241.433594 120.601562 242.007812 120.464844 242.585938 120.339844 C 243.15625 120.195312 243.734375 120.0625 244.296875 119.894531 C 246.574219 119.269531 248.789062 118.429688 250.902344 117.378906 L 250.90625 117.378906 C 250.972656 117.34375 251.054688 117.371094 251.089844 117.441406 C 251.121094 117.507812 251.09375 117.589844 251.027344 117.621094 C 248.914062 118.714844 246.691406 119.597656 244.40625 120.261719 C 243.835938 120.441406 243.257812 120.582031 242.683594 120.738281 C 242.101562 120.871094 241.527344 121.019531 240.941406 121.136719 C 239.777344 121.386719 238.601562 121.585938 237.425781 121.75 C 235.066406 122.082031 232.683594 122.246094 230.304688 122.292969 C 229.113281 122.3125 227.921875 122.300781 226.730469 122.25 C 225.539062 122.203125 224.355469 122.121094 223.152344 121.980469 C 222.957031 121.957031 222.820312 121.777344 222.84375 121.582031 C 222.867188 121.386719 223.042969 121.246094 223.238281 121.269531 C 223.238281 121.269531 223.242188 121.273438 223.242188 121.273438 Z M 223.253906 121.273438 " fill-opacity="1" fill-rule="nonzero"/><path fill="#ffed70" d="M 232.808594 145.484375 C 233.363281 146.308594 233.996094 147.121094 234.648438 147.894531 C 235.304688 148.671875 235.992188 149.421875 236.710938 150.144531 C 238.144531 151.585938 239.699219 152.914062 241.351562 154.105469 C 242.183594 154.691406 243.035156 155.253906 243.914062 155.769531 C 244.132812 155.902344 244.359375 156.019531 244.582031 156.144531 C 244.804688 156.269531 245.027344 156.394531 245.253906 156.507812 L 245.933594 156.855469 L 246.628906 157.179688 C 246.855469 157.289062 247.089844 157.390625 247.328125 157.488281 C 247.5625 157.585938 247.796875 157.691406 248.03125 157.78125 C 248.511719 157.960938 248.984375 158.152344 249.472656 158.304688 C 250.433594 158.644531 251.425781 158.890625 252.421875 159.125 L 252.425781 159.125 C 252.5 159.140625 252.542969 159.214844 252.527344 159.289062 C 252.511719 159.363281 252.4375 159.40625 252.363281 159.390625 C 251.355469 159.175781 250.347656 158.941406 249.367188 158.617188 C 248.871094 158.472656 248.390625 158.285156 247.902344 158.113281 C 247.660156 158.023438 247.421875 157.925781 247.183594 157.828125 C 246.945312 157.734375 246.703125 157.636719 246.46875 157.527344 L 245.761719 157.214844 L 245.066406 156.871094 C 244.832031 156.761719 244.605469 156.640625 244.378906 156.515625 C 244.152344 156.394531 243.917969 156.277344 243.695312 156.148438 C 242.796875 155.644531 241.921875 155.089844 241.066406 154.507812 C 239.367188 153.332031 237.769531 152.011719 236.285156 150.570312 C 235.542969 149.851562 234.828125 149.101562 234.148438 148.320312 C 233.464844 147.539062 232.816406 146.746094 232.210938 145.875 C 232.097656 145.714844 232.140625 145.492188 232.300781 145.378906 C 232.460938 145.269531 232.683594 145.308594 232.796875 145.46875 C 232.796875 145.472656 232.800781 145.472656 232.800781 145.472656 Z M 232.808594 145.484375 " fill-opacity="1" fill-rule="nonzero"/><path fill="#ffed70" d="M 223.777344 146.988281 C 224.257812 147.90625 224.816406 148.816406 225.398438 149.691406 C 225.984375 150.570312 226.609375 151.425781 227.269531 152.253906 C 228.589844 153.902344 230.039062 155.457031 231.640625 156.839844 C 232.441406 157.535156 233.269531 158.191406 234.144531 158.792969 C 234.359375 158.945312 234.574219 159.09375 234.800781 159.234375 C 235.023438 159.378906 235.242188 159.523438 235.46875 159.664062 C 235.925781 159.929688 236.378906 160.207031 236.851562 160.445312 C 238.714844 161.449219 240.722656 162.175781 242.792969 162.640625 C 242.867188 162.660156 242.914062 162.730469 242.898438 162.804688 C 242.882812 162.878906 242.808594 162.925781 242.738281 162.910156 C 240.636719 162.476562 238.582031 161.773438 236.671875 160.785156 C 236.1875 160.550781 235.726562 160.277344 235.257812 160.015625 C 235.027344 159.878906 234.800781 159.734375 234.570312 159.59375 C 234.339844 159.453125 234.117188 159.304688 233.894531 159.152344 C 233 158.558594 232.144531 157.90625 231.320312 157.214844 C 229.671875 155.835938 228.171875 154.285156 226.800781 152.628906 C 226.117188 151.800781 225.46875 150.945312 224.855469 150.0625 C 224.550781 149.621094 224.25 149.171875 223.964844 148.714844 C 223.679688 148.253906 223.40625 147.800781 223.144531 147.308594 C 223.050781 147.136719 223.117188 146.921875 223.289062 146.828125 C 223.464844 146.734375 223.679688 146.800781 223.773438 146.972656 L 223.773438 146.976562 Z M 223.777344 146.988281 " fill-opacity="1" fill-rule="nonzero"/><path fill="#ffed70" d="M 253.960938 143.519531 C 254.332031 143.0625 254.730469 142.695312 255.15625 142.335938 C 255.574219 141.972656 256.019531 141.648438 256.46875 141.332031 C 257.378906 140.710938 258.339844 140.183594 259.328125 139.707031 L 260.070312 139.363281 C 260.324219 139.253906 260.578125 139.15625 260.832031 139.050781 C 261.332031 138.835938 261.855469 138.671875 262.367188 138.484375 C 262.882812 138.308594 263.410156 138.164062 263.929688 138 L 265.515625 137.597656 C 265.578125 137.582031 265.644531 137.621094 265.660156 137.683594 C 265.675781 137.746094 265.636719 137.808594 265.578125 137.824219 L 265.570312 137.828125 L 264.007812 138.265625 C 263.496094 138.4375 262.976562 138.589844 262.46875 138.777344 C 261.96875 138.976562 261.453125 139.148438 260.964844 139.375 C 260.71875 139.480469 260.46875 139.585938 260.222656 139.699219 L 259.496094 140.054688 C 258.539062 140.542969 257.605469 141.085938 256.734375 141.710938 C 256.304688 142.027344 255.878906 142.351562 255.484375 142.710938 C 255.089844 143.058594 254.695312 143.445312 254.390625 143.835938 L 254.378906 143.851562 C 254.289062 143.96875 254.121094 143.988281 254.003906 143.898438 C 253.886719 143.808594 253.867188 143.640625 253.957031 143.523438 C 253.957031 143.523438 253.960938 143.519531 253.960938 143.519531 Z M 253.960938 143.519531 " fill-opacity="1" fill-rule="nonzero"/><path fill="#ffed70" d="M 241.089844 144.15625 C 241.414062 143.425781 241.800781 142.769531 242.21875 142.117188 C 242.640625 141.472656 243.097656 140.851562 243.582031 140.253906 C 244.558594 139.0625 245.644531 137.960938 246.832031 136.988281 C 247.425781 136.5 248.039062 136.035156 248.675781 135.609375 C 249.3125 135.175781 249.96875 134.78125 250.640625 134.410156 C 251.988281 133.675781 253.398438 133.0625 254.851562 132.570312 C 254.910156 132.550781 254.980469 132.582031 255 132.644531 C 255.019531 132.707031 254.988281 132.773438 254.925781 132.792969 C 253.496094 133.304688 252.113281 133.933594 250.792969 134.679688 C 250.136719 135.058594 249.492188 135.457031 248.875 135.894531 C 248.253906 136.328125 247.65625 136.792969 247.082031 137.28125 C 245.925781 138.261719 244.878906 139.359375 243.941406 140.539062 C 243.476562 141.132812 243.039062 141.75 242.640625 142.386719 C 242.246094 143.019531 241.867188 143.6875 241.585938 144.355469 L 241.578125 144.367188 C 241.519531 144.503906 241.363281 144.566406 241.226562 144.511719 C 241.09375 144.453125 241.027344 144.296875 241.085938 144.160156 C 241.089844 144.160156 241.089844 144.15625 241.089844 144.15625 Z M 241.089844 144.15625 " fill-opacity="1" fill-rule="nonzero"/><path fill="#ffed70" d="M 227.816406 145.820312 C 228.75 144.226562 229.847656 142.785156 231.019531 141.394531 L 231.460938 140.875 C 231.609375 140.703125 231.765625 140.539062 231.917969 140.371094 C 232.226562 140.035156 232.523438 139.691406 232.847656 139.375 C 233.167969 139.050781 233.480469 138.722656 233.804688 138.40625 L 234.796875 137.472656 C 234.957031 137.3125 235.128906 137.164062 235.300781 137.015625 L 235.816406 136.570312 C 236.15625 136.269531 236.496094 135.96875 236.855469 135.695312 L 237.921875 134.84375 C 238.28125 134.570312 238.652344 134.308594 239.015625 134.039062 C 239.738281 133.492188 240.511719 133.011719 241.265625 132.511719 C 241.640625 132.25 242.039062 132.035156 242.425781 131.800781 L 243.597656 131.109375 C 243.652344 131.078125 243.726562 131.09375 243.757812 131.152344 C 243.792969 131.207031 243.773438 131.277344 243.71875 131.3125 L 243.714844 131.316406 L 242.558594 132.019531 C 242.175781 132.257812 241.78125 132.476562 241.414062 132.738281 C 240.671875 133.25 239.910156 133.734375 239.203125 134.289062 C 238.84375 134.5625 238.476562 134.824219 238.125 135.101562 L 237.078125 135.960938 C 236.726562 136.238281 236.394531 136.542969 236.058594 136.84375 L 235.554688 137.292969 C 235.386719 137.441406 235.21875 137.59375 235.058594 137.75 L 234.089844 138.691406 C 233.773438 139.011719 233.46875 139.339844 233.15625 139.664062 C 232.839844 139.984375 232.550781 140.328125 232.25 140.660156 C 232.101562 140.832031 231.949219 140.996094 231.804688 141.167969 L 231.375 141.6875 C 230.238281 143.070312 229.160156 144.535156 228.289062 146.074219 L 228.28125 146.085938 C 228.207031 146.214844 228.042969 146.257812 227.917969 146.1875 C 227.789062 146.113281 227.742188 145.953125 227.816406 145.824219 C 227.816406 145.824219 227.816406 145.820312 227.816406 145.820312 Z M 227.816406 145.820312 " fill-opacity="1" fill-rule="nonzero"/><path fill="#ffed70" d="M 193.214844 136.070312 C 193.441406 135.535156 193.691406 135.050781 193.964844 134.5625 C 194.105469 134.320312 194.25 134.082031 194.394531 133.84375 C 194.546875 133.613281 194.695312 133.378906 194.855469 133.152344 C 195.488281 132.238281 196.203125 131.378906 197.003906 130.605469 C 197.800781 129.832031 198.664062 129.113281 199.617188 128.535156 L 199.96875 128.3125 C 200.089844 128.242188 200.214844 128.179688 200.335938 128.113281 L 201.078125 127.726562 L 201.847656 127.402344 L 202.230469 127.242188 L 202.609375 127.097656 C 204.640625 126.300781 206.65625 125.457031 208.636719 124.550781 C 209.628906 124.097656 210.613281 123.628906 211.578125 123.125 C 212.539062 122.617188 213.496094 122.097656 214.382812 121.472656 C 214.453125 121.425781 214.546875 121.441406 214.59375 121.507812 C 214.644531 121.578125 214.625 121.671875 214.558594 121.71875 C 213.664062 122.371094 212.707031 122.914062 211.746094 123.4375 C 210.78125 123.964844 209.796875 124.449219 208.808594 124.917969 C 206.832031 125.859375 204.824219 126.734375 202.796875 127.566406 L 202.414062 127.722656 L 202.046875 127.882812 L 201.308594 128.207031 L 200.605469 128.589844 C 200.488281 128.65625 200.367188 128.71875 200.253906 128.785156 L 199.917969 129.007812 C 199.007812 129.574219 198.191406 130.28125 197.433594 131.035156 C 196.675781 131.792969 195.996094 132.632812 195.402344 133.523438 C 195.25 133.746094 195.113281 133.976562 194.96875 134.199219 C 194.832031 134.429688 194.695312 134.660156 194.566406 134.894531 C 194.3125 135.363281 194.070312 135.851562 193.878906 136.328125 L 193.875 136.34375 C 193.800781 136.523438 193.59375 136.613281 193.410156 136.539062 C 193.226562 136.464844 193.140625 136.257812 193.210938 136.078125 C 193.214844 136.074219 193.214844 136.074219 193.214844 136.070312 Z M 193.214844 136.070312 " fill-opacity="1" fill-rule="nonzero"/><path fill="#ffed70" d="M 194.734375 126.125 C 194.265625 125.453125 193.871094 124.769531 193.492188 124.066406 C 193.117188 123.363281 192.773438 122.644531 192.460938 121.914062 C 191.828125 120.453125 191.328125 118.941406 190.949219 117.398438 C 190.765625 116.625 190.617188 115.847656 190.496094 115.0625 C 190.390625 114.273438 190.304688 113.484375 190.269531 112.691406 C 190.1875 111.105469 190.28125 109.515625 190.527344 107.949219 C 190.539062 107.855469 190.628906 107.792969 190.722656 107.804688 C 190.816406 107.820312 190.878906 107.90625 190.867188 107.996094 L 190.867188 108 C 190.65625 109.546875 190.59375 111.113281 190.703125 112.667969 C 190.753906 113.445312 190.855469 114.21875 190.972656 114.988281 C 191.105469 115.753906 191.269531 116.515625 191.460938 117.269531 C 191.863281 118.773438 192.382812 120.246094 193.027344 121.664062 C 193.347656 122.371094 193.699219 123.070312 194.078125 123.746094 C 194.457031 124.421875 194.867188 125.09375 195.304688 125.703125 L 195.316406 125.714844 C 195.429688 125.875 195.394531 126.097656 195.234375 126.210938 C 195.074219 126.328125 194.851562 126.292969 194.734375 126.132812 C 194.734375 126.128906 194.734375 126.128906 194.734375 126.125 Z M 194.734375 126.125 " fill-opacity="1" fill-rule="nonzero"/><path fill="#ffed70" d="M 198.757812 118.503906 C 198.546875 118.035156 198.40625 117.597656 198.273438 117.132812 C 198.144531 116.675781 198.03125 116.214844 197.945312 115.75 C 197.765625 114.820312 197.664062 113.878906 197.613281 112.9375 C 197.519531 111.054688 197.660156 109.167969 197.992188 107.320312 C 198.316406 105.472656 198.828125 103.664062 199.476562 101.910156 C 200.121094 100.152344 200.902344 98.453125 201.792969 96.808594 C 201.835938 96.726562 201.941406 96.695312 202.023438 96.738281 C 202.109375 96.785156 202.140625 96.886719 202.09375 96.96875 C 201.242188 98.613281 200.496094 100.3125 199.886719 102.054688 C 199.277344 103.796875 198.800781 105.589844 198.511719 107.40625 C 198.21875 109.226562 198.113281 111.070312 198.234375 112.902344 C 198.296875 113.8125 198.410156 114.722656 198.597656 115.617188 C 198.691406 116.0625 198.804688 116.503906 198.933594 116.9375 C 199 117.15625 199.070312 117.371094 199.148438 117.582031 C 199.222656 117.789062 199.308594 118.007812 199.398438 118.191406 L 199.402344 118.203125 C 199.488281 118.382812 199.414062 118.59375 199.234375 118.679688 C 199.058594 118.765625 198.84375 118.6875 198.757812 118.511719 C 198.757812 118.507812 198.757812 118.507812 198.757812 118.503906 Z M 198.757812 118.503906 " fill-opacity="1" fill-rule="nonzero"/><path fill="#ffed70" d="M 199.3125 117.949219 C 200.8125 117.820312 202.332031 117.609375 203.828125 117.347656 C 205.324219 117.082031 206.8125 116.757812 208.285156 116.371094 C 209.753906 115.980469 211.203125 115.507812 212.621094 114.960938 C 214.035156 114.394531 215.402344 113.730469 216.707031 112.945312 L 216.710938 112.945312 C 216.769531 112.910156 216.84375 112.925781 216.878906 112.984375 C 216.914062 113.042969 216.898438 113.117188 216.839844 113.152344 C 215.542969 113.980469 214.171875 114.6875 212.761719 115.296875 C 211.339844 115.886719 209.890625 116.398438 208.414062 116.835938 C 206.9375 117.261719 205.445312 117.628906 203.9375 117.933594 C 202.429688 118.234375 200.917969 118.488281 199.375 118.65625 C 199.179688 118.679688 199 118.539062 198.980469 118.34375 C 198.957031 118.148438 199.097656 117.972656 199.296875 117.949219 C 199.296875 117.949219 199.300781 117.949219 199.300781 117.949219 Z M 199.3125 117.949219 " fill-opacity="1" fill-rule="nonzero"/><path fill="#ffed70" d="M 161.179688 120.933594 C 160.964844 120.3125 160.6875 119.675781 160.398438 119.058594 C 160.101562 118.441406 159.789062 117.832031 159.449219 117.238281 C 158.769531 116.046875 158.023438 114.890625 157.179688 113.800781 C 156.34375 112.714844 155.449219 111.664062 154.464844 110.699219 L 153.917969 110.152344 L 153.726562 109.980469 L 152.953125 109.289062 C 152.703125 109.054688 152.425781 108.847656 152.160156 108.628906 L 151.351562 107.984375 L 151.34375 107.980469 C 151.289062 107.9375 151.28125 107.859375 151.324219 107.808594 C 151.367188 107.753906 151.441406 107.746094 151.496094 107.785156 L 152.328125 108.414062 C 152.605469 108.625 152.890625 108.824219 153.152344 109.058594 L 153.949219 109.730469 L 154.148438 109.902344 L 154.339844 110.082031 L 154.71875 110.4375 C 155.742188 111.386719 156.679688 112.425781 157.558594 113.507812 C 158.445312 114.585938 159.238281 115.742188 159.964844 116.9375 C 160.6875 118.136719 161.339844 119.367188 161.855469 120.707031 C 161.929688 120.890625 161.835938 121.09375 161.652344 121.167969 C 161.46875 121.238281 161.261719 121.148438 161.191406 120.960938 C 161.1875 120.960938 161.1875 120.957031 161.1875 120.953125 Z M 161.179688 120.933594 " fill-opacity="1" fill-rule="nonzero"/><path fill="#ffed70" d="M 163.039062 147.375 C 162.472656 146.648438 161.808594 145.945312 161.136719 145.28125 C 160.457031 144.617188 159.746094 143.984375 159.007812 143.378906 C 157.53125 142.175781 155.953125 141.089844 154.289062 140.152344 C 153.875 139.910156 153.453125 139.695312 153.03125 139.46875 C 152.601562 139.257812 152.175781 139.035156 151.742188 138.84375 C 150.875 138.433594 149.984375 138.082031 149.089844 137.746094 C 147.289062 137.097656 145.4375 136.589844 143.554688 136.230469 C 143.488281 136.21875 143.441406 136.15625 143.453125 136.085938 C 143.46875 136.023438 143.53125 135.976562 143.597656 135.988281 C 145.5 136.308594 147.378906 136.785156 149.210938 137.40625 C 150.125 137.726562 151.03125 138.0625 151.914062 138.457031 C 152.359375 138.644531 152.792969 138.863281 153.230469 139.066406 C 153.664062 139.285156 154.097656 139.5 154.523438 139.734375 C 156.226562 140.652344 157.851562 141.722656 159.382812 142.914062 C 160.144531 143.511719 160.882812 144.144531 161.59375 144.808594 C 162.300781 145.480469 162.976562 146.164062 163.609375 146.941406 C 163.730469 147.097656 163.707031 147.320312 163.554688 147.445312 C 163.402344 147.566406 163.179688 147.542969 163.054688 147.390625 C 163.054688 147.390625 163.050781 147.390625 163.050781 147.386719 Z M 163.039062 147.375 " fill-opacity="1" fill-rule="nonzero"/><path fill="#ffed70" d="M 152.886719 149.253906 C 152.835938 149.171875 152.753906 149.0625 152.683594 148.964844 C 152.605469 148.863281 152.53125 148.761719 152.445312 148.664062 C 152.285156 148.46875 152.113281 148.277344 151.933594 148.089844 C 151.574219 147.714844 151.191406 147.363281 150.789062 147.027344 C 149.984375 146.367188 149.113281 145.773438 148.199219 145.25 C 146.367188 144.207031 144.371094 143.453125 142.324219 142.890625 C 140.269531 142.339844 138.160156 141.996094 136.035156 141.800781 C 133.910156 141.605469 131.769531 141.574219 129.628906 141.652344 C 129.542969 141.65625 129.472656 141.585938 129.46875 141.503906 C 129.464844 141.417969 129.53125 141.347656 129.617188 141.34375 C 131.761719 141.21875 133.917969 141.199219 136.070312 141.347656 C 138.222656 141.496094 140.367188 141.796875 142.472656 142.3125 C 144.574219 142.835938 146.636719 143.5625 148.558594 144.597656 C 149.519531 145.117188 150.441406 145.714844 151.308594 146.394531 C 151.734375 146.738281 152.152344 147.101562 152.546875 147.492188 C 152.742188 147.6875 152.933594 147.890625 153.117188 148.105469 C 153.207031 148.207031 153.296875 148.320312 153.386719 148.429688 C 153.472656 148.546875 153.554688 148.648438 153.648438 148.792969 C 153.78125 149 153.722656 149.273438 153.515625 149.410156 C 153.308594 149.542969 153.03125 149.484375 152.898438 149.277344 C 152.898438 149.273438 152.894531 149.273438 152.894531 149.269531 Z M 152.886719 149.253906 " fill-opacity="1" fill-rule="nonzero"/><path fill="#ffed70" d="M 139.570312 153.820312 C 139.496094 153.753906 139.382812 153.675781 139.292969 153.601562 C 139.191406 153.53125 139.085938 153.460938 138.984375 153.390625 C 138.78125 153.246094 138.554688 153.128906 138.339844 152.996094 C 137.894531 152.75 137.445312 152.511719 136.972656 152.316406 C 136.511719 152.097656 136.023438 151.941406 135.542969 151.757812 C 135.425781 151.710938 135.304688 151.675781 135.179688 151.640625 L 134.808594 151.53125 L 134.070312 151.316406 C 132.078125 150.796875 130.007812 150.578125 127.941406 150.53125 L 127.167969 150.523438 C 126.90625 150.523438 126.648438 150.503906 126.390625 150.527344 L 124.835938 150.609375 C 124.578125 150.625 124.316406 150.625 124.058594 150.65625 L 123.285156 150.75 L 121.738281 150.929688 C 121.226562 151 120.714844 151.109375 120.203125 151.195312 C 119.691406 151.289062 119.179688 151.375 118.667969 151.476562 L 115.632812 152.210938 L 115.625 152.210938 C 115.550781 152.230469 115.476562 152.183594 115.460938 152.109375 C 115.441406 152.039062 115.484375 151.964844 115.558594 151.945312 L 118.59375 151.144531 C 119.105469 151.035156 119.621094 150.933594 120.132812 150.828125 C 120.648438 150.730469 121.160156 150.613281 121.675781 150.53125 L 123.234375 150.3125 L 124.015625 150.207031 C 124.273438 150.167969 124.539062 150.164062 124.800781 150.140625 L 126.371094 150.023438 C 126.632812 149.996094 126.898438 150.011719 127.160156 150.003906 L 127.949219 150 C 130.050781 150.003906 132.167969 150.179688 134.230469 150.671875 L 135 150.878906 L 135.382812 150.984375 C 135.511719 151.015625 135.640625 151.050781 135.765625 151.097656 C 136.265625 151.277344 136.773438 151.425781 137.261719 151.648438 C 137.757812 151.84375 138.238281 152.082031 138.714844 152.332031 C 138.945312 152.46875 139.183594 152.589844 139.410156 152.742188 C 139.644531 152.890625 139.859375 153.03125 140.09375 153.226562 C 140.265625 153.363281 140.292969 153.613281 140.152344 153.785156 C 140.011719 153.953125 139.761719 153.980469 139.59375 153.839844 C 139.589844 153.835938 139.585938 153.832031 139.582031 153.832031 Z M 139.570312 153.820312 " fill-opacity="1" fill-rule="nonzero"/><path fill="#ffed70" d="M 128.78125 158.554688 C 128.203125 159.65625 127.566406 160.695312 126.890625 161.722656 C 126.214844 162.742188 125.492188 163.734375 124.726562 164.691406 C 123.96875 165.652344 123.136719 166.558594 122.269531 167.425781 C 121.402344 168.289062 120.457031 169.074219 119.472656 169.804688 C 119.417969 169.847656 119.339844 169.835938 119.300781 169.78125 C 119.261719 169.726562 119.269531 169.652344 119.324219 169.609375 L 119.328125 169.605469 C 120.277344 168.855469 121.183594 168.050781 122.011719 167.171875 C 122.835938 166.285156 123.628906 165.371094 124.347656 164.398438 C 125.074219 163.429688 125.753906 162.429688 126.390625 161.402344 C 127.019531 160.375 127.621094 159.3125 128.140625 158.242188 L 128.144531 158.234375 C 128.230469 158.054688 128.441406 157.980469 128.621094 158.066406 C 128.796875 158.152344 128.871094 158.367188 128.785156 158.542969 C 128.78125 158.546875 128.78125 158.550781 128.78125 158.554688 Z M 128.78125 158.554688 " fill-opacity="1" fill-rule="nonzero"/><path fill="#ffed70" d="M 140.339844 153.824219 C 140.175781 154.632812 139.941406 155.375 139.683594 156.125 C 139.425781 156.875 139.132812 157.601562 138.828125 158.328125 C 138.210938 159.777344 137.503906 161.179688 136.746094 162.550781 L 136.167969 163.574219 L 135.558594 164.578125 C 135.160156 165.253906 134.71875 165.898438 134.296875 166.558594 C 133.867188 167.210938 133.40625 167.847656 132.960938 168.488281 L 131.5625 170.371094 C 131.523438 170.425781 131.445312 170.4375 131.390625 170.398438 C 131.335938 170.359375 131.324219 170.28125 131.363281 170.226562 L 131.367188 170.222656 L 132.710938 168.3125 C 133.136719 167.664062 133.578125 167.019531 133.992188 166.359375 C 134.394531 165.695312 134.820312 165.042969 135.195312 164.363281 L 135.773438 163.351562 L 136.324219 162.320312 C 137.039062 160.945312 137.703125 159.539062 138.277344 158.101562 C 138.558594 157.378906 138.828125 156.65625 139.058594 155.917969 C 139.292969 155.191406 139.503906 154.429688 139.636719 153.707031 L 139.640625 153.6875 C 139.675781 153.496094 139.863281 153.367188 140.054688 153.402344 C 140.25 153.4375 140.378906 153.621094 140.34375 153.816406 C 140.34375 153.820312 140.34375 153.824219 140.339844 153.824219 Z M 140.339844 153.824219 " fill-opacity="1" fill-rule="nonzero"/><path fill="#ffed70" d="M 152.828125 149.796875 C 152.683594 150.796875 152.449219 151.726562 152.179688 152.664062 L 151.96875 153.363281 C 151.894531 153.59375 151.8125 153.824219 151.734375 154.054688 C 151.652344 154.28125 151.582031 154.515625 151.492188 154.738281 L 151.230469 155.417969 C 150.519531 157.222656 149.660156 158.960938 148.707031 160.644531 C 148.199219 161.46875 147.722656 162.308594 147.167969 163.097656 C 146.894531 163.496094 146.632812 163.90625 146.351562 164.296875 L 145.484375 165.457031 L 145.046875 166.035156 L 144.585938 166.59375 L 143.664062 167.707031 C 143.515625 167.898438 143.347656 168.074219 143.1875 168.25 L 142.699219 168.785156 L 141.71875 169.851562 C 141.675781 169.902344 141.597656 169.902344 141.546875 169.859375 C 141.496094 169.8125 141.492188 169.734375 141.535156 169.683594 L 141.539062 169.679688 L 142.492188 168.601562 L 142.964844 168.058594 C 143.125 167.878906 143.285156 167.703125 143.429688 167.511719 L 144.324219 166.386719 L 144.773438 165.824219 L 145.191406 165.238281 L 146.027344 164.070312 C 146.300781 163.679688 146.550781 163.269531 146.8125 162.871094 C 147.351562 162.078125 147.804688 161.234375 148.289062 160.410156 C 149.199219 158.726562 150.011719 156.996094 150.671875 155.207031 L 150.917969 154.535156 C 151 154.3125 151.066406 154.082031 151.140625 153.855469 C 151.214844 153.628906 151.289062 153.40625 151.355469 153.175781 L 151.546875 152.488281 C 151.617188 152.261719 151.671875 152.03125 151.726562 151.800781 C 151.78125 151.570312 151.839844 151.339844 151.882812 151.105469 C 151.929688 150.875 151.980469 150.644531 152.015625 150.414062 C 152.058594 150.183594 152.09375 149.945312 152.117188 149.726562 L 152.121094 149.707031 C 152.140625 149.511719 152.316406 149.371094 152.511719 149.394531 C 152.710938 149.414062 152.851562 149.59375 152.828125 149.789062 C 152.828125 149.789062 152.828125 149.792969 152.828125 149.796875 Z M 152.828125 149.796875 " fill-opacity="1" fill-rule="nonzero"/><path fill="#ffed70" d="M 165.195312 148.316406 C 165.234375 148.847656 165.234375 149.34375 165.222656 149.855469 C 165.210938 150.363281 165.175781 150.867188 165.132812 151.371094 C 165.039062 152.378906 164.890625 153.378906 164.6875 154.371094 C 164.28125 156.347656 163.683594 158.285156 162.890625 160.136719 C 162.496094 161.0625 162.066406 161.972656 161.582031 162.855469 C 161.347656 163.300781 161.085938 163.730469 160.832031 164.164062 C 160.703125 164.382812 160.5625 164.589844 160.429688 164.804688 C 160.296875 165.015625 160.164062 165.230469 160.019531 165.4375 C 158.894531 167.101562 157.625 168.667969 156.238281 170.117188 C 156.191406 170.167969 156.113281 170.167969 156.0625 170.121094 C 156.015625 170.074219 156.011719 169.996094 156.058594 169.945312 C 157.410156 168.484375 158.636719 166.90625 159.714844 165.238281 C 159.855469 165.03125 159.980469 164.816406 160.109375 164.605469 C 160.238281 164.390625 160.371094 164.179688 160.492188 163.964844 C 160.734375 163.53125 160.988281 163.101562 161.207031 162.660156 C 161.667969 161.78125 162.078125 160.875 162.449219 159.953125 C 163.191406 158.117188 163.742188 156.203125 164.101562 154.257812 C 164.28125 153.285156 164.40625 152.304688 164.480469 151.320312 C 164.511719 150.828125 164.535156 150.335938 164.539062 149.84375 C 164.542969 149.355469 164.53125 148.855469 164.484375 148.390625 L 164.484375 148.375 C 164.464844 148.179688 164.609375 148.003906 164.804688 147.988281 C 165.003906 147.96875 165.175781 148.113281 165.195312 148.308594 C 165.195312 148.308594 165.195312 148.3125 165.195312 148.316406 Z M 165.195312 148.316406 " fill-opacity="1" fill-rule="nonzero"/><path fill="#ffed70" d="M 136.875 119.832031 C 136.773438 119.71875 136.640625 119.589844 136.515625 119.472656 C 136.390625 119.351562 136.246094 119.242188 136.113281 119.125 C 135.835938 118.90625 135.554688 118.6875 135.253906 118.496094 C 134.960938 118.289062 134.648438 118.113281 134.339844 117.929688 C 134.03125 117.75 133.707031 117.597656 133.386719 117.429688 C 132.09375 116.804688 130.714844 116.355469 129.3125 116.011719 C 128.960938 115.929688 128.609375 115.84375 128.257812 115.769531 L 127.1875 115.585938 L 126.652344 115.496094 L 126.113281 115.4375 L 125.03125 115.324219 C 124.851562 115.296875 124.671875 115.292969 124.488281 115.285156 L 122.859375 115.203125 L 120.679688 115.21875 L 120.675781 115.21875 C 120.625 115.21875 120.582031 115.179688 120.582031 115.128906 C 120.582031 115.078125 120.621094 115.035156 120.671875 115.035156 L 122.863281 114.976562 L 124.503906 115.023438 C 124.6875 115.03125 124.871094 115.03125 125.050781 115.050781 L 126.144531 115.148438 L 126.691406 115.195312 L 127.234375 115.273438 L 128.320312 115.4375 C 128.679688 115.503906 129.035156 115.585938 129.394531 115.660156 C 130.824219 115.980469 132.238281 116.414062 133.578125 117.027344 C 133.90625 117.191406 134.246094 117.339844 134.566406 117.519531 C 134.886719 117.703125 135.214844 117.875 135.523438 118.085938 C 135.839844 118.28125 136.136719 118.5 136.433594 118.726562 C 136.726562 118.964844 137.007812 119.191406 137.28125 119.488281 C 137.382812 119.597656 137.375 119.765625 137.265625 119.867188 C 137.15625 119.964844 136.988281 119.957031 136.886719 119.851562 C 136.886719 119.847656 136.886719 119.847656 136.886719 119.847656 Z M 136.875 119.832031 " fill-opacity="1" fill-rule="nonzero"/><path fill="#ffed70" d="M 150.40625 118.921875 C 149.988281 118.179688 149.464844 117.457031 148.921875 116.769531 C 148.375 116.082031 147.785156 115.429688 147.160156 114.804688 C 145.914062 113.566406 144.527344 112.457031 143.03125 111.519531 C 142.664062 111.277344 142.277344 111.0625 141.894531 110.839844 C 141.703125 110.734375 141.503906 110.636719 141.3125 110.53125 C 141.117188 110.425781 140.917969 110.328125 140.71875 110.234375 C 139.925781 109.839844 139.105469 109.515625 138.273438 109.210938 C 136.605469 108.628906 134.875 108.214844 133.117188 107.976562 C 133.066406 107.972656 133.03125 107.925781 133.039062 107.875 C 133.046875 107.824219 133.089844 107.789062 133.140625 107.792969 C 134.914062 108.003906 136.667969 108.390625 138.363281 108.953125 C 139.207031 109.246094 140.046875 109.5625 140.855469 109.949219 C 141.058594 110.039062 141.261719 110.136719 141.460938 110.238281 C 141.660156 110.339844 141.859375 110.4375 142.058594 110.542969 C 142.449219 110.761719 142.84375 110.976562 143.222656 111.210938 C 144.757812 112.136719 146.183594 113.242188 147.472656 114.488281 C 148.121094 115.109375 148.730469 115.765625 149.304688 116.460938 C 149.875 117.160156 150.410156 117.871094 150.878906 118.667969 C 150.953125 118.792969 150.910156 118.957031 150.78125 119.03125 C 150.652344 119.105469 150.488281 119.0625 150.414062 118.9375 C 150.414062 118.9375 150.414062 118.933594 150.414062 118.933594 Z M 150.40625 118.921875 " fill-opacity="1" fill-rule="nonzero"/><path fill="#ffed70" d="M 127.0625 123.597656 C 126.761719 124.574219 126.40625 125.515625 126.023438 126.453125 C 125.640625 127.382812 125.230469 128.304688 124.785156 129.210938 C 124.339844 130.113281 123.871094 131.007812 123.367188 131.878906 C 122.867188 132.753906 122.320312 133.601562 121.765625 134.441406 C 121.738281 134.480469 121.679688 134.492188 121.636719 134.464844 C 121.59375 134.4375 121.582031 134.382812 121.609375 134.339844 L 121.609375 134.335938 C 122.140625 133.488281 122.660156 132.632812 123.125 131.746094 C 123.605469 130.867188 124.042969 129.96875 124.460938 129.058594 C 124.875 128.148438 125.253906 127.222656 125.605469 126.289062 C 125.957031 125.355469 126.28125 124.402344 126.546875 123.457031 L 126.550781 123.449219 C 126.589844 123.304688 126.734375 123.222656 126.878906 123.261719 C 127.019531 123.300781 127.105469 123.449219 127.0625 123.589844 C 127.0625 123.59375 127.0625 123.597656 127.0625 123.597656 Z M 127.0625 123.597656 " fill-opacity="1" fill-rule="nonzero"/><path fill="#ffed70" d="M 126.117188 123.496094 C 125.117188 123.089844 124.035156 122.789062 122.957031 122.5625 C 122.683594 122.511719 122.414062 122.453125 122.140625 122.410156 L 121.320312 122.285156 L 120.492188 122.191406 C 120.21875 122.15625 119.941406 122.152344 119.664062 122.132812 L 119.25 122.105469 L 118.835938 122.097656 C 118.558594 122.097656 118.28125 122.085938 118.003906 122.09375 C 117.449219 122.121094 116.894531 122.125 116.34375 122.195312 C 115.234375 122.285156 114.144531 122.519531 113.066406 122.785156 L 113.0625 122.785156 C 113.011719 122.796875 112.960938 122.765625 112.949219 122.71875 C 112.9375 122.667969 112.964844 122.617188 113.015625 122.605469 C 114.097656 122.3125 115.191406 122.042969 116.3125 121.925781 C 116.867188 121.839844 117.429688 121.820312 117.992188 121.777344 C 118.273438 121.765625 118.554688 121.765625 118.835938 121.761719 L 119.257812 121.757812 L 119.679688 121.773438 C 119.960938 121.785156 120.246094 121.785156 120.523438 121.8125 L 121.367188 121.882812 L 122.207031 121.988281 C 122.484375 122.027344 122.761719 122.082031 123.042969 122.125 C 124.15625 122.328125 125.246094 122.597656 126.324219 123.003906 C 126.464844 123.054688 126.535156 123.207031 126.484375 123.347656 C 126.429688 123.484375 126.277344 123.554688 126.136719 123.503906 C 126.136719 123.503906 126.136719 123.5 126.132812 123.5 Z M 126.117188 123.496094 " fill-opacity="1" fill-rule="nonzero"/><path fill="#ffed70" d="M 137.589844 119.875 C 137.496094 120.605469 137.246094 121.273438 136.96875 121.914062 C 136.6875 122.554688 136.355469 123.167969 136.011719 123.769531 C 135.3125 124.96875 134.535156 126.113281 133.71875 127.226562 C 132.085938 129.449219 130.316406 131.566406 128.441406 133.589844 C 128.410156 133.628906 128.347656 133.628906 128.3125 133.59375 C 128.273438 133.5625 128.273438 133.503906 128.304688 133.464844 C 130.128906 131.410156 131.851562 129.261719 133.425781 127.015625 C 134.210938 125.894531 134.957031 124.742188 135.621094 123.550781 C 135.949219 122.953125 136.257812 122.347656 136.515625 121.722656 C 136.773438 121.101562 136.988281 120.457031 137.058594 119.820312 L 137.058594 119.8125 C 137.074219 119.664062 137.207031 119.558594 137.355469 119.574219 C 137.5 119.589844 137.609375 119.722656 137.589844 119.871094 C 137.59375 119.871094 137.589844 119.875 137.589844 119.875 Z M 137.589844 119.875 " fill-opacity="1" fill-rule="nonzero"/><path fill="#ffed70" d="M 151.007812 119.253906 C 150.957031 119.667969 150.785156 120.03125 150.582031 120.355469 C 150.378906 120.683594 150.125 120.960938 149.867188 121.230469 C 149.347656 121.753906 148.773438 122.207031 148.1875 122.632812 C 147.011719 123.484375 145.785156 124.238281 144.570312 125 C 143.351562 125.761719 142.132812 126.519531 140.957031 127.339844 C 139.789062 128.160156 138.644531 129.03125 137.671875 130.074219 C 137.636719 130.113281 137.578125 130.113281 137.539062 130.078125 C 137.503906 130.042969 137.5 129.984375 137.535156 129.949219 C 138.503906 128.871094 139.640625 127.96875 140.800781 127.117188 C 141.964844 126.265625 143.171875 125.484375 144.375 124.699219 C 145.578125 123.910156 146.785156 123.132812 147.921875 122.277344 C 148.484375 121.84375 149.035156 121.394531 149.515625 120.890625 C 149.75 120.632812 149.976562 120.371094 150.144531 120.085938 C 150.316406 119.800781 150.445312 119.5 150.476562 119.195312 L 150.476562 119.191406 C 150.492188 119.046875 150.625 118.9375 150.773438 118.953125 C 150.917969 118.96875 151.027344 119.097656 151.011719 119.246094 C 151.011719 119.246094 151.007812 119.25 151.007812 119.253906 Z M 151.007812 119.253906 " fill-opacity="1" fill-rule="nonzero"/><path fill="#ffed70" d="M 170.890625 98.636719 C 170.929688 98.476562 170.96875 98.292969 171 98.113281 C 171.035156 97.9375 171.0625 97.753906 171.089844 97.574219 L 171.128906 97.300781 L 171.15625 97.027344 C 171.175781 96.84375 171.199219 96.664062 171.210938 96.480469 C 171.230469 96.109375 171.265625 95.742188 171.261719 95.375 L 171.269531 94.820312 C 171.273438 94.636719 171.261719 94.453125 171.257812 94.265625 C 171.203125 92.789062 171.019531 91.3125 170.683594 89.867188 C 170.652344 89.683594 170.59375 89.507812 170.546875 89.328125 L 170.402344 88.789062 L 170.257812 88.253906 C 170.199219 88.074219 170.136719 87.902344 170.078125 87.726562 L 169.71875 86.667969 L 169.289062 85.640625 L 169.070312 85.125 C 169 84.953125 168.910156 84.789062 168.828125 84.621094 L 168.328125 83.625 C 168.285156 83.539062 168.246094 83.457031 168.199219 83.375 L 168.058594 83.132812 L 167.773438 82.652344 L 167.203125 81.6875 L 167.199219 81.679688 C 167.164062 81.621094 167.183594 81.546875 167.242188 81.511719 C 167.300781 81.476562 167.375 81.496094 167.410156 81.550781 L 168.011719 82.507812 L 168.3125 82.988281 L 168.460938 83.226562 C 168.507812 83.308594 168.550781 83.394531 168.59375 83.476562 L 169.128906 84.476562 C 169.214844 84.640625 169.308594 84.804688 169.386719 84.976562 L 169.621094 85.492188 L 170.082031 86.527344 L 170.476562 87.589844 C 170.542969 87.765625 170.613281 87.941406 170.671875 88.121094 L 170.835938 88.664062 L 170.996094 89.207031 C 171.050781 89.390625 171.113281 89.570312 171.148438 89.753906 C 171.53125 91.21875 171.761719 92.726562 171.851562 94.242188 C 171.863281 94.429688 171.878906 94.621094 171.882812 94.808594 L 171.886719 95.378906 C 171.902344 95.761719 171.875 96.140625 171.863281 96.523438 C 171.816406 97.289062 171.75 98.035156 171.582031 98.816406 C 171.539062 99.007812 171.347656 99.128906 171.15625 99.089844 C 170.964844 99.046875 170.839844 98.859375 170.882812 98.664062 C 170.882812 98.660156 170.882812 98.660156 170.886719 98.65625 Z M 170.890625 98.636719 " fill-opacity="1" fill-rule="nonzero"/><path fill="#ffed70" d="M 177.148438 105.171875 C 177.453125 104.453125 177.703125 103.667969 177.910156 102.886719 C 178.117188 102.105469 178.285156 101.3125 178.40625 100.507812 C 178.65625 98.90625 178.726562 97.273438 178.625 95.652344 C 178.566406 94.84375 178.460938 94.035156 178.3125 93.238281 C 178.152344 92.441406 177.957031 91.648438 177.703125 90.875 C 177.199219 89.328125 176.488281 87.847656 175.613281 86.46875 L 175.613281 86.464844 C 175.578125 86.410156 175.59375 86.332031 175.652344 86.296875 C 175.707031 86.257812 175.785156 86.277344 175.820312 86.332031 C 176.738281 87.707031 177.496094 89.195312 178.050781 90.757812 C 178.324219 91.542969 178.546875 92.34375 178.726562 93.152344 C 178.898438 93.964844 179.023438 94.789062 179.105469 95.617188 C 179.246094 97.269531 179.214844 98.941406 178.996094 100.59375 C 178.890625 101.417969 178.738281 102.238281 178.542969 103.046875 C 178.449219 103.453125 178.335938 103.855469 178.21875 104.257812 C 178.09375 104.660156 177.964844 105.046875 177.804688 105.457031 C 177.730469 105.636719 177.523438 105.726562 177.339844 105.652344 C 177.15625 105.582031 177.066406 105.375 177.140625 105.191406 C 177.140625 105.1875 177.140625 105.1875 177.144531 105.1875 Z M 177.148438 105.171875 " fill-opacity="1" fill-rule="nonzero"/><path fill="#ffed70" d="M 160.335938 90.640625 C 160.34375 90.515625 160.339844 90.355469 160.332031 90.210938 C 160.328125 90.0625 160.308594 89.910156 160.296875 89.757812 C 160.257812 89.457031 160.21875 89.152344 160.160156 88.851562 C 160.050781 88.25 159.882812 87.652344 159.703125 87.0625 C 159.332031 85.882812 158.820312 84.746094 158.242188 83.644531 L 157.792969 82.824219 L 157.300781 82.027344 L 157.058594 81.628906 C 156.972656 81.5 156.878906 81.371094 156.792969 81.242188 L 156.257812 80.472656 C 155.894531 79.964844 155.5 79.476562 155.121094 78.980469 L 153.902344 77.550781 L 153.898438 77.542969 C 153.851562 77.492188 153.859375 77.414062 153.910156 77.371094 C 153.960938 77.328125 154.039062 77.332031 154.082031 77.382812 L 155.355469 78.785156 C 155.753906 79.273438 156.167969 79.753906 156.550781 80.253906 L 157.113281 81.019531 C 157.207031 81.148438 157.304688 81.273438 157.394531 81.402344 L 157.65625 81.800781 L 158.179688 82.59375 L 158.660156 83.414062 C 159.289062 84.519531 159.84375 85.667969 160.269531 86.875 C 160.472656 87.480469 160.667969 88.09375 160.800781 88.722656 C 160.875 89.035156 160.925781 89.355469 160.972656 89.675781 C 160.992188 89.839844 161.019531 90 161.027344 90.164062 C 161.042969 90.332031 161.050781 90.484375 161.050781 90.675781 C 161.046875 90.871094 160.886719 91.027344 160.6875 91.027344 C 160.492188 91.023438 160.332031 90.863281 160.335938 90.664062 C 160.335938 90.664062 160.335938 90.660156 160.335938 90.65625 Z M 160.335938 90.640625 " fill-opacity="1" fill-rule="nonzero"/><path fill="#ffed70" d="M 161.507812 92.367188 C 161.328125 92.4375 161.164062 92.492188 160.992188 92.542969 C 160.820312 92.597656 160.652344 92.644531 160.480469 92.6875 C 160.3125 92.738281 160.140625 92.773438 159.96875 92.8125 C 159.796875 92.851562 159.625 92.894531 159.453125 92.921875 C 159.109375 92.984375 158.765625 93.046875 158.417969 93.089844 L 157.898438 93.15625 L 157.375 93.199219 C 155.984375 93.3125 154.585938 93.285156 153.203125 93.148438 L 152.171875 93.011719 C 152 92.984375 151.824219 92.96875 151.65625 92.9375 L 151.144531 92.835938 C 150.804688 92.765625 150.464844 92.707031 150.125 92.628906 L 149.121094 92.367188 L 148.617188 92.234375 L 148.125 92.074219 L 147.136719 91.75 C 146.972656 91.699219 146.8125 91.632812 146.652344 91.570312 L 146.171875 91.378906 L 145.207031 90.996094 C 145.144531 90.96875 145.113281 90.898438 145.136719 90.832031 C 145.164062 90.769531 145.234375 90.738281 145.296875 90.761719 L 145.304688 90.765625 L 146.269531 91.121094 L 146.75 91.296875 C 146.910156 91.355469 147.070312 91.417969 147.234375 91.460938 L 148.21875 91.753906 L 148.710938 91.898438 L 149.210938 92.015625 L 150.207031 92.246094 C 150.542969 92.316406 150.882812 92.363281 151.21875 92.421875 L 151.722656 92.503906 C 151.890625 92.535156 152.0625 92.542969 152.230469 92.566406 L 153.246094 92.671875 C 154.605469 92.765625 155.96875 92.753906 157.316406 92.605469 L 157.824219 92.550781 L 158.324219 92.46875 C 158.660156 92.421875 158.988281 92.351562 159.320312 92.28125 C 159.488281 92.25 159.648438 92.203125 159.8125 92.164062 C 159.976562 92.121094 160.136719 92.082031 160.296875 92.03125 C 160.457031 91.984375 160.621094 91.9375 160.773438 91.878906 C 160.929688 91.828125 161.09375 91.769531 161.230469 91.710938 L 161.242188 91.707031 C 161.425781 91.628906 161.636719 91.714844 161.710938 91.898438 C 161.785156 92.078125 161.699219 92.289062 161.519531 92.363281 C 161.515625 92.363281 161.511719 92.367188 161.507812 92.367188 Z M 161.507812 92.367188 " fill-opacity="1" fill-rule="nonzero"/><path fill="#ffed70" d="M 168.34375 96.9375 C 166.789062 97.519531 165.222656 97.902344 163.621094 98.183594 C 163.21875 98.246094 162.820312 98.320312 162.417969 98.371094 L 161.207031 98.511719 L 159.996094 98.597656 L 159.691406 98.621094 L 159.390625 98.625 L 158.78125 98.640625 L 158.175781 98.652344 L 157.566406 98.632812 C 157.160156 98.617188 156.757812 98.617188 156.351562 98.585938 C 155.546875 98.511719 154.738281 98.464844 153.941406 98.320312 C 152.335938 98.109375 150.769531 97.675781 149.230469 97.199219 C 149.164062 97.179688 149.128906 97.113281 149.148438 97.046875 C 149.167969 96.980469 149.234375 96.945312 149.300781 96.964844 L 149.304688 96.964844 C 150.847656 97.398438 152.402344 97.789062 153.992188 97.960938 C 154.78125 98.082031 155.582031 98.109375 156.375 98.167969 C 156.773438 98.183594 157.175781 98.175781 157.574219 98.183594 L 158.171875 98.1875 L 159.367188 98.132812 L 159.664062 98.117188 L 159.960938 98.089844 L 161.152344 97.976562 L 162.335938 97.808594 C 162.730469 97.75 163.117188 97.667969 163.511719 97.601562 C 163.902344 97.527344 164.289062 97.429688 164.675781 97.34375 C 165.0625 97.25 165.445312 97.148438 165.828125 97.042969 C 166.589844 96.824219 167.355469 96.574219 168.066406 96.28125 L 168.085938 96.277344 C 168.265625 96.199219 168.476562 96.285156 168.550781 96.46875 C 168.625 96.652344 168.539062 96.859375 168.355469 96.933594 C 168.351562 96.933594 168.347656 96.9375 168.34375 96.9375 Z M 168.34375 96.9375 " fill-opacity="1" fill-rule="nonzero"/><path fill="#ffed70" d="M 179.253906 150.054688 C 178.222656 150.542969 177.203125 151.132812 176.242188 151.773438 C 175.277344 152.421875 174.355469 153.128906 173.515625 153.921875 C 172.675781 154.714844 171.902344 155.585938 171.292969 156.558594 C 170.988281 157.042969 170.722656 157.546875 170.503906 158.078125 C 170.28125 158.625 170.042969 159.175781 169.761719 159.703125 C 168.660156 161.792969 167.441406 163.820312 166.046875 165.730469 C 165.347656 166.683594 164.605469 167.605469 163.792969 168.46875 C 162.976562 169.328125 162.09375 170.136719 161.082031 170.777344 C 161.015625 170.820312 160.929688 170.796875 160.886719 170.730469 C 160.84375 170.664062 160.863281 170.578125 160.929688 170.535156 C 161.898438 169.898438 162.753906 169.09375 163.542969 168.234375 C 164.328125 167.375 165.050781 166.453125 165.726562 165.5 C 167.078125 163.589844 168.257812 161.558594 169.316406 159.472656 C 169.578125 158.960938 169.800781 158.425781 170.011719 157.882812 C 170.234375 157.320312 170.507812 156.777344 170.824219 156.265625 C 171.449219 155.234375 172.238281 154.320312 173.09375 153.484375 C 173.953125 152.652344 174.890625 151.90625 175.871094 151.230469 C 176.855469 150.550781 177.867188 149.941406 178.957031 149.40625 C 179.132812 149.320312 179.347656 149.394531 179.433594 149.570312 C 179.519531 149.746094 179.445312 149.960938 179.269531 150.046875 C 179.269531 150.046875 179.269531 150.046875 179.265625 150.046875 Z M 179.253906 150.054688 " fill-opacity="1" fill-rule="nonzero"/><path fill="#2dba39" d="M 218.199219 146.75 C 218.191406 146.75 206.328125 149.730469 201.8125 154.125 C 201.8125 154.125 204.722656 141.085938 217.351562 127.964844 C 216.765625 127.453125 216.160156 126.960938 215.609375 126.417969 C 212.769531 128.980469 210.234375 131.445312 208.4375 133.527344 C 208.4375 133.527344 198.808594 146.707031 195.957031 158.457031 L 193.414062 149.6875 C 193.414062 149.6875 193.113281 145.242188 193.679688 139.191406 C 192.800781 139.179688 191.925781 138.960938 191.097656 138.675781 C 190.804688 140.332031 190.578125 142.03125 190.429688 143.765625 L 185.25 135.882812 C 184.539062 134.800781 184.136719 133.542969 184.09375 132.246094 C 183.960938 128.558594 183.5 120.332031 181.894531 113.691406 C 181.347656 113.898438 180.816406 114.207031 180.277344 114.46875 C 180.953125 118.734375 182.03125 126.902344 181.066406 130.5 C 181.066406 130.5 176.230469 126.246094 169.519531 122.910156 C 169.109375 123.746094 168.734375 124.164062 168.09375 124.871094 C 168.140625 124.902344 186 135.011719 189.269531 152.285156 C 189.269531 152.285156 183.210938 147.34375 170.761719 146.714844 C 170.699219 147.515625 170.6875 148.3125 170.695312 149.109375 C 178.363281 149.746094 187.882812 151.609375 190.339844 156.855469 C 190.339844 156.855469 191.898438 159.527344 192.125 163.890625 C 192.125 163.890625 190.207031 223.054688 189.207031 227.730469 C 189.121094 228.148438 199.222656 229.390625 199.285156 227.550781 C 199.285156 227.550781 196.136719 167.203125 202.226562 159.703125 C 202.226562 159.703125 207.269531 152.609375 218.757812 148.6875 C 218.613281 147.988281 218.398438 147.433594 218.199219 146.75 Z M 218.199219 146.75 " fill-opacity="1" fill-rule="nonzero"/><g clip-path="url(#374ce3fbc0)"><path fill="#e0b77f" d="M 190.308594 212.410156 C 190.355469 212.222656 190.179688 212.058594 189.996094 212.113281 C 188 212.710938 179.757812 216.101562 174.847656 232.058594 C 174.847656 232.058594 171.371094 245.234375 172.621094 258.769531 C 172.621094 258.769531 173.242188 265.269531 176.898438 271.054688 C 176.898438 271.054688 180.316406 277.109375 180.496094 280.433594 C 180.496094 280.433594 181.503906 285.65625 181.207031 288.089844 C 181.207031 288.089844 181.503906 293.375 183.585938 295.273438 C 183.585938 295.273438 186.734375 299.488281 186.675781 302.097656 C 186.675781 302.097656 186.882812 305.609375 186.238281 307.527344 C 186.097656 307.9375 186.109375 308.386719 186.304688 308.773438 C 186.457031 309.070312 186.707031 309.3125 187.117188 309.230469 C 187.335938 309.183594 187.527344 309.054688 187.671875 308.882812 C 188.421875 308 191.480469 304.210938 191.609375 301.269531 C 191.609375 301.269531 192.265625 295.777344 193.542969 294.351562 C 193.542969 294.351562 195.847656 291.578125 195.933594 286.324219 C 195.933594 286.324219 196.023438 283.386719 198.207031 280.226562 C 198.207031 280.226562 203.023438 272.347656 204.226562 268.25 C 204.226562 268.25 214.941406 243.484375 207.332031 223.304688 C 207.332031 223.304688 206.476562 221.09375 205.351562 219.601562 C 204.746094 218.804688 204.191406 217.96875 203.734375 217.074219 C 203.644531 216.90625 203.566406 216.738281 203.496094 216.589844 C 203.457031 216.5 203.414062 216.414062 203.371094 216.328125 C 202.753906 215.109375 201.636719 214.21875 200.324219 213.839844 C 200.015625 213.753906 199.472656 213.46875 199.054688 213.328125 C 198.839844 213.253906 198.632812 213.449219 198.691406 213.667969 C 198.867188 214.324219 198.941406 215.566406 197.050781 215.703125 C 197.050781 215.703125 196.277344 215.378906 195.59375 215.882812 C 195.59375 215.882812 193.929688 217.039062 192.589844 215.824219 C 192.589844 215.824219 189.664062 214.941406 190.308594 212.410156 Z M 190.308594 212.410156 " fill-opacity="1" fill-rule="nonzero"/></g><path fill="#ffe3b0" d="M 189.382812 227.339844 C 189.382812 227.339844 185.457031 238.113281 186.082031 249.507812 C 186.082031 249.507812 185.816406 260.726562 187.6875 267.40625 C 187.6875 267.40625 190.007812 274.246094 192.554688 269.816406 C 193.085938 268.890625 193.367188 267.84375 193.414062 266.777344 C 193.5 264.898438 193.871094 261.203125 195.488281 259.167969 C 195.488281 259.167969 199.457031 253.292969 199.679688 246.703125 C 199.679688 246.703125 200.660156 237.667969 199.410156 234.820312 C 199.410156 234.820312 200.4375 235.042969 200.480469 244.65625 C 200.480469 244.65625 201.105469 253.738281 197.09375 260.238281 C 197.09375 260.238281 194.597656 265.535156 195.933594 266.070312 C 195.933594 266.070312 203.617188 251.644531 203.855469 240.488281 C 203.855469 240.488281 208.492188 219.949219 194.582031 217.574219 C 194.582031 217.574219 194.285156 218.125 194.328125 219.148438 C 194.328125 219.148438 194.242188 221.550781 193.929688 222.886719 C 193.929688 222.886719 192.859375 227.960938 193.394531 230.8125 C 193.394531 230.8125 192.902344 235.441406 191.34375 237.175781 C 191.34375 237.175781 193.082031 232.28125 192.859375 229.789062 C 192.859375 229.789062 192.144531 224.265625 193.304688 222.441406 C 193.304688 222.441406 194.640625 217.589844 190.984375 216.964844 C 190.984375 216.964844 186.992188 215.96875 182.289062 224.417969 C 180.621094 227.414062 179.425781 230.648438 178.660156 233.992188 C 177.140625 240.652344 175.109375 253.800781 180.199219 261.972656 C 180.199219 261.972656 178.546875 255.339844 181.132812 252.578125 C 181.132812 252.578125 183.941406 266.070312 186.261719 268.828125 C 186.261719 268.828125 187.285156 269.40625 186.816406 268.226562 C 186.816406 268.226562 183.289062 253.011719 185.726562 239.773438 C 185.726562 239.777344 186.972656 228.914062 189.382812 227.339844 Z M 189.382812 227.339844 " fill-opacity="1" fill-rule="nonzero"/><path fill="#e0b77f" d="M 183.363281 224.136719 C 183.363281 224.136719 183.230469 226.183594 182.292969 228.1875 C 182.292969 228.1875 179.039062 232.90625 179.976562 242.34375 C 179.976562 242.34375 178.238281 238.601562 179.527344 233.304688 C 179.527344 233.304688 180.597656 228.542969 181.9375 227.386719 C 181.9375 227.386719 182.738281 224.359375 183.363281 224.136719 Z M 183.363281 224.136719 " fill-opacity="1" fill-rule="nonzero"/></svg>
