<svg xmlns="http://www.w3.org/2000/svg" xmlns:xlink="http://www.w3.org/1999/xlink" width="512" zoomAndPan="magnify" viewBox="0 0 384 383.999986" height="512" preserveAspectRatio="xMidYMid meet" version="1.0"><defs><clipPath id="c32a72b167"><path d="M 94 95 L 290 95 L 290 311.136719 L 94 311.136719 Z M 94 95 " clip-rule="nonzero"/></clipPath><clipPath id="fde60e4708"><path d="M 125 213 L 199 213 L 199 311.136719 L 125 311.136719 Z M 125 213 " clip-rule="nonzero"/></clipPath><clipPath id="2ed9994b23"><path d="M 73 72.636719 L 311 72.636719 L 311 214 L 73 214 Z M 73 72.636719 " clip-rule="nonzero"/></clipPath><clipPath id="ce55e1ebcb"><path d="M 68.628906 303 L 315.378906 303 L 315.378906 311.136719 L 68.628906 311.136719 Z M 68.628906 303 " clip-rule="nonzero"/></clipPath></defs><rect x="-38.4" width="460.8" fill="#ffffff" y="-38.399999" height="460.799983" fill-opacity="1"/><rect x="-38.4" width="460.8" fill="#eaeaea" y="-38.399999" height="460.799983" fill-opacity="1"/><g clip-path="url(#c32a72b167)"><path fill="#e9eaef" d="M 285.4375 311.132812 C 283.496094 311.132812 129.296875 309.699219 102.394531 307.832031 C 102.128906 309.699219 100.523438 311.132812 98.578125 311.132812 C 96.449219 311.132812 94.726562 309.410156 94.726562 307.285156 L 94.726562 202.273438 L 94.351562 201.941406 L 94.820312 201.410156 C 95.113281 200.132812 96.042969 199.097656 97.257812 198.65625 L 187.925781 96.140625 L 188.289062 95.734375 L 188.664062 96.128906 L 286.433594 198.554688 C 287.824219 198.921875 288.902344 200.046875 289.207031 201.457031 L 289.65625 201.929688 L 289.292969 202.273438 L 289.292969 307.285156 C 289.292969 309.414062 287.570312 311.136719 285.441406 311.136719 Z M 285.4375 311.132812 " fill-opacity="1" fill-rule="evenodd"/></g><path fill="#c97523" d="M 205.773438 196.164062 L 178.242188 196.164062 C 171.628906 196.164062 166.246094 190.789062 166.246094 184.179688 L 166.246094 156.671875 C 166.246094 150.066406 171.628906 144.6875 178.242188 144.6875 L 205.777344 144.6875 C 212.390625 144.6875 217.773438 150.0625 217.773438 156.671875 L 217.773438 184.179688 C 217.773438 190.789062 212.390625 196.164062 205.777344 196.164062 Z M 205.773438 196.164062 " fill-opacity="1" fill-rule="evenodd"/><path fill="#96e6ff" d="M 205.773438 190.386719 C 209.199219 190.386719 211.992188 187.597656 211.992188 184.179688 L 211.992188 156.671875 C 211.992188 153.25 209.199219 150.464844 205.773438 150.464844 L 178.242188 150.464844 C 174.816406 150.464844 172.027344 153.253906 172.027344 156.671875 L 172.027344 184.179688 C 172.027344 187.597656 174.816406 190.386719 178.242188 190.386719 Z M 205.773438 190.386719 " fill-opacity="1" fill-rule="evenodd"/><path fill="#9eb1b7" d="M 274.910156 164.96875 C 272.78125 164.96875 271.058594 163.242188 271.058594 161.117188 L 258.617188 139.386719 C 258.617188 141.515625 256.890625 143.238281 254.761719 143.238281 C 252.632812 143.238281 250.90625 141.515625 250.90625 139.386719 L 250.90625 102.25 C 250.90625 100.121094 252.632812 98.398438 254.761719 98.398438 C 256.746094 98.398438 258.378906 99.894531 258.59375 101.820312 C 263.792969 100.085938 273.375 98.398438 274.910156 98.398438 C 277.039062 98.398438 278.765625 100.121094 278.765625 102.25 L 278.765625 161.117188 C 278.765625 163.242188 277.039062 164.96875 274.910156 164.96875 Z M 274.910156 164.96875 " fill-opacity="1" fill-rule="evenodd"/><g clip-path="url(#fde60e4708)"><path fill="#c97523" d="M 194.457031 311.132812 C 192.648438 311.132812 147.316406 309.492188 133.550781 307.695312 C 133.34375 309.628906 131.707031 311.132812 129.714844 311.132812 C 127.585938 311.132812 125.863281 309.410156 125.863281 307.285156 L 125.863281 217.804688 C 125.863281 215.679688 127.585938 213.957031 129.714844 213.957031 L 194.457031 213.957031 C 196.585938 213.957031 198.308594 215.679688 198.308594 217.804688 L 198.308594 307.285156 C 198.308594 309.410156 196.585938 311.132812 194.457031 311.132812 Z M 194.457031 311.132812 " fill-opacity="1" fill-rule="evenodd"/></g><path fill="#c97523" d="M 254.300781 255.496094 L 214.777344 255.496094 C 212.648438 255.496094 210.925781 253.773438 210.925781 251.644531 L 210.925781 218.554688 C 210.925781 216.429688 212.648438 214.707031 214.777344 214.707031 L 254.300781 214.707031 C 256.429688 214.707031 258.15625 216.429688 258.15625 218.554688 L 258.15625 251.644531 C 258.15625 253.773438 256.429688 255.496094 254.300781 255.496094 Z M 254.300781 255.496094 " fill-opacity="1" fill-rule="evenodd"/><path fill="#96e6ff" d="M 254.300781 251.644531 L 254.300781 218.558594 L 214.78125 218.554688 L 214.78125 251.644531 Z M 254.300781 251.644531 " fill-opacity="1" fill-rule="evenodd"/><path fill="#c97523" d="M 192.007812 196.164062 C 189.878906 196.164062 188.152344 194.441406 188.152344 192.316406 L 188.152344 148.539062 C 188.152344 146.410156 189.878906 144.6875 192.007812 144.6875 C 194.136719 144.6875 195.863281 146.410156 195.863281 148.539062 L 195.863281 192.316406 C 195.863281 194.441406 194.136719 196.164062 192.007812 196.164062 Z M 192.007812 196.164062 " fill-opacity="1" fill-rule="evenodd"/><path fill="#c97523" d="M 213.917969 174.277344 L 170.097656 174.277344 C 167.96875 174.277344 166.246094 172.554688 166.246094 170.425781 C 166.246094 168.296875 167.96875 166.574219 170.097656 166.574219 L 213.917969 166.574219 C 216.046875 166.574219 217.773438 168.296875 217.773438 170.425781 C 217.773438 172.554688 216.046875 174.277344 213.917969 174.277344 Z M 213.917969 174.277344 " fill-opacity="1" fill-rule="evenodd"/><path fill="#a35715" d="M 180.605469 275.902344 C 178.476562 275.902344 176.75 274.179688 176.75 272.050781 L 176.75 266.410156 C 176.75 264.285156 178.476562 262.5625 180.605469 262.5625 C 182.734375 262.5625 184.460938 264.285156 184.460938 266.410156 L 184.460938 272.050781 C 184.460938 274.179688 182.734375 275.902344 180.605469 275.902344 Z M 180.605469 275.902344 " fill-opacity="1" fill-rule="evenodd"/><path fill="#e42105" d="M 106.917969 136.074219 C 106.402344 136.074219 105.882812 135.96875 105.398438 135.761719 C 90.164062 129.246094 71.238281 106.890625 76.304688 89.371094 C 78.152344 82.996094 83.6875 78.875 90.410156 78.875 C 95.558594 78.875 100.699219 81.335938 104.515625 85.628906 C 105.335938 86.550781 106.105469 87.574219 106.914062 88.722656 C 107.722656 87.570312 108.496094 86.550781 109.316406 85.628906 C 113.132812 81.339844 118.273438 78.878906 123.417969 78.878906 C 130.144531 78.878906 135.675781 83 137.523438 89.375 C 142.59375 106.890625 123.667969 129.246094 108.433594 135.765625 C 107.949219 135.972656 107.433594 136.074219 106.917969 136.074219 Z M 106.917969 136.074219 " fill-opacity="1" fill-rule="evenodd"/><g clip-path="url(#2ed9994b23)"><path fill="#ea4756" d="M 296.847656 213.640625 C 292.960938 213.640625 289.214844 212.011719 286.582031 209.171875 L 192.007812 107.183594 L 97.4375 209.171875 C 94.800781 212.011719 91.058594 213.640625 87.167969 213.640625 C 83.628906 213.640625 80.25 212.320312 77.664062 209.925781 C 74.925781 207.394531 73.34375 203.941406 73.199219 200.203125 C 73.054688 196.46875 74.375 192.902344 76.910156 190.171875 L 181.742188 77.117188 C 184.460938 74.183594 188.007812 72.636719 192.007812 72.636719 C 196.003906 72.636719 199.554688 74.183594 202.269531 77.117188 L 307.109375 190.175781 C 309.644531 192.910156 310.960938 196.472656 310.820312 200.207031 C 310.675781 203.941406 309.089844 207.394531 306.351562 209.925781 C 303.761719 212.320312 300.386719 213.640625 296.847656 213.640625 Z M 296.847656 213.640625 " fill-opacity="1" fill-rule="evenodd"/></g><g clip-path="url(#ce55e1ebcb)"><path fill="#564e57" d="M 311.488281 311.132812 L 72.527344 311.132812 C 70.398438 311.132812 68.675781 309.410156 68.675781 307.285156 C 68.675781 305.15625 70.398438 303.433594 72.527344 303.433594 L 311.488281 303.433594 C 313.617188 303.433594 315.34375 305.15625 315.34375 307.285156 C 315.34375 309.410156 313.617188 311.132812 311.488281 311.132812 Z M 311.488281 311.132812 " fill-opacity="1" fill-rule="evenodd"/></g><path fill="#879ba0" d="M 287.234375 106.097656 L 242.441406 106.097656 C 240.308594 106.097656 238.585938 104.375 238.585938 102.25 C 238.585938 100.121094 240.308594 98.398438 242.441406 98.398438 L 287.230469 98.398438 C 289.359375 98.398438 291.085938 100.121094 291.085938 102.25 C 291.085938 104.375 289.363281 106.097656 287.234375 106.097656 Z M 287.234375 106.097656 " fill-opacity="1" fill-rule="evenodd"/></svg>
