<svg xmlns="http://www.w3.org/2000/svg" xmlns:xlink="http://www.w3.org/1999/xlink" width="512" zoomAndPan="magnify" viewBox="0 0 384 383.999986" height="512" preserveAspectRatio="xMidYMid meet" version="1.0"><defs><clipPath id="2c34d31be0"><path d="M 197 259 L 202 259 L 202 297.558594 L 197 297.558594 Z M 197 259 " clip-rule="nonzero"/></clipPath><clipPath id="23c012b541"><path d="M 197 86.808594 L 275 86.808594 L 275 296 L 197 296 Z M 197 86.808594 " clip-rule="nonzero"/></clipPath><clipPath id="a64a40f5c2"><path d="M 102.542969 131 L 201 131 L 201 289 L 102.542969 289 Z M 102.542969 131 " clip-rule="nonzero"/></clipPath><clipPath id="3e7737b31a"><path d="M 102.542969 86.808594 L 272 86.808594 L 272 244 L 102.542969 244 Z M 102.542969 86.808594 " clip-rule="nonzero"/></clipPath><clipPath id="30b31f51a9"><path d="M 102.542969 131 L 202 131 L 202 293 L 102.542969 293 Z M 102.542969 131 " clip-rule="nonzero"/></clipPath><clipPath id="363308ca14"><path d="M 197 86.808594 L 272 86.808594 L 272 296 L 197 296 Z M 197 86.808594 " clip-rule="nonzero"/></clipPath></defs><rect x="-38.4" width="460.8" fill="#ffffff" y="-38.399999" height="460.799983" fill-opacity="1"/><rect x="-38.4" width="460.8" fill="#eaeaea" y="-38.399999" height="460.799983" fill-opacity="1"/><g clip-path="url(#2c34d31be0)"><path fill="#379600" d="M 201.128906 259.523438 L 199.824219 297.558594 L 197.78125 297.34375 L 197.8125 295.363281 L 197.910156 295.363281 C 198.042969 293.53125 198.160156 291.699219 198.257812 289.851562 C 199.480469 279.804688 200.570312 269.671875 201.128906 259.523438 Z M 201.128906 259.523438 " fill-opacity="1" fill-rule="nonzero"/></g><g clip-path="url(#23c012b541)"><path fill="#58c600" d="M 261.199219 150.371094 C 249.996094 165.222656 236.332031 175.730469 225.15625 186.835938 C 220.917969 191.046875 218.425781 193.371094 215.851562 196.738281 C 211.789062 202.050781 208.933594 208.191406 207.351562 214.675781 C 206.046875 220.085938 204.660156 226.144531 203.605469 231.058594 C 202.648438 235.53125 201.9375 239.0625 201.789062 240.285156 L 201.527344 248.074219 L 201.507812 248.371094 L 201.128906 259.507812 C 200.570312 269.65625 199.480469 279.789062 198.273438 289.835938 C 198.175781 291.683594 198.058594 293.515625 197.929688 295.347656 L 197.828125 295.347656 L 197.878906 292.328125 L 197.945312 288.796875 C 197.960938 287.707031 197.996094 286.636719 198.027344 285.5625 C 198.058594 284.359375 198.09375 283.167969 198.144531 281.980469 C 198.144531 281.914062 198.144531 281.851562 198.144531 281.765625 C 198.175781 280.597656 198.226562 279.441406 198.273438 278.285156 C 198.273438 278.269531 198.273438 278.269531 198.273438 278.253906 C 198.308594 277.277344 198.355469 276.320312 198.390625 275.347656 C 198.390625 275.332031 198.390625 275.316406 198.390625 275.300781 C 198.421875 274.472656 198.472656 273.648438 198.503906 272.824219 C 198.589844 271.257812 198.671875 269.6875 198.753906 268.136719 C 198.753906 268.121094 198.753906 268.089844 198.753906 268.054688 C 198.867188 266.15625 198.984375 264.261719 199.101562 262.394531 C 199.132812 261.933594 199.164062 261.453125 199.199219 260.992188 C 199.332031 259.144531 199.464844 257.296875 199.613281 255.480469 C 199.644531 255.019531 199.675781 254.574219 199.726562 254.128906 C 199.84375 252.824219 199.941406 251.519531 200.058594 250.234375 C 200.058594 250.183594 200.058594 250.136719 200.074219 250.101562 C 200.1875 248.765625 200.320312 247.445312 200.453125 246.140625 C 200.535156 245.316406 200.617188 244.507812 200.699219 243.683594 C 200.699219 243.632812 200.71875 243.585938 200.71875 243.519531 C 200.914062 241.570312 201.128906 239.640625 201.359375 237.742188 C 215.15625 119.664062 263.972656 93.179688 271.53125 86.941406 L 271.546875 86.925781 C 271.546875 86.925781 271.546875 86.941406 271.5625 86.992188 C 271.5625 87.007812 271.5625 87.023438 271.582031 87.039062 C 272.257812 89.285156 281.746094 123.128906 261.199219 150.371094 Z M 261.199219 150.371094 " fill-opacity="1" fill-rule="nonzero"/></g><g clip-path="url(#a64a40f5c2)"><path fill="#58c600" d="M 198.917969 235.25 C 198.554688 229.410156 196.542969 222.792969 195.335938 218.46875 C 195.253906 218.15625 195.15625 217.84375 195.039062 217.546875 C 193.800781 213.980469 192.117188 210.664062 188.867188 208.71875 C 186.820312 207.496094 184.496094 206.191406 181.835938 204.855469 C 169.363281 198.554688 149.757812 191.40625 138.882812 182.746094 C 113.679688 162.695312 102.671875 131.871094 102.589844 131.625 C 104.375 131.921875 196.113281 146.261719 200.71875 243.683594 C 199.28125 257.476562 198.324219 272.492188 197.945312 288.8125 Z M 198.917969 235.25 " fill-opacity="1" fill-rule="nonzero"/></g><g clip-path="url(#3e7737b31a)"><path fill="#3ebb00" d="M 271.5625 86.925781 C 263.941406 93.210938 213.589844 120.386719 200.75 243.519531 C 200.75 243.566406 200.734375 243.617188 200.734375 243.683594 C 196.113281 146.261719 104.375 131.921875 102.589844 131.625 C 102.589844 131.625 144.640625 118.226562 172.152344 147.746094 C 186.988281 163.671875 194.445312 189.410156 197.730469 204.527344 C 197.894531 205.253906 198.011719 205.980469 198.125 206.722656 L 200.933594 225.761719 L 202.714844 209.261719 C 203.160156 204.640625 202.367188 199.527344 202.003906 194.90625 C 200.699219 177.710938 200.816406 150.171875 211.675781 130.289062 C 228.589844 99.316406 271.5625 86.925781 271.5625 86.925781 Z M 271.5625 86.925781 " fill-opacity="1" fill-rule="nonzero"/></g><g clip-path="url(#30b31f51a9)"><path fill="#379600" d="M 201.527344 248.089844 C 201.527344 248.171875 201.527344 248.238281 201.527344 248.320312 C 201.492188 252.050781 201.34375 255.792969 201.128906 259.523438 C 200.570312 269.671875 199.480469 279.804688 198.273438 289.851562 C 198.175781 290.679688 198.078125 291.519531 197.976562 292.34375 L 197.878906 292.34375 L 197.695312 292.328125 C 197.796875 289.820312 197.910156 287.328125 198.011719 284.820312 C 198.042969 283.878906 198.09375 282.921875 198.125 281.980469 C 198.125 281.914062 198.125 281.851562 198.125 281.765625 C 198.257812 278.78125 198.390625 275.792969 198.503906 272.808594 C 198.503906 272.742188 198.503906 272.675781 198.503906 272.609375 C 198.503906 272.542969 198.503906 272.492188 198.503906 272.429688 C 198.589844 270.300781 198.671875 268.1875 198.738281 266.058594 C 198.917969 260.21875 199.015625 254.359375 198.96875 248.5 C 198.953125 246.074219 198.886719 243.632812 198.804688 241.207031 C 198.652344 237.511719 198.441406 233.800781 198.09375 230.121094 C 198.042969 229.542969 197.976562 228.949219 197.910156 228.371094 C 197.121094 220.894531 195.800781 213.453125 193.308594 206.339844 C 192.929688 205.152344 192.351562 203.703125 191.921875 202.53125 C 177.960938 166.261719 142.875 141.707031 106.058594 132.417969 C 105 132.1875 103.910156 131.9375 102.855469 131.824219 L 102.855469 131.558594 C 105.066406 131.773438 107.179688 132.316406 109.339844 132.8125 C 115.742188 134.398438 122 136.527344 128.089844 139.035156 C 152.496094 149.015625 174.675781 165.914062 187.960938 189 C 193.472656 198.601562 197.714844 209.0625 199.613281 220.003906 C 199.992188 222.132812 200.320312 224.441406 200.570312 226.589844 C 200.699219 227.824219 200.816406 229.078125 200.914062 230.316406 C 201.128906 232.792969 201.277344 235.269531 201.378906 237.757812 C 201.527344 241.191406 201.558594 244.640625 201.527344 248.089844 Z M 201.527344 248.089844 " fill-opacity="1" fill-rule="nonzero"/></g><g clip-path="url(#363308ca14)"><path fill="#379600" d="M 271.613281 87.039062 C 271.613281 87.039062 271.597656 87.039062 271.613281 87.039062 C 268.792969 89.265625 265.855469 91.296875 263.132812 93.605469 C 258.542969 97.402344 254.285156 101.59375 250.375 106.066406 C 233.523438 125.421875 222.832031 149.332031 215.386719 173.667969 C 214.679688 175.996094 213.128906 181.625 212.484375 183.964844 C 212.21875 185.070312 211.492188 188.027344 211.214844 189.164062 C 210.042969 193.816406 208.738281 200.121094 207.8125 204.855469 C 206.691406 210.960938 205.503906 218.039062 204.59375 224.210938 C 204.265625 226.488281 203.933594 228.765625 203.621094 231.058594 C 202.847656 236.769531 202.152344 242.527344 201.527344 248.304688 C 201.527344 248.320312 201.527344 248.351562 201.527344 248.371094 C 200.601562 256.902344 199.859375 265.464844 199.296875 273.914062 C 198.867188 279.191406 198.605469 284.523438 198.292969 289.835938 C 198.191406 291.683594 198.078125 293.515625 197.945312 295.347656 L 197.679688 295.347656 C 197.464844 283.417969 197.53125 271.421875 198.273438 259.507812 C 198.355469 258.105469 198.472656 255.894531 198.605469 253.765625 C 198.71875 251.835938 198.851562 249.96875 198.984375 248.765625 C 198.984375 248.683594 199 248.582031 199 248.5 C 199.332031 244.507812 199.726562 240.414062 200.207031 236.242188 C 200.4375 234.277344 200.683594 232.28125 200.933594 230.285156 C 207.234375 182.152344 224.085938 126.179688 260.042969 95.472656 C 262.75 93.160156 265.65625 90.949219 268.558594 88.90625 C 269.417969 88.292969 270.292969 87.683594 271.136719 87.039062 C 271.234375 86.957031 271.347656 86.875 271.449219 86.808594 L 271.546875 86.925781 L 271.597656 86.972656 Z M 271.613281 87.039062 " fill-opacity="1" fill-rule="nonzero"/></g></svg>
