<svg xmlns="http://www.w3.org/2000/svg" xmlns:xlink="http://www.w3.org/1999/xlink" width="512" zoomAndPan="magnify" viewBox="0 0 384 383.999986" height="512" preserveAspectRatio="xMidYMid meet" version="1.0"><defs><clipPath id="607ee49196"><path d="M 76.800781 76.800781 L 307.050781 76.800781 L 307.050781 307.050781 L 76.800781 307.050781 Z M 76.800781 76.800781 " clip-rule="nonzero"/></clipPath></defs><rect x="-38.4" width="460.8" fill="#ffffff" y="-38.399999" height="460.799983" fill-opacity="1"/><rect x="-38.4" width="460.8" fill="#eaeaea" y="-38.399999" height="460.799983" fill-opacity="1"/><path fill="#000000" d="M 136.742188 231.574219 C 134.9375 232.183594 133.003906 232.507812 131 232.507812 C 121.039062 232.507812 112.953125 224.425781 112.953125 214.464844 C 112.953125 204.503906 121.039062 196.417969 131 196.417969 C 133.003906 196.417969 134.632812 194.789062 134.632812 192.78125 C 134.632812 190.777344 133.003906 189.148438 131 189.148438 C 117.027344 189.148438 105.683594 200.492188 105.683594 214.464844 C 105.683594 228.433594 117.027344 239.78125 131 239.78125 C 133.816406 239.78125 136.527344 239.316406 139.058594 238.46875 C 140.960938 237.828125 141.984375 235.765625 141.347656 233.863281 C 140.707031 231.960938 138.644531 230.9375 136.742188 231.574219 Z M 252.851562 196.417969 C 262.808594 196.417969 270.894531 204.503906 270.894531 214.464844 C 270.894531 224.425781 262.808594 232.507812 252.851562 232.507812 C 250.84375 232.507812 248.914062 232.183594 247.109375 231.574219 C 245.203125 230.9375 243.140625 231.960938 242.503906 233.863281 C 241.863281 235.765625 242.890625 237.828125 244.789062 238.46875 C 247.324219 239.316406 250.035156 239.78125 252.851562 239.78125 C 266.824219 239.78125 278.167969 228.433594 278.167969 214.464844 C 278.167969 200.492188 266.824219 189.148438 252.851562 189.148438 C 250.84375 189.148438 249.214844 190.777344 249.214844 192.78125 C 249.214844 194.789062 250.84375 196.417969 252.851562 196.417969 Z M 252.851562 196.417969 " fill-opacity="1" fill-rule="evenodd"/><path fill="#000000" d="M 204.691406 163.886719 C 210.574219 141.1875 206.914062 122.828125 190.132812 110.589844 C 188.511719 109.40625 186.238281 109.761719 185.054688 111.382812 C 183.871094 113.003906 184.226562 115.28125 185.847656 116.464844 C 200.15625 126.898438 202.667969 142.710938 197.65625 162.0625 C 197.152344 164.003906 198.320312 165.988281 200.261719 166.492188 C 202.203125 166.996094 204.1875 165.828125 204.691406 163.886719 Z M 204.691406 163.886719 " fill-opacity="1" fill-rule="evenodd"/><path fill="#000000" d="M 180.769531 163.886719 C 185.3125 146.363281 182.410156 132.210938 169.457031 122.761719 C 167.835938 121.578125 165.558594 121.9375 164.378906 123.558594 C 163.195312 125.175781 163.554688 127.453125 165.171875 128.636719 C 175.65625 136.28125 177.40625 147.886719 173.734375 162.0625 C 173.230469 164.003906 174.398438 165.988281 176.339844 166.492188 C 178.285156 166.996094 180.269531 165.828125 180.769531 163.886719 Z M 180.769531 163.886719 " fill-opacity="1" fill-rule="evenodd"/><path fill="#000000" d="M 144.753906 240.285156 C 139.574219 231.863281 136.585938 221.953125 136.585938 211.347656 C 136.585938 180.804688 161.382812 156.007812 191.925781 156.007812 C 222.46875 156.007812 247.265625 180.804688 247.265625 211.347656 C 247.265625 241.890625 222.46875 266.6875 191.925781 266.6875 C 176.714844 266.6875 162.929688 260.535156 152.921875 250.589844 C 151.496094 249.175781 149.191406 249.183594 147.78125 250.605469 C 146.363281 252.027344 146.371094 254.332031 147.792969 255.746094 C 159.117188 267 174.714844 273.960938 191.925781 273.960938 C 226.480469 273.960938 254.535156 245.90625 254.535156 211.347656 C 254.535156 176.792969 226.480469 148.738281 191.925781 148.738281 C 157.371094 148.738281 129.3125 176.792969 129.3125 211.347656 C 129.3125 223.351562 132.699219 234.566406 138.5625 244.097656 C 139.613281 245.804688 141.855469 246.339844 143.566406 245.289062 C 145.273438 244.234375 145.808594 241.996094 144.753906 240.285156 Z M 144.753906 240.285156 " fill-opacity="1" fill-rule="evenodd"/><path fill="#000000" d="M 172.769531 239.210938 C 185.527344 247.339844 198.285156 247.144531 211.042969 239.234375 C 212.75 238.179688 213.273438 235.933594 212.21875 234.230469 C 211.160156 232.523438 208.917969 232 207.214844 233.054688 C 197.035156 239.363281 186.855469 239.5625 176.675781 233.078125 C 174.984375 232 172.734375 232.5 171.65625 234.191406 C 170.578125 235.882812 171.078125 238.132812 172.769531 239.210938 Z M 172.769531 239.210938 " fill-opacity="1" fill-rule="evenodd"/><g clip-path="url(#607ee49196)"><path fill="#000000" d="M 191.925781 76.800781 C 128.386719 76.800781 76.800781 128.386719 76.800781 191.925781 C 76.800781 255.464844 128.386719 307.050781 191.925781 307.050781 C 255.464844 307.050781 307.050781 255.464844 307.050781 191.925781 C 307.050781 128.386719 255.464844 76.800781 191.925781 76.800781 Z M 191.925781 84.070312 C 251.449219 84.070312 299.777344 132.398438 299.777344 191.925781 C 299.777344 251.449219 251.449219 299.777344 191.925781 299.777344 C 132.398438 299.777344 84.070312 251.449219 84.070312 191.925781 C 84.070312 132.398438 132.398438 84.070312 191.925781 84.070312 Z M 191.925781 84.070312 " fill-opacity="1" fill-rule="evenodd"/></g><path fill="#000000" d="M 116.070312 272.921875 L 272.894531 116.097656 C 274.3125 114.675781 274.3125 112.375 272.894531 110.953125 C 271.476562 109.535156 269.171875 109.535156 267.753906 110.953125 L 110.929688 267.777344 C 109.511719 269.199219 109.511719 271.5 110.929688 272.921875 C 112.347656 274.339844 114.652344 274.339844 116.070312 272.921875 Z M 116.070312 272.921875 " fill-opacity="1" fill-rule="evenodd"/></svg>
