<svg xmlns="http://www.w3.org/2000/svg" xmlns:xlink="http://www.w3.org/1999/xlink" width="512" zoomAndPan="magnify" viewBox="0 0 384 383.999986" height="512" preserveAspectRatio="xMidYMid meet" version="1.0"><defs><clipPath id="d69995e4c9"><path d="M 76.800781 77.519531 L 307 77.519531 L 307 306.269531 L 76.800781 306.269531 Z M 76.800781 77.519531 " clip-rule="nonzero"/></clipPath></defs><rect x="-38.4" width="460.8" fill="#ffffff" y="-38.399999" height="460.799983" fill-opacity="1"/><rect x="-38.4" width="460.8" fill="#eaeaea" y="-38.399999" height="460.799983" fill-opacity="1"/><g clip-path="url(#d69995e4c9)"><path fill="#4d4d4d" d="M 276.734375 305.277344 C 276.257812 305.882812 275.480469 306.269531 274.703125 306.269531 L 186.800781 306.269531 C 185.375 306.269531 184.207031 305.101562 184.207031 303.675781 C 184.207031 299.441406 185.71875 295.464844 188.53125 292.480469 C 191.382812 289.410156 195.1875 287.726562 199.210938 287.726562 L 217.195312 287.726562 C 207.296875 281.371094 200.636719 269.746094 200.636719 256.515625 C 200.636719 236.460938 215.941406 220.121094 234.75 220.121094 C 236.179688 220.121094 237.34375 221.289062 237.34375 222.714844 C 237.34375 224.140625 236.179688 225.308594 234.75 225.308594 C 218.796875 225.308594 205.824219 239.3125 205.824219 256.515625 C 205.824219 273.722656 218.796875 287.726562 234.75 287.726562 C 236.179688 287.726562 237.34375 288.894531 237.34375 290.320312 C 237.34375 291.746094 236.179688 292.914062 234.75 292.914062 L 199.253906 292.914062 C 196.660156 292.914062 194.195312 293.992188 192.378906 295.980469 C 191.039062 297.410156 190.128906 299.136719 189.742188 301.039062 L 273.492188 301.039062 C 319.019531 241.042969 235.355469 161.074219 190.996094 125.113281 L 157.53125 161.03125 C 157.011719 161.59375 156.320312 161.851562 155.628906 161.851562 C 154.980469 161.851562 154.375 161.636719 153.855469 161.160156 C 152.816406 160.167969 152.730469 158.523438 153.726562 157.488281 L 186.929688 121.828125 C 186.457031 121.4375 185.9375 121.046875 185.460938 120.660156 C 179.710938 116.121094 174.996094 109.851562 171.839844 102.589844 C 166.566406 90.445312 155.152344 82.621094 142.742188 82.621094 C 125.058594 82.621094 110.660156 98.136719 110.660156 117.246094 C 110.660156 120.703125 109.105469 123.945312 106.511719 125.976562 L 83.078125 144.261719 C 91.550781 154.980469 105.515625 158.871094 117.796875 153.726562 C 124.152344 151.089844 131.457031 153.8125 134.832031 160.082031 C 135.003906 160.382812 135.089844 160.6875 135.132812 160.988281 L 137.382812 180.09375 C 138.417969 188.78125 142.699219 196.824219 149.140625 202.140625 C 163.582031 214.027344 170.285156 233.953125 166.132812 252.929688 L 157.917969 290.839844 C 157.660156 292.046875 156.621094 292.871094 155.367188 292.871094 L 148.535156 292.871094 C 143.652344 292.871094 139.5 296.242188 137.945312 301.039062 L 164.015625 301.039062 C 165.441406 301.039062 166.609375 302.207031 166.609375 303.632812 C 166.609375 305.058594 165.441406 306.226562 164.015625 306.226562 L 134.746094 306.226562 C 134.007812 306.226562 133.316406 305.925781 132.84375 305.363281 C 132.367188 304.84375 132.105469 304.109375 132.191406 303.375 C 133.058594 294.425781 140.0625 287.683594 148.535156 287.683594 L 153.25 287.683594 L 161.03125 251.847656 C 164.75 234.730469 158.785156 216.792969 145.8125 206.160156 C 138.332031 200.019531 133.359375 190.726562 132.191406 180.742188 L 130.03125 162.15625 C 127.828125 158.480469 123.589844 156.96875 119.785156 158.523438 C 115.460938 160.339844 111.007812 161.203125 106.597656 161.203125 C 95.269531 161.203125 84.285156 155.5 77.324219 145.253906 C 76.546875 144.128906 76.808594 142.574219 77.886719 141.753906 L 103.269531 121.957031 C 104.609375 120.917969 105.429688 119.191406 105.429688 117.375 C 105.429688 95.371094 122.164062 77.519531 142.699219 77.519531 C 157.183594 77.519531 170.457031 86.597656 176.554688 100.644531 C 179.363281 107.128906 183.515625 112.707031 188.617188 116.683594 C 212.65625 135.660156 245.992188 165.226562 268.390625 198.550781 C 281.144531 217.527344 288.796875 235.554688 291.089844 252.109375 C 293.769531 271.820312 288.925781 289.714844 276.734375 305.277344 Z M 305.269531 226.476562 C 302.546875 212.988281 296.492188 200.152344 287.285156 188.351562 C 286.417969 187.226562 284.777344 187.011719 283.652344 187.917969 C 282.527344 188.78125 282.3125 190.425781 283.21875 191.550781 C 299 211.777344 304.75 234.386719 300.382812 258.722656 C 297.097656 276.964844 289.054688 289.410156 288.925781 289.628906 C 288.148438 290.839844 288.453125 292.4375 289.660156 293.214844 C 290.09375 293.519531 290.613281 293.648438 291.089844 293.648438 C 291.910156 293.648438 292.773438 293.257812 293.25 292.480469 C 293.597656 291.960938 301.941406 279.125 305.445312 259.84375 C 307.519531 248.476562 307.433594 237.238281 305.269531 226.476562 Z M 142.960938 100.128906 C 143.175781 98.699219 142.179688 97.402344 140.796875 97.1875 C 139.371094 96.972656 138.074219 97.964844 137.855469 99.347656 L 134.355469 122.691406 C 133.621094 127.445312 135.003906 132.242188 138.074219 135.832031 C 140.882812 139.074219 144.90625 140.976562 149.054688 140.976562 C 153.121094 140.976562 156.925781 139.246094 159.734375 136.175781 C 162.761719 132.847656 164.273438 128.265625 163.84375 123.640625 L 161.550781 99.523438 C 161.421875 98.09375 160.167969 97.058594 158.742188 97.1875 C 157.3125 97.316406 156.277344 98.570312 156.40625 99.996094 L 158.699219 124.117188 C 159 127.273438 158.003906 130.386719 155.929688 132.675781 C 154.113281 134.707031 151.648438 135.789062 149.054688 135.789062 C 146.375 135.789062 143.867188 134.621094 142.007812 132.460938 C 139.933594 130.039062 139.023438 126.753906 139.5 123.46875 Z M 225.972656 123.597656 C 227.402344 123.597656 228.566406 122.429688 228.566406 121.003906 C 228.566406 115.558594 232.976562 111.148438 238.425781 111.148438 C 239.851562 111.148438 241.019531 109.984375 241.019531 108.554688 C 241.019531 107.128906 239.851562 105.960938 238.425781 105.960938 C 230.125 105.960938 223.378906 112.707031 223.378906 121.003906 C 223.378906 122.429688 224.546875 123.597656 225.972656 123.597656 Z M 273.230469 157.875 C 274.226562 158.871094 275.871094 158.871094 276.90625 157.875 C 278.765625 156.019531 281.230469 154.980469 283.910156 154.980469 C 286.59375 154.980469 289.011719 156.019531 290.871094 157.875 C 291.390625 158.394531 292.039062 158.65625 292.6875 158.65625 C 293.335938 158.65625 294.027344 158.394531 294.503906 157.875 C 295.5 156.882812 295.5 155.238281 294.503906 154.203125 C 291.652344 151.347656 287.890625 149.792969 283.867188 149.792969 C 279.847656 149.792969 276.042969 151.347656 273.230469 154.203125 C 272.195312 155.195312 272.195312 156.839844 273.230469 157.875 Z M 240.5 90.226562 C 245.949219 90.226562 250.359375 94.636719 250.359375 100.082031 C 250.359375 101.511719 251.527344 102.675781 252.953125 102.675781 C 254.378906 102.675781 255.546875 101.511719 255.546875 100.082031 C 255.546875 91.785156 248.804688 85.042969 240.5 85.042969 C 239.074219 85.042969 237.90625 86.207031 237.90625 87.636719 C 237.90625 89.0625 239.03125 90.226562 240.5 90.226562 Z M 270.59375 140.542969 C 272.019531 140.542969 273.1875 139.375 273.1875 137.949219 C 273.1875 136.523438 272.019531 135.355469 270.59375 135.355469 C 265.148438 135.355469 260.738281 130.945312 260.738281 125.5 C 260.738281 124.074219 259.570312 122.90625 258.140625 122.90625 C 256.714844 122.90625 255.546875 124.074219 255.546875 125.5 C 255.546875 133.757812 262.292969 140.542969 270.59375 140.542969 Z M 105.644531 206.679688 C 97.34375 206.679688 90.597656 213.421875 90.597656 221.71875 C 90.597656 223.148438 91.765625 224.3125 93.195312 224.3125 C 94.621094 224.3125 95.789062 223.148438 95.789062 221.71875 C 95.789062 216.273438 100.199219 211.863281 105.644531 211.863281 C 107.074219 211.863281 108.238281 210.699219 108.238281 209.273438 C 108.238281 207.84375 107.074219 206.679688 105.644531 206.679688 Z M 125.535156 263.691406 C 117.234375 263.691406 110.488281 270.4375 110.488281 278.734375 C 110.488281 280.160156 111.65625 281.328125 113.082031 281.328125 C 114.507812 281.328125 115.675781 280.160156 115.675781 278.734375 C 115.675781 273.289062 120.085938 268.878906 125.535156 268.878906 C 126.960938 268.878906 128.128906 267.710938 128.128906 266.285156 C 128.128906 264.859375 126.960938 263.691406 125.535156 263.691406 Z M 93.195312 246.921875 C 89.171875 246.921875 85.367188 248.476562 82.558594 251.332031 C 81.5625 252.324219 81.5625 253.96875 82.558594 255.003906 C 83.078125 255.523438 83.726562 255.78125 84.375 255.78125 C 85.023438 255.78125 85.714844 255.523438 86.1875 255.003906 C 88.046875 253.144531 90.511719 252.109375 93.152344 252.109375 C 95.789062 252.109375 98.253906 253.144531 100.113281 255.003906 C 101.105469 256 102.75 256 103.785156 255.003906 C 104.78125 254.011719 104.78125 252.367188 103.785156 251.332031 C 100.976562 248.476562 97.214844 246.921875 93.195312 246.921875 Z M 107.679688 185.800781 C 106.25 185.800781 105.082031 186.96875 105.082031 188.394531 C 105.082031 189.820312 106.25 190.988281 107.679688 190.988281 C 113.125 190.988281 117.535156 195.394531 117.535156 200.84375 C 117.535156 202.269531 118.703125 203.4375 120.128906 203.4375 C 121.558594 203.4375 122.722656 202.269531 122.722656 200.84375 C 122.722656 192.542969 115.980469 185.800781 107.679688 185.800781 Z M 137.8125 241.300781 C 139.242188 241.300781 140.410156 240.136719 140.410156 238.707031 C 140.410156 237.28125 139.242188 236.113281 137.8125 236.113281 C 132.367188 236.113281 127.957031 231.707031 127.957031 226.257812 C 127.957031 224.832031 126.789062 223.664062 125.363281 223.664062 C 123.933594 223.664062 122.769531 224.832031 122.769531 226.257812 C 122.722656 234.558594 129.511719 241.300781 137.8125 241.300781 Z M 137.8125 241.300781 " fill-opacity="1" fill-rule="nonzero"/></g></svg>
